<svg width="333" height="99" viewBox="0 0 333 99" fill="none" xmlns="http://www.w3.org/2000/svg">
<path fill-rule="evenodd" clip-rule="evenodd" d="M329.106 24.8597V34.7802C323.968 32.84 319.394 31.859 315.391 31.859C313.019 31.859 311.131 32.2983 309.711 33.1476C308.291 34.0041 307.566 35.0585 307.566 36.3031C307.566 37.9578 309.169 39.4293 312.397 40.7473L321.721 45.2866C329.26 48.8814 333 53.6549 333 59.6512C333 64.6371 331.017 68.6127 327.013 71.5559C323.039 74.5285 317.689 76 311.028 76C307.954 76 305.195 75.8683 302.743 75.59C300.292 75.3265 297.474 74.7846 294.348 74.0085V63.6268C300.079 65.567 305.298 66.548 309.996 66.548C315.603 66.548 318.391 64.9227 318.391 61.6427C318.391 60.01 317.25 58.6922 314.93 57.6598L304.573 53.2449C300.753 51.5171 297.913 49.4232 296.054 46.9412C294.224 44.4373 293.294 41.5673 293.294 38.2873C293.294 33.6966 295.227 29.9993 299.047 27.1878C302.897 24.3983 308.006 23 314.359 23C316.422 23 318.801 23.183 321.436 23.5198C324.093 23.8785 326.647 24.3178 329.106 24.8597V24.8597Z" fill="black"/>
<path fill-rule="evenodd" clip-rule="evenodd" d="M35.7899 24.8597V34.7802C30.6519 32.84 26.0849 31.859 22.0814 31.859C19.7027 31.859 17.8218 32.2983 16.4018 33.1476C14.982 34.0041 14.2574 35.0585 14.2574 36.3031C14.2574 37.9578 15.8822 39.4293 19.1099 40.7473L28.4343 45.2866C35.9436 48.8814 39.691 53.6549 39.691 59.6512C39.691 64.6371 37.7002 68.6127 33.726 71.5559C29.7225 74.5285 24.4016 76 17.7194 76C14.6453 76 11.8787 75.8683 9.42685 75.59C6.97499 75.3265 4.18642 74.7846 1.03937 74.0085V63.6268C6.79209 65.567 12.0106 66.548 16.68 66.548C22.2864 66.548 25.075 64.9227 25.075 61.6427C25.075 60.01 23.9405 58.6922 21.6423 57.6598L11.2859 53.2449C7.43606 51.5171 4.59628 49.4232 2.76662 46.9412C0.907517 44.4373 0 41.5673 0 38.2873C0 33.6966 1.91763 29.9993 5.76003 27.1878C9.58065 24.3983 14.6965 23 21.0495 23C23.1354 23 25.4848 23.183 28.1489 23.5198C30.7838 23.8785 33.3381 24.3178 35.7899 24.8597V24.8597Z" fill="black"/>
<path fill-rule="evenodd" clip-rule="evenodd" d="M46.4756 23.9297H61.6626V75.0701H46.4756V23.9297Z" fill="black"/>
<path fill-rule="evenodd" clip-rule="evenodd" d="M110.59 23.9297V33.3818H88.0256V44.7226H107.597V53.2448H88.0256V65.1496H111.051V75.0701H73.4097V23.9297H110.59Z" fill="black"/>
<path fill-rule="evenodd" clip-rule="evenodd" d="M181.489 23.9297V75.0701H167.312V41.3402L152.601 75.5387H143.848L129.7 41.3402V75.0701H119.446V23.9297H137.985L150.64 55.2363L163.88 23.9297H181.489Z" fill="black"/>
<path fill-rule="evenodd" clip-rule="evenodd" d="M230.395 23.9297V33.3818H207.954V44.7226H227.525V53.2448H207.954V65.1496H230.856V75.0701H193.215V23.9297H230.395Z" fill="black"/>
<path fill-rule="evenodd" clip-rule="evenodd" d="M283.684 23.9297V75.0701H267.576L249.498 42.2699V75.0701H239.251V23.9297H255.829L273.439 56.1662V23.9297H283.684Z" fill="black"/>
</svg>
