<svg width="183" height="99" viewBox="0 0 183 99" fill="none" xmlns="http://www.w3.org/2000/svg">
<path fill-rule="evenodd" clip-rule="evenodd" d="M124.971 42.6564C124.971 48.5582 121.265 56.3123 118.587 61.4351C114.379 69.4965 108.688 74.3271 99.4336 74.8968C91.2537 75.4003 72.7665 76.8094 76.0054 63.132C77.4099 57.2109 80.5308 51.9941 82.4469 46.2763C88.8852 33.5296 105.088 31.0997 117.96 34.2852C122.317 35.8581 124.636 37.963 124.971 42.6563L124.971 42.6564ZM103.367 43.222C96.7505 43.222 95.9447 52.3863 94.7024 57.3061C94.3906 59.1654 92.2924 65.3945 95.6715 65.3945C103.626 66.982 104.366 58.3242 105.704 52.5548C106.196 50.4323 107.172 46.8712 106.73 44.6926C106.73 43.0722 104.453 43.3303 103.367 43.2221V43.222ZM57.8217 43.6181C57.0054 59.1389 46.0191 57.9311 32.9683 57.8718C28.0085 57.8514 22.9365 57.5324 18.0335 57.5324C16.2243 59.3533 21.4623 64.8762 22.9359 65.7904C27.966 68.8998 34.2774 67.5648 38.3267 63.5278C40.5021 63.5278 63.8523 60.4994 55.7696 68.5054C51.8576 71.9593 46.3229 73.9993 41.2906 75.1798C25.2791 78.937 -9.30768 69.8035 2.35774 47.4075C10.3321 34.3844 27.6043 27.2631 41.8607 23.595C43.1882 23.3315 44.4997 23.1287 45.851 23.0293C55.9942 22.2778 57.8217 36.1684 57.8217 43.6181L57.8217 43.6181ZM42.9439 42.3736C42.9439 40.9698 43.0018 39.4854 42.5448 38.1314C40.9793 31.8728 24.5528 45.2376 22.5939 47.1814C22.348 47.6729 22.5338 47.5206 22.8788 47.6905C28.3303 47.6905 33.7946 47.6339 39.2386 47.6339C42.8239 47.0467 42.9439 45.9639 42.9439 42.3736V42.3736ZM74.5805 50.3489C73.3447 52.8188 73.6207 56.0589 71.1032 57.9281C67.6604 60.4842 58.9883 60.4911 60.8998 54.3083C62.7093 48.4305 66.1305 45.9306 72.3574 47.4642C73.8763 47.969 74.235 48.9673 74.5805 50.3489L74.5805 50.3489ZM183 42.7129C183 44.2952 182.665 45.9266 182.316 47.4642C180.258 56.4891 176.94 65.0753 173.993 73.7658C171.289 76.4486 165.669 74.9877 162.764 73.2567C161.311 71.8147 164.923 64.4575 165.5 62.6794C166.385 59.9487 171.222 49.8789 167.153 47.8603C165.844 47.8603 164.803 48.0303 163.505 48.3693C151.329 52.5993 142.686 64.8982 133.92 73.5961C130.121 75.4944 127.393 75.0086 123.66 73.1437C123.29 72.7762 123.469 72.1923 123.546 71.7295C126.37 60.023 130.838 48.4164 135.687 37.3961C136.45 35.1461 144.29 35.9798 146.233 36.9437C146.233 39.4357 145.969 43.6181 149.596 43.6181C157.732 42.7283 177.669 25.2035 182.715 40.2244C182.858 41.0725 183 41.8413 183 42.713L183 42.7129Z" fill="black"/>
</svg>
