<svg width="269" height="99" viewBox="0 0 269 99" fill="none" xmlns="http://www.w3.org/2000/svg">
<path d="M83.9181 29.3697C82.9305 25.6797 80.0304 22.7799 76.3404 21.7921C69.6591 20 42.855 20 42.855 20C42.855 20 16.0513 20 9.36969 21.7921C5.67969 22.7799 2.77987 25.6797 1.7921 29.3697C5.36442e-07 36.0513 0 50 0 50C0 50 5.36442e-07 63.9488 1.7921 70.6304C2.77987 74.3204 5.67969 77.2202 9.36969 78.2078C16.0513 80 42.855 80 42.855 80C42.855 80 69.6591 80 76.3404 78.2078C80.0304 77.2202 82.9305 74.3204 83.9181 70.6304C85.7103 63.9488 85.7103 50 85.7103 50C85.7103 50 85.7031 36.0513 83.9181 29.3697Z" fill="black"/>
<path d="M34.2759 62.8562L56.5431 50.0012L34.2759 37.146V62.8562Z" fill="white"/>
<path d="M103.733 59.0108L94.1094 24.2554H102.505L105.878 40.0103C106.739 43.8908 107.367 47.1998 107.776 49.9374H108.023C108.305 47.9759 108.94 44.6881 109.921 40.0667L113.413 24.2554H121.809L112.066 59.0108V75.683H103.726V59.0108H103.733Z" fill="black"/>
<path d="M124.335 74.5811C122.642 73.4381 121.435 71.66 120.715 69.2471C120.003 66.8342 119.643 63.6311 119.643 59.6234V54.1694C119.643 50.1266 120.052 46.8742 120.871 44.4259C121.689 41.9776 122.966 40.1855 124.702 39.0637C126.437 37.9419 128.716 37.3774 131.539 37.3774C134.318 37.3774 136.541 37.9489 138.22 39.0919C139.892 40.2349 141.12 42.027 141.896 44.4541C142.672 46.8883 143.06 50.1266 143.06 54.1694V59.6234C143.06 63.6311 142.679 66.8483 141.924 69.2753C141.169 71.7095 139.942 73.4876 138.248 74.6093C136.555 75.7313 134.255 76.2956 131.355 76.2956C128.363 76.3025 126.028 75.7241 124.335 74.5811ZM133.832 68.6969C134.297 67.4693 134.537 65.4725 134.537 62.6927V50.9876C134.537 48.2923 134.304 46.3168 133.832 45.075C133.359 43.8262 132.533 43.2053 131.348 43.2053C130.205 43.2053 129.394 43.8262 128.928 45.075C128.455 46.3238 128.222 48.2923 128.222 50.9876V62.6927C128.222 65.4725 128.448 67.4762 128.9 68.6969C129.351 69.9245 130.163 70.5383 131.348 70.5383C132.533 70.5383 133.359 69.9245 133.832 68.6969Z" fill="black"/>
<path d="M170.372 75.6902H163.754L163.02 71.09H162.837C161.038 74.5613 158.342 76.2968 154.744 76.2968C152.254 76.2968 150.412 75.4784 149.227 73.8488C148.042 72.2117 147.449 69.6578 147.449 66.1865V38.1125H155.908V65.6924C155.908 67.3718 156.092 68.564 156.459 69.2768C156.826 69.9893 157.439 70.349 158.3 70.349C159.034 70.349 159.739 70.1234 160.417 69.6719C161.094 69.2201 161.588 68.6486 161.92 67.9574V38.1055H170.372V75.6902Z" fill="black"/>
<path d="M193.352 31.0627H184.956V75.6887H176.68V31.0627H168.284V24.2612H193.352V31.0627Z" fill="black"/>
<path d="M213.756 75.6902H207.138L206.405 71.09H206.221C204.422 74.5613 201.727 76.2968 198.128 76.2968C195.638 76.2968 193.796 75.4784 192.611 73.8488C191.426 72.2117 190.833 69.6578 190.833 66.1865V38.1125H199.293V65.6924C199.293 67.3718 199.476 68.564 199.843 69.2768C200.21 69.9893 200.824 70.349 201.685 70.349C202.418 70.349 203.124 70.1234 203.801 69.6719C204.479 69.2201 204.972 68.6486 205.304 67.9574V38.1055H213.756V75.6902Z" fill="black"/>
<path d="M241.753 44.1161C241.238 41.7455 240.412 40.031 239.27 38.9656C238.127 37.9002 236.553 37.371 234.549 37.371C232.997 37.371 231.544 37.8085 230.196 38.6904C228.848 39.5724 227.804 40.7224 227.07 42.1547H227.007V22.3569H218.858V75.6824H225.843L226.703 72.1265H226.887C227.543 73.3964 228.524 74.3912 229.829 75.1322C231.135 75.866 232.588 76.2329 234.183 76.2329C237.04 76.2329 239.15 74.9135 240.497 72.2816C241.845 69.6428 242.522 65.5295 242.522 59.9276V53.9798C242.522 49.7817 242.261 46.4868 241.753 44.1161ZM233.999 59.4476C233.999 62.1851 233.886 64.3301 233.66 65.8823C233.435 67.4345 233.06 68.5424 232.524 69.1913C231.995 69.8474 231.276 70.172 230.379 70.172C229.681 70.172 229.039 70.0097 228.446 69.6782C227.854 69.3536 227.374 68.8598 227.007 68.2106V46.8819C227.289 45.8588 227.783 45.0263 228.482 44.3701C229.173 43.7139 229.935 43.3894 230.746 43.3894C231.607 43.3894 232.27 43.728 232.736 44.3983C233.209 45.0756 233.533 46.2045 233.717 47.7991C233.9 49.3936 233.992 51.6584 233.992 54.6005V59.4476H233.999Z" fill="black"/>
<path d="M254.523 61.6136C254.523 64.0265 254.593 65.8328 254.735 67.0394C254.876 68.2457 255.172 69.1208 255.624 69.6782C256.075 70.2284 256.767 70.5035 257.705 70.5035C258.968 70.5035 259.843 70.0097 260.308 69.029C260.781 68.0483 261.035 66.4115 261.078 64.1255L268.373 64.5557C268.415 64.8803 268.436 65.3318 268.436 65.9033C268.436 69.3746 267.484 71.9711 265.586 73.6856C263.688 75.4001 261 76.2608 257.529 76.2608C253.359 76.2608 250.438 74.9555 248.766 72.338C247.086 69.7205 246.254 65.6777 246.254 60.2024V53.6408C246.254 48.0036 247.122 43.8832 248.857 41.2868C250.593 38.6903 253.563 37.3921 257.775 37.3921C260.675 37.3921 262.905 37.9213 264.457 38.9866C266.009 40.052 267.103 41.703 267.738 43.9537C268.373 46.2044 268.69 49.3088 268.69 53.2739V59.7086H254.523V61.6136ZM255.595 43.9043C255.165 44.4335 254.883 45.3013 254.735 46.5078C254.593 47.7143 254.523 49.5417 254.523 51.9971V54.6923H260.711V51.9971C260.711 49.584 260.626 47.7566 260.464 46.5078C260.301 45.259 260.005 44.3841 259.575 43.8691C259.144 43.3611 258.481 43.1 257.585 43.1C256.682 43.1071 256.019 43.3752 255.595 43.9043Z" fill="black"/>
</svg>
