<svg width="326" height="99" viewBox="0 0 326 99" fill="none" xmlns="http://www.w3.org/2000/svg">
<path d="M90.277 36.1961C93.6139 36.1961 96.3566 33.6952 96.3566 30.598L96.3424 30.2005C96.127 27.1876 93.4749 25 90.277 25C87.0576 25 84.315 27.3819 84.315 30.598C84.315 33.6952 87.0576 36.1961 90.277 36.1961ZM22.4789 75.8737C24.7839 75.8937 32.7978 76.1639 37.3181 69.6796C39.4649 66.4638 39.7032 63.0099 39.7032 61.5806C39.7032 55.7445 36.603 52.6474 34.5771 51.3375C33.9796 50.8617 33.0262 50.1465 31.3577 49.4328C32.3111 49.0745 32.7878 48.9555 33.7412 48.2419C38.0348 45.3826 38.3923 40.9755 38.3923 39.0709C38.3923 36.0927 37.4373 33.5918 35.5305 31.4478C31.5961 27.2801 26.2299 26.9218 24.4423 26.6839C21.8188 26.4459 19.0762 26.5649 16.4543 26.5649L0 26.5649L0.000779606 68.8637C0.0196995 69.2531 0.438342 75.8727 7.0346 75.8727L22.4789 75.8737ZM313.351 76.5708C318.961 76.5708 319.199 69.9013 319.199 69.9013V49.1778H326V40.96H319.199V39.769C319.199 38.2212 319.199 37.7439 319.787 36.9097C320.629 35.362 322.17 35.243 323.728 35.243H326V27.263L321.397 27.2636C318.535 27.2715 315.769 27.3822 313.113 28.9313C308.95 31.6701 308.823 36.434 308.823 37.7439L308.817 37.8241C308.718 39.9518 308.816 74.2112 308.822 76.4554L308.823 76.5708H313.351ZM216.578 77.7616C217.758 77.7564 221.558 77.6484 224.176 75.3799C224.891 74.7842 225.606 74.0696 226.432 72.4023C226.194 73.9505 226.194 76.4518 226.194 76.5708H236.459V27.263H232.518C226.117 27.263 225.853 32.9607 225.844 33.631L225.844 43.8177C225.606 43.4609 225.24 42.8646 224.525 42.1509C223.222 41.1979 220.6 39.769 216.66 39.769C209.382 39.769 204.138 44.295 201.882 50.9635C200.69 54.4175 200.563 57.7525 200.563 59.0624C200.563 69.4247 205.695 74.4269 209.747 76.4517C212.48 77.7618 215.341 77.7618 216.421 77.7618L216.578 77.7616ZM24.7998 45.1447C23.2489 45.8599 20.7462 45.7409 16.931 45.7409H10.9691V35.8548L19.418 35.8565C21.8456 35.8669 23.3343 35.9399 24.5615 36.451C25.5149 36.6889 27.4233 37.8799 27.4233 40.6186C27.4233 43.4779 25.7532 44.6689 24.7998 45.1447ZM63.2112 78C67.1456 78 76.6845 77.1663 80.6189 66.3282H70.0074C69.054 67.6382 67.5032 69.663 63.6879 69.663C62.377 69.663 59.1576 69.4247 57.13 66.2091C56.1766 64.7799 55.6999 63.4697 55.6999 61.8028H80.9764C81.0956 61.4444 81.0956 60.9686 81.0956 60.6118C81.0956 57.9904 80.6189 55.729 80.4997 54.7759C78.8297 46.1996 74.2994 42.6267 70.7225 41.0789C67.5032 39.769 64.5222 39.6501 63.3304 39.6501C55.3424 39.6501 51.0504 43.6987 49.142 46.1996C45.3268 51.203 45.0884 57.1578 45.0884 59.1814C45.0884 66.9236 48.9037 74.0696 56.415 76.809C57.6067 77.2854 59.9919 77.881 63.2112 78ZM118.771 78C122.707 78 132.245 77.1663 136.06 66.3282H125.448C124.614 67.6382 122.946 69.663 119.13 69.663C117.818 69.663 114.718 69.4247 112.572 66.2091C111.738 64.7799 111.26 63.4697 111.141 61.8028H136.417C136.536 61.4444 136.536 60.9686 136.536 60.6118C136.536 57.9904 136.06 55.729 135.941 54.7759C134.391 46.1996 129.742 42.6267 126.165 41.0789C123.065 39.769 120.084 39.6501 118.771 39.6501C110.902 39.6501 106.61 43.6987 104.704 46.1996C100.768 51.203 100.529 57.1578 100.529 59.1814C100.529 66.9236 104.345 74.0696 111.977 76.809C113.168 77.2854 115.434 77.881 118.771 78ZM181.129 77.7618C188.995 77.7618 192.936 75.2608 194.954 72.1641C196.987 69.3056 197.099 66.4473 197.099 65.2563C197.099 63.1124 196.384 61.3255 196.145 60.6118C194.477 57.0389 191.505 55.9669 187.93 55.0138L184.593 54.2986L180.764 53.585C178.984 53.1076 177.188 52.7508 176.712 52.394C176.362 52.275 175.282 51.6788 175.282 50.4878C175.282 49.4158 176.124 47.9869 178.38 47.3906C178.618 47.3906 179.334 47.2716 180.287 47.2716C183.401 47.2716 185.181 48.4626 185.896 49.7725C186.262 50.3688 186.5 50.8446 186.611 51.5598L196.272 51.5598C196.272 50.2499 196.034 47.63 193.762 44.8897C189.471 39.65 182.083 39.7688 180.414 39.7688C172.898 39.7688 169.212 42.3888 167.178 45.367C166.59 46.4391 165.398 48.4626 165.398 51.5598C165.398 52.7507 165.509 55.9668 168.131 58.3488C170.642 60.6118 173.979 61.3254 180.652 62.8742C184.466 63.708 186.738 64.0653 186.738 66.5663C186.738 69.0674 183.878 69.7822 183.513 69.9012C182.559 70.1395 181.733 70.1395 181.367 70.1395C177.903 70.1395 175.885 68.8292 175.043 67.6383C174.328 66.5664 174.217 65.3754 174.217 65.0181H164.317C164.683 69.1865 166.113 71.2113 167.178 72.6405C169.45 75.3799 173.375 77.7618 181.129 77.7618ZM260.183 77.7618C263.52 77.7618 265.665 77.2854 267.095 76.809C274.849 74.1888 279.251 66.5664 279.251 58.5867C279.251 53.2265 277.233 47.5095 272.943 43.9366L272.408 43.5155C267.75 39.9982 262.491 39.8836 260.532 39.769C252.778 39.769 248.376 43.1041 246.104 45.3671C244.324 47.5095 241.337 51.9166 241.337 58.8246C241.337 66.5664 245.151 73.7124 252.54 76.5708C255.892 77.7618 258.864 77.7618 260.183 77.7618ZM294.045 76.5708V58.5867C294.045 51.7977 296.667 49.5347 301.307 49.5347H304.882V40.4826H300.48C290.087 40.4826 284.157 46.7636 283.915 57.6478L283.907 58.3488V76.5708H294.045ZM150.963 76.5708V58.5867C150.963 51.7977 153.587 49.5347 158.236 49.5347H161.807V40.4826H157.402C147.012 40.4826 141.08 46.7636 140.838 57.6478L140.83 58.3488V76.5708H150.963ZM95.5223 76.5708V40.8411H85.1492V76.5708H95.5223ZM55.5808 54.5364C55.7 54.2985 55.8192 53.466 56.0575 52.7508C57.2493 49.6536 59.8727 47.749 63.2113 47.749C66.4306 47.749 69.2925 49.6536 70.0075 52.8697C70.2459 53.5849 70.2459 54.1795 70.2459 54.4175L55.5808 54.5364ZM111.141 54.5364C111.141 54.2985 111.379 53.466 111.618 52.7508C112.692 49.6536 115.434 47.749 118.771 47.749C121.991 47.749 124.853 49.6536 125.568 52.8697C125.806 53.5849 125.806 54.1795 125.806 54.4175L111.141 54.5364ZM260.294 69.4247C256.369 69.4247 251.825 66.9236 251.825 58.8246L251.835 58.1342C252.077 50.2447 256.478 48.1026 260.294 47.9869C265.665 47.9869 267.445 51.6787 268.048 53.5849C268.764 55.6085 268.764 57.8715 268.764 58.4678C268.764 64.4226 266.491 67.2809 264.108 68.591C262.566 69.3057 260.898 69.4247 260.294 69.4247ZM218.566 69.4247C216.532 69.4247 214.991 68.8292 213.672 67.2809C212.242 65.7327 210.939 63.3506 210.939 58.8246L210.95 58.1445C211.177 50.8116 215.103 48.3402 218.805 48.2248C221.077 48.2248 222.507 49.1778 223.222 49.7725C226.432 52.5129 226.194 57.6336 226.194 58.4678C226.194 63.8271 224.764 66.6855 222.618 68.2337C222.03 68.7101 220.6 69.4247 218.566 69.4247ZM21.5805 66.5828C20.1504 66.7018 18.7187 66.5828 17.2885 66.5828L12.3999 66.5827C11.0883 66.5827 10.9691 65.1535 10.9691 65.1535V54.5534L18.7683 54.5536C21.0963 54.5551 22.9809 54.5732 23.9656 54.7914C25.3957 55.0308 28.3767 56.4597 28.3767 60.5084C28.3767 61.2236 28.3767 62.7715 27.1849 64.32C25.7532 66.2255 23.8464 66.4638 21.5805 66.5828Z" fill="black"/>
</svg>
