<svg width="418" height="99" viewBox="0 0 418 99" fill="none" xmlns="http://www.w3.org/2000/svg">
<path d="M27.7761 24H12.5143C1.67626 24 1.38134 24.6783 1.91219 27.9077H5.52487C8.90163 27.9077 9.65366 28.3649 9.65366 31.2846V66.7638C9.65366 71.807 8.17909 72.3379 0.172198 72.7802C-0.0573992 73.7499 -0.0573992 74.7598 0.172198 75.7295H28.4544C49.9683 75.7295 58.8305 65.4072 58.8305 49.85C58.8452 33.7767 49.4375 24 27.7761 24ZM377.337 24.9585C391.773 24.9585 399.75 31.786 399.75 42.1083C399.75 48.4344 395.843 53.5513 389.605 56.1761C389.605 56.1761 395.238 61.3667 398.099 63.6966C408.023 71.6743 411.326 72.3526 417.873 72.3526C418.551 74.9922 416.664 76.9534 408.701 76.9681C402.359 77.301 396.158 75.0138 391.552 70.642C388.711 68.1669 386.295 65.2428 384.4 61.9861C382.513 58.5945 382.365 58.3733 377.779 58.3733H372.736V69.4329C372.736 71.63 373.415 72.3821 377.322 72.3821H381.156C381.377 74.5498 381.156 75.759 378.974 75.759H355.307C355.117 74.785 355.117 73.7837 355.307 72.8097C361.883 72.3526 363.358 71.6005 363.358 67.0145V32.2431C363.358 29.3086 362.296 28.8662 359.214 28.8662H355.602C355.071 26.905 355.602 25.4746 358.684 25.2534C361.602 25.0152 365.106 24.9694 371.894 24.9606L377.337 24.9585ZM183.903 25.4746L202.778 61.6764L220.163 25.4894H237.976C238.282 26.4486 238.282 27.4793 237.976 28.4386C230.986 28.8957 230.544 30.0902 230.765 32.2726L234.363 68.9757C234.599 71.3794 235.793 71.6005 241.573 72.3821C241.795 74.5498 241.574 75.759 239.465 75.759H212.923C212.62 74.7993 212.62 73.7694 212.923 72.8097L216.992 72.5885C223.304 72.2199 224.365 71.3941 223.982 67.7076L220.605 34.9121L202.586 72.854C201.229 75.5673 200.625 76.0096 198.9 76.0096L178.138 34.9416L175.734 68.7103C175.498 71.6448 175.498 72.3968 183.476 72.3968H187.531C188.047 74.5645 187.752 75.7737 185.643 75.7737H160.974C160.745 74.804 160.745 73.7942 160.974 72.8245C169.246 72.3673 169.924 70.8632 170.145 67.7076L173.227 32.3168C173.463 29.8985 172.932 29.0727 165.56 28.8515C165.102 27.1262 165.56 25.4746 168.715 25.4746H183.903ZM151.345 25.4893C151.574 26.4591 151.574 27.4689 151.345 28.4386C144.798 28.8957 143.824 30.3261 143.824 33.4818V69.1969C143.824 71.8217 144.577 72.3526 147.732 72.3526L151.876 72.3968C152.392 74.5645 152.171 75.7737 149.914 75.7737H127.059C126.754 74.8143 126.754 73.7839 127.059 72.8245C132.957 71.8365 134.431 71.0844 134.431 68.0025V32.0514C134.431 29.3381 133.753 28.8957 130.288 28.8957H126.675C126.218 26.9492 126.675 25.4746 129.772 25.4893H151.345ZM279.499 25.4894C279.727 26.4593 279.727 27.4687 279.499 28.4386C271.566 28.8957 270.092 29.574 270.092 34.455V67.7076C270.092 70.1849 271.36 70.8632 273.468 70.8632H278.275C283.849 70.8632 284.601 70.4798 287.757 63.7114L289.866 59.0516C292.048 58.9778 293.183 59.8774 292.343 62.2367C290.745 66.6585 289.44 71.1806 288.435 75.7737H251.778C251.588 74.7997 251.588 73.7984 251.778 72.8245C259.077 72.3968 260.728 71.3794 260.728 66.4984V32.0219C260.728 29.3086 259.74 28.8662 256.585 28.8662H252.942C252.485 26.964 252.942 25.4894 256.098 25.4894H279.499ZM95.09 24.5309C95.4458 26.4739 96.1025 28.3496 97.0365 30.0902L114.422 69.713C115.247 71.6743 116.073 72.3526 119.907 72.3526L121.647 72.3673C122.089 74.535 121.647 75.7442 119.686 75.7442H95.3407C95.1111 74.7745 95.1111 73.7647 95.3407 72.795C103.539 72.5738 104.365 71.8955 103.539 69.9342L98.806 58.5797H79.3712L76.2893 66.7786C74.5641 71.2171 74.5641 72.3526 78.6929 72.3526H85.1515C85.6823 74.5203 85.1515 75.7295 83.2788 75.7295H61.7796C61.5516 74.7596 61.5516 73.7501 61.7796 72.7802C67.5599 72.0282 68.2382 71.5711 70.2731 66.7638L85.1515 31.5205C87.6287 25.74 88.602 24.5309 92.1409 24.5309H95.09ZM340.679 25.5483C340.9 28.9252 341.343 32.4643 341.874 35.6937C342.227 38.0383 341.328 39.3065 338.924 39.0853L337.951 35.6937C336.683 31.1076 335.091 29.8985 330.962 29.8985H318.929V49.2454H326.833C329.104 49.2454 329.561 48.4933 329.782 46.5321L330.313 42.6981H331.153C332.657 42.6981 333.483 43.229 333.336 45.5589C333.115 50.2334 333.115 55.424 333.336 60.305C332.493 60.6415 331.554 60.6415 330.711 60.305C329.753 54.436 328.765 53.7577 326.803 53.7577H318.9V67.0292C318.9 69.7278 319.578 70.8632 324.695 70.8632H331.153C336.727 70.8632 337.479 70.4798 340.635 63.7114L342.744 59.0516C344.926 58.9778 345.973 59.9511 345.221 62.1925C343.627 66.6157 342.322 71.1375 341.313 75.7295H299.804C299.501 74.7698 299.501 73.7399 299.804 72.7802C307.723 72.3379 309.197 71.807 309.197 66.7638V32.0809C309.197 29.3676 308.534 28.9252 305.142 28.9252H301.529C301.22 27.023 301.529 25.5483 304.832 25.5483H340.679ZM26.8029 28.4238C41.2979 28.4238 48.7592 36.8586 48.7592 51.2951C48.7592 67.5159 40.5606 71.6005 27.7024 71.6005C20.6539 71.6005 19.0614 70.8485 19.0614 66.2624V28.4238H26.8029ZM88.8526 34.9121L81.0227 54.4655H97.0365L88.8526 34.9121ZM375.317 29.3381H372.751V53.9642L376.981 53.9611C384.14 53.8885 389.826 52.4445 389.826 42.6096C389.826 32.4938 383.81 29.3381 375.317 29.3381Z" fill="black"/>
</svg>
