<svg width="600" height="564" viewBox="0 0 600 564" fill="none" xmlns="http://www.w3.org/2000/svg">
<circle cx="300.056" cy="175.056" r="173.056" stroke="white" stroke-width="4"/>
<circle cx="175.056" cy="388.864" r="173.056" stroke="white" stroke-width="4"/>
<circle cx="424.944" cy="388.864" r="173.056" stroke="white" stroke-width="4"/>
<path d="M285.09 136.681C283.79 137.981 282.03 138.631 279.81 138.631C277.59 138.631 275.84 137.991 274.56 136.711C273.2 135.411 272.52 133.561 272.52 131.161V116.971H274.41V131.071C274.41 132.971 274.87 134.421 275.79 135.421C276.71 136.401 278.05 136.891 279.81 136.891C281.57 136.891 282.91 136.401 283.83 135.421C284.75 134.421 285.21 132.971 285.21 131.071V116.971H287.1V131.161C287.1 133.541 286.43 135.381 285.09 136.681ZM290.799 134.431L292.449 133.861C292.589 134.841 292.989 135.621 293.649 136.201C294.329 136.781 295.239 137.071 296.379 137.071C297.319 137.071 298.089 136.841 298.689 136.381C299.289 135.901 299.589 135.281 299.589 134.521C299.589 133.241 298.779 132.431 297.159 132.091L294.759 131.551C292.459 131.011 291.309 129.741 291.309 127.741C291.309 126.581 291.789 125.591 292.749 124.771C293.709 123.951 294.839 123.541 296.139 123.541C297.599 123.541 298.819 123.961 299.799 124.801C300.499 125.441 300.979 126.291 301.239 127.351L299.649 127.951C299.509 127.171 299.179 126.521 298.659 126.001C297.979 125.401 297.139 125.101 296.139 125.101C295.299 125.101 294.589 125.331 294.009 125.791C293.389 126.271 293.079 126.881 293.079 127.621C293.079 128.781 293.809 129.541 295.269 129.901L297.639 130.411C300.119 130.991 301.359 132.321 301.359 134.401C301.359 135.521 300.929 136.491 300.069 137.311C299.129 138.191 297.889 138.631 296.349 138.631C294.669 138.631 293.349 138.181 292.389 137.281C291.509 136.501 290.979 135.551 290.799 134.431ZM315.685 133.621L317.275 134.191C316.855 135.471 316.125 136.511 315.085 137.311C313.945 138.191 312.585 138.631 311.005 138.631C309.025 138.631 307.395 137.961 306.115 136.621C304.735 135.241 304.045 133.381 304.045 131.041C304.045 128.881 304.705 127.071 306.025 125.611C307.285 124.231 308.835 123.541 310.675 123.541C312.715 123.541 314.355 124.221 315.595 125.581C316.775 126.921 317.365 128.651 317.365 130.771C317.365 130.891 317.345 131.111 317.305 131.431H305.905V131.551C305.905 133.171 306.405 134.501 307.405 135.541C308.365 136.541 309.565 137.041 311.005 137.041C312.185 137.041 313.215 136.701 314.095 136.021C314.795 135.461 315.325 134.661 315.685 133.621ZM305.965 129.931H315.475C315.435 128.571 315.005 127.441 314.185 126.541C313.305 125.621 312.145 125.161 310.705 125.161C309.425 125.161 308.325 125.621 307.405 126.541C306.545 127.441 306.065 128.571 305.965 129.931ZM328.472 123.901V125.791C328.172 125.691 327.752 125.641 327.212 125.641C325.932 125.641 324.902 126.051 324.122 126.871C323.362 127.671 322.982 128.871 322.982 130.471V138.241H321.182V123.931H322.922V126.601C323.802 124.701 325.282 123.751 327.362 123.751C327.902 123.751 328.272 123.801 328.472 123.901Z" fill="white"/>
<path d="M78.945 393.585H85.065C87.005 393.585 88.595 394.105 89.835 395.145C90.955 396.165 91.515 397.535 91.515 399.255C91.515 400.375 91.215 401.345 90.615 402.165C90.035 402.985 89.255 403.575 88.275 403.935C89.395 404.195 90.345 404.825 91.125 405.825C91.845 406.805 92.205 407.905 92.205 409.125C92.205 410.785 91.605 412.155 90.405 413.235C89.205 414.315 87.625 414.855 85.665 414.855H78.945V393.585ZM80.835 403.275H85.545C86.745 403.275 87.715 402.905 88.455 402.165C89.215 401.445 89.595 400.515 89.595 399.375C89.595 398.095 89.185 397.095 88.365 396.375C87.545 395.635 86.385 395.265 84.885 395.265H80.835V403.275ZM80.835 413.175H85.485C86.965 413.175 88.135 412.805 88.995 412.065C89.855 411.305 90.285 410.285 90.285 409.005C90.285 407.805 89.885 406.825 89.085 406.065C88.225 405.305 87.155 404.925 85.875 404.925H80.835V413.175ZM105.501 412.635C105.121 413.395 104.541 414.025 103.761 414.525C103.001 415.005 102.081 415.245 101.001 415.245C99.2609 415.245 97.9209 414.665 96.9809 413.505C96.1009 412.445 95.6609 411.125 95.6609 409.545V400.545H97.4609V409.275C97.4609 410.515 97.7609 411.525 98.3609 412.305C99.0009 413.205 99.9909 413.655 101.331 413.655C102.571 413.655 103.571 413.225 104.331 412.365C105.031 411.605 105.381 410.585 105.381 409.305V400.545H107.181V412.125C107.181 413.105 107.241 414.015 107.361 414.855H105.651C105.551 414.495 105.501 413.825 105.501 412.845V412.635ZM110.84 411.045L112.49 410.475C112.63 411.455 113.03 412.235 113.69 412.815C114.37 413.395 115.28 413.685 116.42 413.685C117.36 413.685 118.13 413.455 118.73 412.995C119.33 412.515 119.63 411.895 119.63 411.135C119.63 409.855 118.82 409.045 117.2 408.705L114.8 408.165C112.5 407.625 111.35 406.355 111.35 404.355C111.35 403.195 111.83 402.205 112.79 401.385C113.75 400.565 114.88 400.155 116.18 400.155C117.64 400.155 118.86 400.575 119.84 401.415C120.54 402.055 121.02 402.905 121.28 403.965L119.69 404.565C119.55 403.785 119.22 403.135 118.7 402.615C118.02 402.015 117.18 401.715 116.18 401.715C115.34 401.715 114.63 401.945 114.05 402.405C113.43 402.885 113.12 403.495 113.12 404.235C113.12 405.395 113.85 406.155 115.31 406.515L117.68 407.025C120.16 407.605 121.4 408.935 121.4 411.015C121.4 412.135 120.97 413.105 120.11 413.925C119.17 414.805 117.93 415.245 116.39 415.245C114.71 415.245 113.39 414.795 112.43 413.895C111.55 413.115 111.02 412.165 110.84 411.045ZM126.156 396.075C125.756 396.075 125.406 395.935 125.106 395.655C124.826 395.375 124.686 395.035 124.686 394.635C124.686 394.215 124.826 393.855 125.106 393.555C125.406 393.255 125.756 393.105 126.156 393.105C126.576 393.105 126.926 393.255 127.206 393.555C127.506 393.855 127.656 394.215 127.656 394.635C127.656 395.035 127.506 395.375 127.206 395.655C126.926 395.935 126.576 396.075 126.156 396.075ZM127.056 414.855H125.286V400.545H127.056V414.855ZM133.883 406.305V414.855H132.083V400.545H133.823V402.975C134.743 401.115 136.293 400.185 138.473 400.185C140.093 400.185 141.363 400.705 142.283 401.745C143.123 402.705 143.543 403.965 143.543 405.525V414.855H141.743V405.825C141.743 404.625 141.433 403.675 140.813 402.975C140.133 402.195 139.153 401.805 137.873 401.805C136.693 401.805 135.723 402.255 134.963 403.155C134.243 403.995 133.883 405.045 133.883 406.305ZM158.724 410.235L160.314 410.805C159.894 412.085 159.164 413.125 158.124 413.925C156.984 414.805 155.624 415.245 154.044 415.245C152.064 415.245 150.434 414.575 149.154 413.235C147.774 411.855 147.084 409.995 147.084 407.655C147.084 405.495 147.744 403.685 149.064 402.225C150.324 400.845 151.874 400.155 153.714 400.155C155.754 400.155 157.394 400.835 158.634 402.195C159.814 403.535 160.404 405.265 160.404 407.385C160.404 407.505 160.384 407.725 160.344 408.045H148.944V408.165C148.944 409.785 149.444 411.115 150.444 412.155C151.404 413.155 152.604 413.655 154.044 413.655C155.224 413.655 156.254 413.315 157.134 412.635C157.834 412.075 158.364 411.275 158.724 410.235ZM149.004 406.545H158.514C158.474 405.185 158.044 404.055 157.224 403.155C156.344 402.235 155.184 401.775 153.744 401.775C152.464 401.775 151.364 402.235 150.444 403.155C149.584 404.055 149.104 405.185 149.004 406.545ZM162.871 411.045L164.521 410.475C164.661 411.455 165.061 412.235 165.721 412.815C166.401 413.395 167.311 413.685 168.451 413.685C169.391 413.685 170.161 413.455 170.761 412.995C171.361 412.515 171.661 411.895 171.661 411.135C171.661 409.855 170.851 409.045 169.231 408.705L166.831 408.165C164.531 407.625 163.381 406.355 163.381 404.355C163.381 403.195 163.861 402.205 164.821 401.385C165.781 400.565 166.911 400.155 168.211 400.155C169.671 400.155 170.891 400.575 171.871 401.415C172.571 402.055 173.051 402.905 173.311 403.965L171.721 404.565C171.581 403.785 171.251 403.135 170.731 402.615C170.051 402.015 169.211 401.715 168.211 401.715C167.371 401.715 166.661 401.945 166.081 402.405C165.461 402.885 165.151 403.495 165.151 404.235C165.151 405.395 165.881 406.155 167.341 406.515L169.711 407.025C172.191 407.605 173.431 408.935 173.431 411.015C173.431 412.135 173.001 413.105 172.141 413.925C171.201 414.805 169.961 415.245 168.421 415.245C166.741 415.245 165.421 414.795 164.461 413.895C163.581 413.115 163.051 412.165 162.871 411.045ZM175.967 411.045L177.617 410.475C177.757 411.455 178.157 412.235 178.817 412.815C179.497 413.395 180.407 413.685 181.547 413.685C182.487 413.685 183.257 413.455 183.857 412.995C184.457 412.515 184.757 411.895 184.757 411.135C184.757 409.855 183.947 409.045 182.327 408.705L179.927 408.165C177.627 407.625 176.477 406.355 176.477 404.355C176.477 403.195 176.957 402.205 177.917 401.385C178.877 400.565 180.007 400.155 181.307 400.155C182.767 400.155 183.987 400.575 184.967 401.415C185.667 402.055 186.147 402.905 186.407 403.965L184.817 404.565C184.677 403.785 184.347 403.135 183.827 402.615C183.147 402.015 182.307 401.715 181.307 401.715C180.467 401.715 179.757 401.945 179.177 402.405C178.557 402.885 178.247 403.495 178.247 404.235C178.247 405.395 178.977 406.155 180.437 406.515L182.807 407.025C185.287 407.605 186.527 408.935 186.527 411.015C186.527 412.135 186.097 413.105 185.237 413.925C184.297 414.805 183.057 415.245 181.517 415.245C179.837 415.245 178.517 414.795 177.557 413.895C176.677 413.115 176.147 412.165 175.967 411.045Z" fill="white"/>
<path d="M449.911 395.325H442.381V414.855H440.461V395.325H432.961V393.585H449.911V395.325ZM460.7 410.235L462.29 410.805C461.87 412.085 461.14 413.125 460.1 413.925C458.96 414.805 457.6 415.245 456.02 415.245C454.04 415.245 452.41 414.575 451.13 413.235C449.75 411.855 449.06 409.995 449.06 407.655C449.06 405.495 449.72 403.685 451.04 402.225C452.3 400.845 453.85 400.155 455.69 400.155C457.73 400.155 459.37 400.835 460.61 402.195C461.79 403.535 462.38 405.265 462.38 407.385C462.38 407.505 462.36 407.725 462.32 408.045H450.92V408.165C450.92 409.785 451.42 411.115 452.42 412.155C453.38 413.155 454.58 413.655 456.02 413.655C457.2 413.655 458.23 413.315 459.11 412.635C459.81 412.075 460.34 411.275 460.7 410.235ZM450.98 406.545H460.49C460.45 405.185 460.02 404.055 459.2 403.155C458.32 402.235 457.16 401.775 455.72 401.775C454.44 401.775 453.34 402.235 452.42 403.155C451.56 404.055 451.08 405.185 450.98 406.545ZM475.138 402.915C474.298 402.175 473.258 401.805 472.018 401.805C470.518 401.805 469.298 402.325 468.358 403.365C467.338 404.485 466.828 405.935 466.828 407.715C466.828 409.495 467.338 410.925 468.358 412.005C469.298 413.065 470.518 413.595 472.018 413.595C473.318 413.595 474.378 413.215 475.198 412.455C475.918 411.795 476.408 411.015 476.668 410.115L478.258 410.775C477.858 412.035 477.168 413.055 476.188 413.835C474.988 414.775 473.598 415.245 472.018 415.245C469.978 415.245 468.308 414.535 467.008 413.115C465.668 411.735 464.998 409.935 464.998 407.715C464.998 405.515 465.668 403.695 467.008 402.255C468.348 400.855 470.018 400.155 472.018 400.155C473.638 400.155 475.008 400.605 476.128 401.505C477.108 402.325 477.778 403.375 478.138 404.655L476.548 405.315C476.268 404.355 475.798 403.555 475.138 402.915ZM483.672 406.245V414.855H481.872V393.195H483.672V402.795C484.072 402.035 484.662 401.415 485.442 400.935C486.242 400.435 487.182 400.185 488.262 400.185C489.882 400.185 491.152 400.705 492.072 401.745C492.912 402.705 493.332 403.965 493.332 405.525V414.855H491.532V405.825C491.532 404.625 491.222 403.675 490.602 402.975C489.922 402.195 488.942 401.805 487.662 401.805C486.482 401.805 485.522 402.245 484.782 403.125C484.042 403.985 483.672 405.025 483.672 406.245Z" fill="white"/>
</svg>
