<svg width="330" height="305" viewBox="0 0 330 305" fill="none" xmlns="http://www.w3.org/2000/svg">
<circle cx="162" cy="95" r="93.5" stroke="white" stroke-width="3"/>
<path d="M188.5 210.5C188.5 261.855 146.646 303.5 95 303.5C43.3539 303.5 1.5 261.855 1.5 210.5C1.5 159.145 43.3539 117.5 95 117.5C146.646 117.5 188.5 159.145 188.5 210.5Z" stroke="white" stroke-width="3"/>
<path d="M323.5 210.5C323.5 261.855 281.646 303.5 230 303.5C178.354 303.5 136.5 261.855 136.5 210.5C136.5 159.145 178.354 117.5 230 117.5C281.646 117.5 323.5 159.145 323.5 210.5Z" stroke="white" stroke-width="3"/>
<path d="M153.324 78.96C152.457 79.8267 151.284 80.26 149.804 80.26C148.324 80.26 147.157 79.8333 146.304 78.98C145.397 78.1133 144.944 76.88 144.944 75.28V65.82H146.204V75.22C146.204 76.4867 146.51 77.4533 147.124 78.12C147.737 78.7733 148.63 79.1 149.804 79.1C150.977 79.1 151.87 78.7733 152.484 78.12C153.097 77.4533 153.404 76.4867 153.404 75.22V65.82H154.664V75.28C154.664 76.8667 154.217 78.0933 153.324 78.96ZM157.13 77.46L158.23 77.08C158.323 77.7333 158.59 78.2533 159.03 78.64C159.483 79.0267 160.09 79.22 160.85 79.22C161.476 79.22 161.99 79.0667 162.39 78.76C162.79 78.44 162.99 78.0267 162.99 77.52C162.99 76.6667 162.45 76.1267 161.37 75.9L159.77 75.54C158.236 75.18 157.47 74.3333 157.47 73C157.47 72.2267 157.79 71.5667 158.43 71.02C159.07 70.4733 159.823 70.2 160.69 70.2C161.663 70.2 162.476 70.48 163.13 71.04C163.596 71.4667 163.916 72.0333 164.09 72.74L163.03 73.14C162.936 72.62 162.716 72.1867 162.37 71.84C161.916 71.44 161.356 71.24 160.69 71.24C160.13 71.24 159.656 71.3933 159.27 71.7C158.856 72.02 158.65 72.4267 158.65 72.92C158.65 73.6933 159.136 74.2 160.11 74.44L161.69 74.78C163.343 75.1667 164.17 76.0533 164.17 77.44C164.17 78.1867 163.883 78.8333 163.31 79.38C162.683 79.9667 161.856 80.26 160.83 80.26C159.71 80.26 158.83 79.96 158.19 79.36C157.603 78.84 157.25 78.2067 157.13 77.46ZM173.72 76.92L174.78 77.3C174.5 78.1533 174.013 78.8467 173.32 79.38C172.56 79.9667 171.653 80.26 170.6 80.26C169.28 80.26 168.193 79.8133 167.34 78.92C166.42 78 165.96 76.76 165.96 75.2C165.96 73.76 166.4 72.5533 167.28 71.58C168.12 70.66 169.153 70.2 170.38 70.2C171.74 70.2 172.833 70.6533 173.66 71.56C174.447 72.4533 174.84 73.6067 174.84 75.02C174.84 75.1 174.827 75.2467 174.8 75.46H167.2V75.54C167.2 76.62 167.533 77.5067 168.2 78.2C168.84 78.8667 169.64 79.2 170.6 79.2C171.387 79.2 172.073 78.9733 172.66 78.52C173.127 78.1467 173.48 77.6133 173.72 76.92ZM167.24 74.46H173.58C173.553 73.5533 173.267 72.8 172.72 72.2C172.133 71.5867 171.36 71.28 170.4 71.28C169.547 71.28 168.813 71.5867 168.2 72.2C167.627 72.8 167.307 73.5533 167.24 74.46ZM182.245 70.44V71.7C182.045 71.6333 181.765 71.6 181.405 71.6C180.552 71.6 179.865 71.8733 179.345 72.42C178.838 72.9533 178.585 73.7533 178.585 74.82V80H177.385V70.46H178.545V72.24C179.132 70.9733 180.118 70.34 181.505 70.34C181.865 70.34 182.112 70.3733 182.245 70.44Z" fill="white"/>
<path d="M36.1241 215.82H40.2041C41.4975 215.82 42.5575 216.167 43.3841 216.86C44.1308 217.54 44.5041 218.453 44.5041 219.6C44.5041 220.347 44.3041 220.993 43.9041 221.54C43.5175 222.087 42.9975 222.48 42.3441 222.72C43.0908 222.893 43.7241 223.313 44.2441 223.98C44.7241 224.633 44.9641 225.367 44.9641 226.18C44.9641 227.287 44.5641 228.2 43.7641 228.92C42.9641 229.64 41.9108 230 40.6041 230H36.1241V215.82ZM37.3841 222.28H40.5241C41.3241 222.28 41.9708 222.033 42.4641 221.54C42.9708 221.06 43.2241 220.44 43.2241 219.68C43.2241 218.827 42.9508 218.16 42.4041 217.68C41.8575 217.187 41.0841 216.94 40.0841 216.94H37.3841V222.28ZM37.3841 228.88H40.4841C41.4708 228.88 42.2508 228.633 42.8241 228.14C43.3975 227.633 43.6841 226.953 43.6841 226.1C43.6841 225.3 43.4175 224.647 42.8841 224.14C42.3108 223.633 41.5975 223.38 40.7441 223.38H37.3841V228.88ZM53.828 228.52C53.5747 229.027 53.188 229.447 52.668 229.78C52.1614 230.1 51.548 230.26 50.828 230.26C49.668 230.26 48.7747 229.873 48.148 229.1C47.5614 228.393 47.268 227.513 47.268 226.46V220.46H48.468V226.28C48.468 227.107 48.668 227.78 49.068 228.3C49.4947 228.9 50.1547 229.2 51.048 229.2C51.8747 229.2 52.5414 228.913 53.048 228.34C53.5147 227.833 53.748 227.153 53.748 226.3V220.46H54.948V228.18C54.948 228.833 54.988 229.44 55.068 230H53.928C53.8614 229.76 53.828 229.313 53.828 228.66V228.52ZM57.3874 227.46L58.4874 227.08C58.5808 227.733 58.8474 228.253 59.2874 228.64C59.7408 229.027 60.3474 229.22 61.1074 229.22C61.7341 229.22 62.2474 229.067 62.6474 228.76C63.0474 228.44 63.2474 228.027 63.2474 227.52C63.2474 226.667 62.7074 226.127 61.6274 225.9L60.0274 225.54C58.4941 225.18 57.7274 224.333 57.7274 223C57.7274 222.227 58.0474 221.567 58.6874 221.02C59.3274 220.473 60.0808 220.2 60.9474 220.2C61.9208 220.2 62.7341 220.48 63.3874 221.04C63.8541 221.467 64.1741 222.033 64.3474 222.74L63.2874 223.14C63.1941 222.62 62.9741 222.187 62.6274 221.84C62.1741 221.44 61.6141 221.24 60.9474 221.24C60.3874 221.24 59.9141 221.393 59.5274 221.7C59.1141 222.02 58.9074 222.427 58.9074 222.92C58.9074 223.693 59.3941 224.2 60.3674 224.44L61.9474 224.78C63.6008 225.167 64.4274 226.053 64.4274 227.44C64.4274 228.187 64.1408 228.833 63.5674 229.38C62.9408 229.967 62.1141 230.26 61.0874 230.26C59.9674 230.26 59.0874 229.96 58.4474 229.36C57.8608 228.84 57.5074 228.207 57.3874 227.46ZM67.5979 217.48C67.3312 217.48 67.0979 217.387 66.8979 217.2C66.7112 217.013 66.6179 216.787 66.6179 216.52C66.6179 216.24 66.7112 216 66.8979 215.8C67.0979 215.6 67.3312 215.5 67.5979 215.5C67.8779 215.5 68.1112 215.6 68.2979 215.8C68.4979 216 68.5979 216.24 68.5979 216.52C68.5979 216.787 68.4979 217.013 68.2979 217.2C68.1112 217.387 67.8779 217.48 67.5979 217.48ZM68.1979 230H67.0179V220.46H68.1979V230ZM72.7491 224.3V230H71.5491V220.46H72.7091V222.08C73.3225 220.84 74.3558 220.22 75.8091 220.22C76.8891 220.22 77.7358 220.567 78.3491 221.26C78.9091 221.9 79.1891 222.74 79.1891 223.78V230H77.9891V223.98C77.9891 223.18 77.7825 222.547 77.3691 222.08C76.9158 221.56 76.2625 221.3 75.4091 221.3C74.6225 221.3 73.9758 221.6 73.4691 222.2C72.9891 222.76 72.7491 223.46 72.7491 224.3ZM89.3099 226.92L90.3699 227.3C90.0899 228.153 89.6033 228.847 88.9099 229.38C88.1499 229.967 87.2433 230.26 86.1899 230.26C84.8699 230.26 83.7833 229.813 82.9299 228.92C82.0099 228 81.5499 226.76 81.5499 225.2C81.5499 223.76 81.9899 222.553 82.8699 221.58C83.7099 220.66 84.7433 220.2 85.9699 220.2C87.3299 220.2 88.4233 220.653 89.2499 221.56C90.0366 222.453 90.4299 223.607 90.4299 225.02C90.4299 225.1 90.4166 225.247 90.3899 225.46H82.7899V225.54C82.7899 226.62 83.1233 227.507 83.7899 228.2C84.4299 228.867 85.2299 229.2 86.1899 229.2C86.9766 229.2 87.6633 228.973 88.2499 228.52C88.7166 228.147 89.0699 227.613 89.3099 226.92ZM82.8299 224.46H89.1699C89.1433 223.553 88.8566 222.8 88.3099 222.2C87.7233 221.587 86.9499 221.28 85.9899 221.28C85.1366 221.28 84.4033 221.587 83.7899 222.2C83.2166 222.8 82.8966 223.553 82.8299 224.46ZM92.0749 227.46L93.1749 227.08C93.2683 227.733 93.5349 228.253 93.9749 228.64C94.4283 229.027 95.0349 229.22 95.7949 229.22C96.4216 229.22 96.9349 229.067 97.3349 228.76C97.7349 228.44 97.9349 228.027 97.9349 227.52C97.9349 226.667 97.3949 226.127 96.3149 225.9L94.7149 225.54C93.1816 225.18 92.4149 224.333 92.4149 223C92.4149 222.227 92.7349 221.567 93.3749 221.02C94.0149 220.473 94.7683 220.2 95.6349 220.2C96.6083 220.2 97.4216 220.48 98.0749 221.04C98.5416 221.467 98.8616 222.033 99.0349 222.74L97.9749 223.14C97.8816 222.62 97.6616 222.187 97.3149 221.84C96.8616 221.44 96.3016 221.24 95.6349 221.24C95.0749 221.24 94.6016 221.393 94.2149 221.7C93.8016 222.02 93.5949 222.427 93.5949 222.92C93.5949 223.693 94.0816 224.2 95.0549 224.44L96.6349 224.78C98.2883 225.167 99.1149 226.053 99.1149 227.44C99.1149 228.187 98.8283 228.833 98.2549 229.38C97.6283 229.967 96.8016 230.26 95.7749 230.26C94.6549 230.26 93.7749 229.96 93.1349 229.36C92.5483 228.84 92.1949 228.207 92.0749 227.46ZM100.805 227.46L101.905 227.08C101.999 227.733 102.265 228.253 102.705 228.64C103.159 229.027 103.765 229.22 104.525 229.22C105.152 229.22 105.665 229.067 106.065 228.76C106.465 228.44 106.665 228.027 106.665 227.52C106.665 226.667 106.125 226.127 105.045 225.9L103.445 225.54C101.912 225.18 101.145 224.333 101.145 223C101.145 222.227 101.465 221.567 102.105 221.02C102.745 220.473 103.499 220.2 104.365 220.2C105.339 220.2 106.152 220.48 106.805 221.04C107.272 221.467 107.592 222.033 107.765 222.74L106.705 223.14C106.612 222.62 106.392 222.187 106.045 221.84C105.592 221.44 105.032 221.24 104.365 221.24C103.805 221.24 103.332 221.393 102.945 221.7C102.532 222.02 102.325 222.427 102.325 222.92C102.325 223.693 102.812 224.2 103.785 224.44L105.365 224.78C107.019 225.167 107.845 226.053 107.845 227.44C107.845 228.187 107.559 228.833 106.985 229.38C106.359 229.967 105.532 230.26 104.505 230.26C103.385 230.26 102.505 229.96 101.865 229.36C101.279 228.84 100.925 228.207 100.805 227.46Z" fill="white"/>
<path d="M242.166 216.98H237.146V230H235.866V216.98H230.866V215.82H242.166V216.98ZM249.359 226.92L250.419 227.3C250.139 228.153 249.652 228.847 248.959 229.38C248.199 229.967 247.292 230.26 246.239 230.26C244.919 230.26 243.832 229.813 242.979 228.92C242.059 228 241.599 226.76 241.599 225.2C241.599 223.76 242.039 222.553 242.919 221.58C243.759 220.66 244.792 220.2 246.019 220.2C247.379 220.2 248.472 220.653 249.299 221.56C250.085 222.453 250.479 223.607 250.479 225.02C250.479 225.1 250.465 225.247 250.439 225.46H242.839V225.54C242.839 226.62 243.172 227.507 243.839 228.2C244.479 228.867 245.279 229.2 246.239 229.2C247.025 229.2 247.712 228.973 248.299 228.52C248.765 228.147 249.119 227.613 249.359 226.92ZM242.879 224.46H249.219C249.192 223.553 248.905 222.8 248.359 222.2C247.772 221.587 246.999 221.28 246.039 221.28C245.185 221.28 244.452 221.587 243.839 222.2C243.265 222.8 242.945 223.553 242.879 224.46ZM258.984 222.04C258.424 221.547 257.73 221.3 256.904 221.3C255.904 221.3 255.09 221.647 254.464 222.34C253.784 223.087 253.444 224.053 253.444 225.24C253.444 226.427 253.784 227.38 254.464 228.1C255.09 228.807 255.904 229.16 256.904 229.16C257.77 229.16 258.477 228.907 259.024 228.4C259.504 227.96 259.83 227.44 260.004 226.84L261.064 227.28C260.797 228.12 260.337 228.8 259.684 229.32C258.884 229.947 257.957 230.26 256.904 230.26C255.544 230.26 254.43 229.787 253.564 228.84C252.67 227.92 252.224 226.72 252.224 225.24C252.224 223.773 252.67 222.56 253.564 221.6C254.457 220.667 255.57 220.2 256.904 220.2C257.984 220.2 258.897 220.5 259.644 221.1C260.297 221.647 260.744 222.347 260.984 223.2L259.924 223.64C259.737 223 259.424 222.467 258.984 222.04ZM264.673 224.26V230H263.473V215.56H264.673V221.96C264.94 221.453 265.333 221.04 265.853 220.72C266.386 220.387 267.013 220.22 267.733 220.22C268.813 220.22 269.66 220.567 270.273 221.26C270.833 221.9 271.113 222.74 271.113 223.78V230H269.913V223.98C269.913 223.18 269.706 222.547 269.293 222.08C268.84 221.56 268.186 221.3 267.333 221.3C266.546 221.3 265.906 221.593 265.413 222.18C264.92 222.753 264.673 223.447 264.673 224.26Z" fill="white"/>
</svg>
