<svg width="1200" height="409" viewBox="0 0 1200 409" fill="none" xmlns="http://www.w3.org/2000/svg">
<path d="M500.964 377.54C498.804 375.52 497.724 372.8 497.724 369.38C497.724 365.98 498.804 363.25 500.964 361.19C502.904 359.29 505.284 358.34 508.104 358.34C510.884 358.34 513.274 359.29 515.274 361.19C517.434 363.31 518.514 366.04 518.514 369.38C518.514 372.72 517.434 375.44 515.274 377.54C513.274 379.44 510.884 380.39 508.104 380.39C505.284 380.39 502.904 379.44 500.964 377.54ZM502.254 362.45C500.514 364.13 499.644 366.44 499.644 369.38C499.644 372.3 500.514 374.6 502.254 376.28C503.834 377.86 505.784 378.65 508.104 378.65C510.384 378.65 512.344 377.86 513.984 376.28C515.724 374.54 516.594 372.24 516.594 369.38C516.594 366.5 515.724 364.19 513.984 362.45C512.344 360.87 510.384 360.08 508.104 360.08C505.784 360.08 503.834 360.87 502.254 362.45ZM524.159 385.7H522.389V365.69H524.159V368.54C524.599 367.64 525.199 366.92 525.959 366.38C526.919 365.7 528.049 365.36 529.349 365.36C531.309 365.36 532.899 366.07 534.119 367.49C535.259 368.95 535.829 370.73 535.829 372.83C535.829 375.01 535.249 376.8 534.089 378.2C532.869 379.64 531.269 380.36 529.289 380.36C527.989 380.36 526.879 380.03 525.959 379.37C525.159 378.81 524.559 378.12 524.159 377.3V385.7ZM532.649 377.06C533.549 375.94 533.999 374.53 533.999 372.83C533.999 371.11 533.549 369.71 532.649 368.63C531.729 367.51 530.529 366.95 529.049 366.95C527.569 366.95 526.379 367.51 525.479 368.63C524.579 369.75 524.129 371.15 524.129 372.83C524.129 374.57 524.579 375.98 525.479 377.06C526.359 378.2 527.549 378.77 529.049 378.77C530.529 378.77 531.729 378.2 532.649 377.06ZM541.415 385.7H539.645V365.69H541.415V368.54C541.855 367.64 542.455 366.92 543.215 366.38C544.175 365.7 545.305 365.36 546.605 365.36C548.565 365.36 550.155 366.07 551.375 367.49C552.515 368.95 553.085 370.73 553.085 372.83C553.085 375.01 552.505 376.8 551.345 378.2C550.125 379.64 548.525 380.36 546.545 380.36C545.245 380.36 544.135 380.03 543.215 379.37C542.415 378.81 541.815 378.12 541.415 377.3V385.7ZM549.905 377.06C550.805 375.94 551.255 374.53 551.255 372.83C551.255 371.11 550.805 369.71 549.905 368.63C548.985 367.51 547.785 366.95 546.305 366.95C544.825 366.95 543.635 367.51 542.735 368.63C541.835 369.75 541.385 371.15 541.385 372.83C541.385 374.57 541.835 375.98 542.735 377.06C543.615 378.2 544.805 378.77 546.305 378.77C547.785 378.77 548.985 378.2 549.905 377.06ZM557.741 367.4C559.081 366 560.741 365.3 562.721 365.3C564.701 365.3 566.371 366 567.731 367.4C569.091 368.82 569.771 370.64 569.771 372.86C569.771 375.08 569.091 376.89 567.731 378.29C566.371 379.69 564.701 380.39 562.721 380.39C560.761 380.39 559.111 379.69 557.771 378.29C556.391 376.87 555.701 375.06 555.701 372.86C555.701 370.62 556.381 368.8 557.741 367.4ZM559.091 377.21C560.071 378.25 561.281 378.77 562.721 378.77C564.161 378.77 565.381 378.25 566.381 377.21C567.421 376.11 567.941 374.66 567.941 372.86C567.941 371.08 567.421 369.62 566.381 368.48C565.421 367.46 564.201 366.95 562.721 366.95C561.241 366.95 560.031 367.46 559.091 368.48C558.051 369.62 557.531 371.08 557.531 372.86C557.531 374.66 558.051 376.11 559.091 377.21ZM580.89 365.66V367.55C580.59 367.45 580.17 367.4 579.63 367.4C578.35 367.4 577.32 367.81 576.54 368.63C575.78 369.43 575.4 370.63 575.4 372.23V380H573.6V365.69H575.34V368.36C576.22 366.46 577.7 365.51 579.78 365.51C580.32 365.51 580.69 365.56 580.89 365.66ZM587.17 361.16V365.69H590.89V367.34H587.17V375.95C587.17 377.67 587.98 378.53 589.6 378.53C590.14 378.53 590.57 378.46 590.89 378.32V379.88C590.53 380.06 589.94 380.15 589.12 380.15C587.94 380.15 587.02 379.81 586.36 379.13C585.7 378.43 585.37 377.43 585.37 376.13V367.34H582.34V365.69H583.42C584.82 365.69 585.52 364.99 585.52 363.59V361.16H587.17ZM604.294 377.78C603.914 378.54 603.334 379.17 602.554 379.67C601.794 380.15 600.874 380.39 599.794 380.39C598.054 380.39 596.714 379.81 595.774 378.65C594.894 377.59 594.454 376.27 594.454 374.69V365.69H596.254V374.42C596.254 375.66 596.554 376.67 597.154 377.45C597.794 378.35 598.784 378.8 600.124 378.8C601.364 378.8 602.364 378.37 603.124 377.51C603.824 376.75 604.174 375.73 604.174 374.45V365.69H605.974V377.27C605.974 378.25 606.034 379.16 606.154 380H604.444C604.344 379.64 604.294 378.97 604.294 377.99V377.78ZM612.783 371.45V380H610.983V365.69H612.723V368.12C613.643 366.26 615.193 365.33 617.373 365.33C618.993 365.33 620.263 365.85 621.183 366.89C622.023 367.85 622.443 369.11 622.443 370.67V380H620.643V370.97C620.643 369.77 620.333 368.82 619.713 368.12C619.033 367.34 618.053 366.95 616.773 366.95C615.593 366.95 614.623 367.4 613.863 368.3C613.143 369.14 612.783 370.19 612.783 371.45ZM628.054 361.22C627.654 361.22 627.304 361.08 627.004 360.8C626.724 360.52 626.584 360.18 626.584 359.78C626.584 359.36 626.724 359 627.004 358.7C627.304 358.4 627.654 358.25 628.054 358.25C628.474 358.25 628.824 358.4 629.104 358.7C629.404 359 629.554 359.36 629.554 359.78C629.554 360.18 629.404 360.52 629.104 360.8C628.824 361.08 628.474 361.22 628.054 361.22ZM628.954 380H627.184V365.69H628.954V380ZM636.711 361.16V365.69H640.431V367.34H636.711V375.95C636.711 377.67 637.521 378.53 639.141 378.53C639.681 378.53 640.111 378.46 640.431 378.32V379.88C640.071 380.06 639.481 380.15 638.661 380.15C637.481 380.15 636.561 379.81 635.901 379.13C635.241 378.43 634.911 377.43 634.911 376.13V367.34H631.881V365.69H632.961C634.361 365.69 635.061 364.99 635.061 363.59V361.16H636.711ZM646.898 385.82H644.948L648.548 378.14L642.398 365.69H644.438L649.508 376.28L654.248 365.69H656.168L646.898 385.82Z" fill="white"/>
<path d="M1025.74 215H1023.82V193.73H1025.74V215ZM1032.88 206.45V215H1031.08V200.69H1032.82V203.12C1033.74 201.26 1035.29 200.33 1037.47 200.33C1039.09 200.33 1040.36 200.85 1041.28 201.89C1042.12 202.85 1042.54 204.11 1042.54 205.67V215H1040.74V205.97C1040.74 204.77 1040.43 203.82 1039.81 203.12C1039.13 202.34 1038.15 201.95 1036.87 201.95C1035.69 201.95 1034.72 202.4 1033.96 203.3C1033.24 204.14 1032.88 205.19 1032.88 206.45ZM1049.08 206.45V215H1047.28V200.69H1049.02V203.12C1049.94 201.26 1051.49 200.33 1053.67 200.33C1055.29 200.33 1056.56 200.85 1057.48 201.89C1058.32 202.85 1058.74 204.11 1058.74 205.67V215H1056.94V205.97C1056.94 204.77 1056.63 203.82 1056.01 203.12C1055.33 202.34 1054.35 201.95 1053.07 201.95C1051.89 201.95 1050.92 202.4 1050.16 203.3C1049.44 204.14 1049.08 205.19 1049.08 206.45ZM1064.32 202.4C1065.66 201 1067.32 200.3 1069.3 200.3C1071.28 200.3 1072.95 201 1074.31 202.4C1075.67 203.82 1076.35 205.64 1076.35 207.86C1076.35 210.08 1075.67 211.89 1074.31 213.29C1072.95 214.69 1071.28 215.39 1069.3 215.39C1067.34 215.39 1065.69 214.69 1064.35 213.29C1062.97 211.87 1062.28 210.06 1062.28 207.86C1062.28 205.62 1062.96 203.8 1064.32 202.4ZM1065.67 212.21C1066.65 213.25 1067.86 213.77 1069.3 213.77C1070.74 213.77 1071.96 213.25 1072.96 212.21C1074 211.11 1074.52 209.66 1074.52 207.86C1074.52 206.08 1074 204.62 1072.96 203.48C1072 202.46 1070.78 201.95 1069.3 201.95C1067.82 201.95 1066.61 202.46 1065.67 203.48C1064.63 204.62 1064.11 206.08 1064.11 207.86C1064.11 209.66 1064.63 211.11 1065.67 212.21ZM1091.08 200.69L1085.44 215H1083.55L1077.85 200.69H1079.89L1084.51 212.96L1089.16 200.69H1091.08ZM1094.34 214.1C1093.52 213.38 1093.11 212.45 1093.11 211.31C1093.11 208.99 1094.55 207.58 1097.43 207.08L1101.24 206.51C1102.24 206.33 1102.74 205.86 1102.74 205.1C1102.74 204.12 1102.42 203.34 1101.78 202.76C1101.16 202.16 1100.28 201.86 1099.14 201.86C1098 201.86 1097.07 202.16 1096.35 202.76C1095.65 203.36 1095.25 204.18 1095.15 205.22L1093.41 204.83C1093.55 203.51 1094.16 202.41 1095.24 201.53C1096.28 200.71 1097.57 200.3 1099.11 200.3C1100.89 200.3 1102.26 200.78 1103.22 201.74C1104.1 202.68 1104.54 203.86 1104.54 205.28V212.54C1104.54 213.38 1104.6 214.2 1104.72 215H1102.98C1102.86 214.56 1102.8 213.74 1102.8 212.54C1102.38 213.34 1101.79 213.97 1101.03 214.43C1100.11 215.05 1099.04 215.36 1097.82 215.36C1096.4 215.36 1095.24 214.94 1094.34 214.1ZM1094.97 211.22C1094.97 211.92 1095.24 212.53 1095.78 213.05C1096.32 213.57 1097.07 213.83 1098.03 213.83C1099.41 213.83 1100.54 213.41 1101.42 212.57C1102.3 211.73 1102.74 210.59 1102.74 209.15V207.44C1102.64 207.54 1102.39 207.64 1101.99 207.74C1101.47 207.9 1101.09 207.99 1100.85 208.01L1097.67 208.49C1095.87 208.75 1094.97 209.66 1094.97 211.22ZM1111.8 196.16V200.69H1115.52V202.34H1111.8V210.95C1111.8 212.67 1112.61 213.53 1114.23 213.53C1114.77 213.53 1115.2 213.46 1115.52 213.32V214.88C1115.16 215.06 1114.57 215.15 1113.75 215.15C1112.57 215.15 1111.65 214.81 1110.99 214.13C1110.33 213.43 1110 212.43 1110 211.13V202.34H1106.97V200.69H1108.05C1109.45 200.69 1110.15 199.99 1110.15 198.59V196.16H1111.8ZM1120.19 196.22C1119.79 196.22 1119.44 196.08 1119.14 195.8C1118.86 195.52 1118.72 195.18 1118.72 194.78C1118.72 194.36 1118.86 194 1119.14 193.7C1119.44 193.4 1119.79 193.25 1120.19 193.25C1120.61 193.25 1120.96 193.4 1121.24 193.7C1121.54 194 1121.69 194.36 1121.69 194.78C1121.69 195.18 1121.54 195.52 1121.24 195.8C1120.96 196.08 1120.61 196.22 1120.19 196.22ZM1121.09 215H1119.32V200.69H1121.09V215ZM1126.96 202.4C1128.3 201 1129.96 200.3 1131.94 200.3C1133.92 200.3 1135.59 201 1136.95 202.4C1138.31 203.82 1138.99 205.64 1138.99 207.86C1138.99 210.08 1138.31 211.89 1136.95 213.29C1135.59 214.69 1133.92 215.39 1131.94 215.39C1129.98 215.39 1128.33 214.69 1126.99 213.29C1125.61 211.87 1124.92 210.06 1124.92 207.86C1124.92 205.62 1125.6 203.8 1126.96 202.4ZM1128.31 212.21C1129.29 213.25 1130.5 213.77 1131.94 213.77C1133.38 213.77 1134.6 213.25 1135.6 212.21C1136.64 211.11 1137.16 209.66 1137.16 207.86C1137.16 206.08 1136.64 204.62 1135.6 203.48C1134.64 202.46 1133.42 201.95 1131.94 201.95C1130.46 201.95 1129.25 202.46 1128.31 203.48C1127.27 204.62 1126.75 206.08 1126.75 207.86C1126.75 209.66 1127.27 211.11 1128.31 212.21ZM1144.62 206.45V215H1142.82V200.69H1144.56V203.12C1145.48 201.26 1147.03 200.33 1149.21 200.33C1150.83 200.33 1152.1 200.85 1153.02 201.89C1153.86 202.85 1154.28 204.11 1154.28 205.67V215H1152.48V205.97C1152.48 204.77 1152.17 203.82 1151.55 203.12C1150.87 202.34 1149.89 201.95 1148.61 201.95C1147.43 201.95 1146.46 202.4 1145.7 203.3C1144.98 204.14 1144.62 205.19 1144.62 206.45Z" fill="white"/>
<path d="M39.4855 378.44C38.1855 379.74 36.4255 380.39 34.2055 380.39C31.9855 380.39 30.2355 379.75 28.9555 378.47C27.5955 377.17 26.9155 375.32 26.9155 372.92V358.73H28.8055V372.83C28.8055 374.73 29.2655 376.18 30.1855 377.18C31.1055 378.16 32.4455 378.65 34.2055 378.65C35.9655 378.65 37.3055 378.16 38.2255 377.18C39.1455 376.18 39.6055 374.73 39.6055 372.83V358.73H41.4955V372.92C41.4955 375.3 40.8255 377.14 39.4855 378.44ZM45.1944 376.19L46.8444 375.62C46.9844 376.6 47.3844 377.38 48.0444 377.96C48.7244 378.54 49.6344 378.83 50.7744 378.83C51.7144 378.83 52.4844 378.6 53.0844 378.14C53.6844 377.66 53.9844 377.04 53.9844 376.28C53.9844 375 53.1744 374.19 51.5544 373.85L49.1544 373.31C46.8544 372.77 45.7044 371.5 45.7044 369.5C45.7044 368.34 46.1844 367.35 47.1444 366.53C48.1044 365.71 49.2344 365.3 50.5344 365.3C51.9944 365.3 53.2144 365.72 54.1944 366.56C54.8944 367.2 55.3744 368.05 55.6344 369.11L54.0444 369.71C53.9044 368.93 53.5744 368.28 53.0544 367.76C52.3744 367.16 51.5344 366.86 50.5344 366.86C49.6944 366.86 48.9844 367.09 48.4044 367.55C47.7844 368.03 47.4744 368.64 47.4744 369.38C47.4744 370.54 48.2044 371.3 49.6644 371.66L52.0344 372.17C54.5144 372.75 55.7544 374.08 55.7544 376.16C55.7544 377.28 55.3244 378.25 54.4644 379.07C53.5244 379.95 52.2844 380.39 50.7444 380.39C49.0644 380.39 47.7444 379.94 46.7844 379.04C45.9044 378.26 45.3744 377.31 45.1944 376.19ZM70.0801 375.38L71.6701 375.95C71.2501 377.23 70.5201 378.27 69.4801 379.07C68.3401 379.95 66.9801 380.39 65.4001 380.39C63.4201 380.39 61.7901 379.72 60.5101 378.38C59.1301 377 58.4401 375.14 58.4401 372.8C58.4401 370.64 59.1001 368.83 60.4201 367.37C61.6801 365.99 63.2301 365.3 65.0701 365.3C67.1101 365.3 68.7501 365.98 69.9901 367.34C71.1701 368.68 71.7601 370.41 71.7601 372.53C71.7601 372.65 71.7401 372.87 71.7001 373.19H60.3001V373.31C60.3001 374.93 60.8001 376.26 61.8001 377.3C62.7601 378.3 63.9601 378.8 65.4001 378.8C66.5801 378.8 67.6101 378.46 68.4901 377.78C69.1901 377.22 69.7201 376.42 70.0801 375.38ZM60.3601 371.69H69.8701C69.8301 370.33 69.4001 369.2 68.5801 368.3C67.7001 367.38 66.5401 366.92 65.1001 366.92C63.8201 366.92 62.7201 367.38 61.8001 368.3C60.9401 369.2 60.4601 370.33 60.3601 371.69ZM82.8676 365.66V367.55C82.5676 367.45 82.1476 367.4 81.6076 367.4C80.3276 367.4 79.2976 367.81 78.5176 368.63C77.7576 369.43 77.3776 370.63 77.3776 372.23V380H75.5776V365.69H77.3176V368.36C78.1976 366.46 79.6776 365.51 81.7576 365.51C82.2976 365.51 82.6676 365.56 82.8676 365.66Z" fill="white"/>
<path d="M299.906 46H297.896L285.026 27.1V46H283.136V24.73H285.746L298.016 42.88V24.73H299.906V46ZM315.542 41.38L317.132 41.95C316.712 43.23 315.982 44.27 314.942 45.07C313.802 45.95 312.442 46.39 310.862 46.39C308.882 46.39 307.252 45.72 305.972 44.38C304.592 43 303.902 41.14 303.902 38.8C303.902 36.64 304.562 34.83 305.882 33.37C307.142 31.99 308.692 31.3 310.532 31.3C312.572 31.3 314.212 31.98 315.452 33.34C316.632 34.68 317.222 36.41 317.222 38.53C317.222 38.65 317.202 38.87 317.162 39.19H305.762V39.31C305.762 40.93 306.262 42.26 307.262 43.3C308.222 44.3 309.422 44.8 310.862 44.8C312.042 44.8 313.072 44.46 313.952 43.78C314.652 43.22 315.182 42.42 315.542 41.38ZM305.822 37.69H315.332C315.292 36.33 314.862 35.2 314.042 34.3C313.162 33.38 312.002 32.92 310.562 32.92C309.282 32.92 308.182 33.38 307.262 34.3C306.402 35.2 305.922 36.33 305.822 37.69ZM331.48 41.38L333.07 41.95C332.65 43.23 331.92 44.27 330.88 45.07C329.74 45.95 328.38 46.39 326.8 46.39C324.82 46.39 323.19 45.72 321.91 44.38C320.53 43 319.84 41.14 319.84 38.8C319.84 36.64 320.5 34.83 321.82 33.37C323.08 31.99 324.63 31.3 326.47 31.3C328.51 31.3 330.15 31.98 331.39 33.34C332.57 34.68 333.16 36.41 333.16 38.53C333.16 38.65 333.14 38.87 333.1 39.19H321.7V39.31C321.7 40.93 322.2 42.26 323.2 43.3C324.16 44.3 325.36 44.8 326.8 44.8C327.98 44.8 329.01 44.46 329.89 43.78C330.59 43.22 331.12 42.42 331.48 41.38ZM321.76 37.69H331.27C331.23 36.33 330.8 35.2 329.98 34.3C329.1 33.38 327.94 32.92 326.5 32.92C325.22 32.92 324.12 33.38 323.2 34.3C322.34 35.2 321.86 36.33 321.76 37.69ZM347.387 43.75V43.18C346.987 44.08 346.427 44.79 345.707 45.31C344.767 46.01 343.657 46.36 342.377 46.36C340.357 46.36 338.757 45.64 337.577 44.2C336.377 42.78 335.777 40.99 335.777 38.83C335.777 36.71 336.387 34.93 337.607 33.49C338.847 32.05 340.437 31.33 342.377 31.33C343.737 31.33 344.887 31.68 345.827 32.38C346.527 32.92 347.037 33.59 347.357 34.39V24.34H349.157V43.27C349.157 44.59 349.207 45.5 349.307 46H347.537C347.437 45.6 347.387 44.85 347.387 43.75ZM338.957 34.57C338.057 35.69 337.607 37.11 337.607 38.83C337.607 40.51 338.047 41.92 338.927 43.06C339.807 44.2 341.007 44.77 342.527 44.77C344.007 44.77 345.187 44.2 346.067 43.06C346.947 41.92 347.387 40.5 347.387 38.8C347.387 37.1 346.947 35.7 346.067 34.6C345.167 33.48 343.997 32.92 342.557 32.92C341.077 32.92 339.877 33.47 338.957 34.57Z" fill="white"/>
<path d="M782.991 46H781.071V24.73H782.991V46ZM798.593 43.75V43.18C798.193 44.08 797.633 44.79 796.913 45.31C795.973 46.01 794.863 46.36 793.583 46.36C791.563 46.36 789.963 45.64 788.783 44.2C787.583 42.78 786.983 40.99 786.983 38.83C786.983 36.71 787.593 34.93 788.813 33.49C790.053 32.05 791.643 31.33 793.583 31.33C794.943 31.33 796.093 31.68 797.033 32.38C797.733 32.92 798.243 33.59 798.563 34.39V24.34H800.363V43.27C800.363 44.59 800.413 45.5 800.513 46H798.743C798.643 45.6 798.593 44.85 798.593 43.75ZM790.163 34.57C789.263 35.69 788.813 37.11 788.813 38.83C788.813 40.51 789.253 41.92 790.133 43.06C791.013 44.2 792.213 44.77 793.733 44.77C795.213 44.77 796.393 44.2 797.273 43.06C798.153 41.92 798.593 40.5 798.593 38.8C798.593 37.1 798.153 35.7 797.273 34.6C796.373 33.48 795.203 32.92 793.763 32.92C792.283 32.92 791.083 33.47 790.163 34.57ZM815.85 41.38L817.44 41.95C817.02 43.23 816.29 44.27 815.25 45.07C814.11 45.95 812.75 46.39 811.17 46.39C809.19 46.39 807.56 45.72 806.28 44.38C804.9 43 804.21 41.14 804.21 38.8C804.21 36.64 804.87 34.83 806.19 33.37C807.45 31.99 809 31.3 810.84 31.3C812.88 31.3 814.52 31.98 815.76 33.34C816.94 34.68 817.53 36.41 817.53 38.53C817.53 38.65 817.51 38.87 817.47 39.19H806.07V39.31C806.07 40.93 806.57 42.26 807.57 43.3C808.53 44.3 809.73 44.8 811.17 44.8C812.35 44.8 813.38 44.46 814.26 43.78C814.96 43.22 815.49 42.42 815.85 41.38ZM806.13 37.69H815.64C815.6 36.33 815.17 35.2 814.35 34.3C813.47 33.38 812.31 32.92 810.87 32.92C809.59 32.92 808.49 33.38 807.57 34.3C806.71 35.2 806.23 36.33 806.13 37.69ZM821.587 45.1C820.767 44.38 820.357 43.45 820.357 42.31C820.357 39.99 821.797 38.58 824.677 38.08L828.487 37.51C829.487 37.33 829.987 36.86 829.987 36.1C829.987 35.12 829.667 34.34 829.027 33.76C828.407 33.16 827.527 32.86 826.387 32.86C825.247 32.86 824.317 33.16 823.597 33.76C822.897 34.36 822.497 35.18 822.397 36.22L820.657 35.83C820.797 34.51 821.407 33.41 822.487 32.53C823.527 31.71 824.817 31.3 826.357 31.3C828.137 31.3 829.507 31.78 830.467 32.74C831.347 33.68 831.787 34.86 831.787 36.28V43.54C831.787 44.38 831.847 45.2 831.967 46H830.227C830.107 45.56 830.047 44.74 830.047 43.54C829.627 44.34 829.037 44.97 828.277 45.43C827.357 46.05 826.287 46.36 825.067 46.36C823.647 46.36 822.487 45.94 821.587 45.1ZM822.217 42.22C822.217 42.92 822.487 43.53 823.027 44.05C823.567 44.57 824.317 44.83 825.277 44.83C826.657 44.83 827.787 44.41 828.667 43.57C829.547 42.73 829.987 41.59 829.987 40.15V38.44C829.887 38.54 829.637 38.64 829.237 38.74C828.717 38.9 828.337 38.99 828.097 39.01L824.917 39.49C823.117 39.75 822.217 40.66 822.217 42.22ZM839.048 27.16V31.69H842.768V33.34H839.048V41.95C839.048 43.67 839.858 44.53 841.478 44.53C842.018 44.53 842.448 44.46 842.768 44.32V45.88C842.408 46.06 841.818 46.15 840.998 46.15C839.818 46.15 838.898 45.81 838.238 45.13C837.578 44.43 837.248 43.43 837.248 42.13V33.34H834.218V31.69H835.298C836.698 31.69 837.398 30.99 837.398 29.59V27.16H839.048ZM847.442 27.22C847.042 27.22 846.692 27.08 846.392 26.8C846.112 26.52 845.972 26.18 845.972 25.78C845.972 25.36 846.112 25 846.392 24.7C846.692 24.4 847.042 24.25 847.442 24.25C847.862 24.25 848.212 24.4 848.492 24.7C848.792 25 848.942 25.36 848.942 25.78C848.942 26.18 848.792 26.52 848.492 26.8C848.212 27.08 847.862 27.22 847.442 27.22ZM848.342 46H846.572V31.69H848.342V46ZM854.209 33.4C855.549 32 857.209 31.3 859.189 31.3C861.169 31.3 862.839 32 864.199 33.4C865.559 34.82 866.239 36.64 866.239 38.86C866.239 41.08 865.559 42.89 864.199 44.29C862.839 45.69 861.169 46.39 859.189 46.39C857.229 46.39 855.579 45.69 854.239 44.29C852.859 42.87 852.169 41.06 852.169 38.86C852.169 36.62 852.849 34.8 854.209 33.4ZM855.559 43.21C856.539 44.25 857.749 44.77 859.189 44.77C860.629 44.77 861.849 44.25 862.849 43.21C863.889 42.11 864.409 40.66 864.409 38.86C864.409 37.08 863.889 35.62 862.849 34.48C861.889 33.46 860.669 32.95 859.189 32.95C857.709 32.95 856.499 33.46 855.559 34.48C854.519 35.62 853.999 37.08 853.999 38.86C853.999 40.66 854.519 42.11 855.559 43.21ZM871.868 37.45V46H870.068V31.69H871.808V34.12C872.728 32.26 874.278 31.33 876.458 31.33C878.078 31.33 879.348 31.85 880.268 32.89C881.108 33.85 881.528 35.11 881.528 36.67V46H879.728V36.97C879.728 35.77 879.418 34.82 878.798 34.12C878.118 33.34 877.138 32.95 875.858 32.95C874.678 32.95 873.708 33.4 872.948 34.3C872.228 35.14 871.868 36.19 871.868 37.45Z" fill="white"/>
<path d="M54 334.5L315.5 74L576.115 334.5L831 74" stroke="white" stroke-width="4"/>
<path d="M983 190L997 204L983 218" stroke="white" stroke-width="4"/>
<path d="M4.5 204H23" stroke="white" stroke-width="4"/>
<path d="M716 204H734.5" stroke="white" stroke-width="4"/>
<path d="M41.5 204H60" stroke="white" stroke-width="4"/>
<path d="M753 204H771.5" stroke="white" stroke-width="4"/>
<path d="M78.5 204H97" stroke="white" stroke-width="4"/>
<path d="M790 204H808.5" stroke="white" stroke-width="4"/>
<path d="M115.5 204H134" stroke="white" stroke-width="4"/>
<path d="M827 204H845.5" stroke="white" stroke-width="4"/>
<path d="M152.5 204H171" stroke="white" stroke-width="4"/>
<path d="M864 204H882.5" stroke="white" stroke-width="4"/>
<path d="M902 204H920.5" stroke="white" stroke-width="4"/>
<path d="M940 204H958.5" stroke="white" stroke-width="4"/>
<path d="M976 204H994.5" stroke="white" stroke-width="4"/>
<path d="M197 204H215.5" stroke="white" stroke-width="4"/>
<path d="M233 204H251.5" stroke="white" stroke-width="4"/>
<path d="M269 204H287.5" stroke="white" stroke-width="4"/>
<path d="M305 204H323.5" stroke="white" stroke-width="4"/>
<path d="M341 204H359.5" stroke="white" stroke-width="4"/>
<path d="M377 204H395.5" stroke="white" stroke-width="4"/>
<path d="M413 204H431.5" stroke="white" stroke-width="4"/>
<path d="M458 204H476.5" stroke="white" stroke-width="4"/>
<path d="M494 204H512.5" stroke="white" stroke-width="4"/>
<path d="M529.5 204H548" stroke="white" stroke-width="4"/>
<path d="M565 204H583.5" stroke="white" stroke-width="4"/>
<path d="M600.5 204H619" stroke="white" stroke-width="4"/>
<path d="M636 204H654.5" stroke="white" stroke-width="4"/>
<path d="M671.5 204H690" stroke="white" stroke-width="4"/>
</svg>
