<svg width="1200" height="409" viewBox="0 0 1200 409" fill="none" xmlns="http://www.w3.org/2000/svg">
<path d="M500.964 398.54C498.804 396.52 497.724 393.8 497.724 390.38C497.724 386.98 498.804 384.25 500.964 382.19C502.904 380.29 505.284 379.34 508.104 379.34C510.884 379.34 513.274 380.29 515.274 382.19C517.434 384.31 518.514 387.04 518.514 390.38C518.514 393.72 517.434 396.44 515.274 398.54C513.274 400.44 510.884 401.39 508.104 401.39C505.284 401.39 502.904 400.44 500.964 398.54ZM502.254 383.45C500.514 385.13 499.644 387.44 499.644 390.38C499.644 393.3 500.514 395.6 502.254 397.28C503.834 398.86 505.784 399.65 508.104 399.65C510.384 399.65 512.344 398.86 513.984 397.28C515.724 395.54 516.594 393.24 516.594 390.38C516.594 387.5 515.724 385.19 513.984 383.45C512.344 381.87 510.384 381.08 508.104 381.08C505.784 381.08 503.834 381.87 502.254 383.45ZM524.159 406.7H522.389V386.69H524.159V389.54C524.599 388.64 525.199 387.92 525.959 387.38C526.919 386.7 528.049 386.36 529.349 386.36C531.309 386.36 532.899 387.07 534.119 388.49C535.259 389.95 535.829 391.73 535.829 393.83C535.829 396.01 535.249 397.8 534.089 399.2C532.869 400.64 531.269 401.36 529.289 401.36C527.989 401.36 526.879 401.03 525.959 400.37C525.159 399.81 524.559 399.12 524.159 398.3V406.7ZM532.649 398.06C533.549 396.94 533.999 395.53 533.999 393.83C533.999 392.11 533.549 390.71 532.649 389.63C531.729 388.51 530.529 387.95 529.049 387.95C527.569 387.95 526.379 388.51 525.479 389.63C524.579 390.75 524.129 392.15 524.129 393.83C524.129 395.57 524.579 396.98 525.479 398.06C526.359 399.2 527.549 399.77 529.049 399.77C530.529 399.77 531.729 399.2 532.649 398.06ZM541.415 406.7H539.645V386.69H541.415V389.54C541.855 388.64 542.455 387.92 543.215 387.38C544.175 386.7 545.305 386.36 546.605 386.36C548.565 386.36 550.155 387.07 551.375 388.49C552.515 389.95 553.085 391.73 553.085 393.83C553.085 396.01 552.505 397.8 551.345 399.2C550.125 400.64 548.525 401.36 546.545 401.36C545.245 401.36 544.135 401.03 543.215 400.37C542.415 399.81 541.815 399.12 541.415 398.3V406.7ZM549.905 398.06C550.805 396.94 551.255 395.53 551.255 393.83C551.255 392.11 550.805 390.71 549.905 389.63C548.985 388.51 547.785 387.95 546.305 387.95C544.825 387.95 543.635 388.51 542.735 389.63C541.835 390.75 541.385 392.15 541.385 393.83C541.385 395.57 541.835 396.98 542.735 398.06C543.615 399.2 544.805 399.77 546.305 399.77C547.785 399.77 548.985 399.2 549.905 398.06ZM557.741 388.4C559.081 387 560.741 386.3 562.721 386.3C564.701 386.3 566.371 387 567.731 388.4C569.091 389.82 569.771 391.64 569.771 393.86C569.771 396.08 569.091 397.89 567.731 399.29C566.371 400.69 564.701 401.39 562.721 401.39C560.761 401.39 559.111 400.69 557.771 399.29C556.391 397.87 555.701 396.06 555.701 393.86C555.701 391.62 556.381 389.8 557.741 388.4ZM559.091 398.21C560.071 399.25 561.281 399.77 562.721 399.77C564.161 399.77 565.381 399.25 566.381 398.21C567.421 397.11 567.941 395.66 567.941 393.86C567.941 392.08 567.421 390.62 566.381 389.48C565.421 388.46 564.201 387.95 562.721 387.95C561.241 387.95 560.031 388.46 559.091 389.48C558.051 390.62 557.531 392.08 557.531 393.86C557.531 395.66 558.051 397.11 559.091 398.21ZM580.89 386.66V388.55C580.59 388.45 580.17 388.4 579.63 388.4C578.35 388.4 577.32 388.81 576.54 389.63C575.78 390.43 575.4 391.63 575.4 393.23V401H573.6V386.69H575.34V389.36C576.22 387.46 577.7 386.51 579.78 386.51C580.32 386.51 580.69 386.56 580.89 386.66ZM587.17 382.16V386.69H590.89V388.34H587.17V396.95C587.17 398.67 587.98 399.53 589.6 399.53C590.14 399.53 590.57 399.46 590.89 399.32V400.88C590.53 401.06 589.94 401.15 589.12 401.15C587.94 401.15 587.02 400.81 586.36 400.13C585.7 399.43 585.37 398.43 585.37 397.13V388.34H582.34V386.69H583.42C584.82 386.69 585.52 385.99 585.52 384.59V382.16H587.17ZM604.294 398.78C603.914 399.54 603.334 400.17 602.554 400.67C601.794 401.15 600.874 401.39 599.794 401.39C598.054 401.39 596.714 400.81 595.774 399.65C594.894 398.59 594.454 397.27 594.454 395.69V386.69H596.254V395.42C596.254 396.66 596.554 397.67 597.154 398.45C597.794 399.35 598.784 399.8 600.124 399.8C601.364 399.8 602.364 399.37 603.124 398.51C603.824 397.75 604.174 396.73 604.174 395.45V386.69H605.974V398.27C605.974 399.25 606.034 400.16 606.154 401H604.444C604.344 400.64 604.294 399.97 604.294 398.99V398.78ZM612.783 392.45V401H610.983V386.69H612.723V389.12C613.643 387.26 615.193 386.33 617.373 386.33C618.993 386.33 620.263 386.85 621.183 387.89C622.023 388.85 622.443 390.11 622.443 391.67V401H620.643V391.97C620.643 390.77 620.333 389.82 619.713 389.12C619.033 388.34 618.053 387.95 616.773 387.95C615.593 387.95 614.623 388.4 613.863 389.3C613.143 390.14 612.783 391.19 612.783 392.45ZM628.054 382.22C627.654 382.22 627.304 382.08 627.004 381.8C626.724 381.52 626.584 381.18 626.584 380.78C626.584 380.36 626.724 380 627.004 379.7C627.304 379.4 627.654 379.25 628.054 379.25C628.474 379.25 628.824 379.4 629.104 379.7C629.404 380 629.554 380.36 629.554 380.78C629.554 381.18 629.404 381.52 629.104 381.8C628.824 382.08 628.474 382.22 628.054 382.22ZM628.954 401H627.184V386.69H628.954V401ZM636.711 382.16V386.69H640.431V388.34H636.711V396.95C636.711 398.67 637.521 399.53 639.141 399.53C639.681 399.53 640.111 399.46 640.431 399.32V400.88C640.071 401.06 639.481 401.15 638.661 401.15C637.481 401.15 636.561 400.81 635.901 400.13C635.241 399.43 634.911 398.43 634.911 397.13V388.34H631.881V386.69H632.961C634.361 386.69 635.061 385.99 635.061 384.59V382.16H636.711ZM646.898 406.82H644.948L648.548 399.14L642.398 386.69H644.438L649.508 397.28L654.248 386.69H656.168L646.898 406.82Z" fill="white"/>
<path d="M1019.74 222H1017.82V200.73H1019.74V222ZM1026.88 213.45V222H1025.08V207.69H1026.82V210.12C1027.74 208.26 1029.29 207.33 1031.47 207.33C1033.09 207.33 1034.36 207.85 1035.28 208.89C1036.12 209.85 1036.54 211.11 1036.54 212.67V222H1034.74V212.97C1034.74 211.77 1034.43 210.82 1033.81 210.12C1033.13 209.34 1032.15 208.95 1030.87 208.95C1029.69 208.95 1028.72 209.4 1027.96 210.3C1027.24 211.14 1026.88 212.19 1026.88 213.45ZM1043.08 213.45V222H1041.28V207.69H1043.02V210.12C1043.94 208.26 1045.49 207.33 1047.67 207.33C1049.29 207.33 1050.56 207.85 1051.48 208.89C1052.32 209.85 1052.74 211.11 1052.74 212.67V222H1050.94V212.97C1050.94 211.77 1050.63 210.82 1050.01 210.12C1049.33 209.34 1048.35 208.95 1047.07 208.95C1045.89 208.95 1044.92 209.4 1044.16 210.3C1043.44 211.14 1043.08 212.19 1043.08 213.45ZM1058.32 209.4C1059.66 208 1061.32 207.3 1063.3 207.3C1065.28 207.3 1066.95 208 1068.31 209.4C1069.67 210.82 1070.35 212.64 1070.35 214.86C1070.35 217.08 1069.67 218.89 1068.31 220.29C1066.95 221.69 1065.28 222.39 1063.3 222.39C1061.34 222.39 1059.69 221.69 1058.35 220.29C1056.97 218.87 1056.28 217.06 1056.28 214.86C1056.28 212.62 1056.96 210.8 1058.32 209.4ZM1059.67 219.21C1060.65 220.25 1061.86 220.77 1063.3 220.77C1064.74 220.77 1065.96 220.25 1066.96 219.21C1068 218.11 1068.52 216.66 1068.52 214.86C1068.52 213.08 1068 211.62 1066.96 210.48C1066 209.46 1064.78 208.95 1063.3 208.95C1061.82 208.95 1060.61 209.46 1059.67 210.48C1058.63 211.62 1058.11 213.08 1058.11 214.86C1058.11 216.66 1058.63 218.11 1059.67 219.21ZM1085.08 207.69L1079.44 222H1077.55L1071.85 207.69H1073.89L1078.51 219.96L1083.16 207.69H1085.08ZM1088.34 221.1C1087.52 220.38 1087.11 219.45 1087.11 218.31C1087.11 215.99 1088.55 214.58 1091.43 214.08L1095.24 213.51C1096.24 213.33 1096.74 212.86 1096.74 212.1C1096.74 211.12 1096.42 210.34 1095.78 209.76C1095.16 209.16 1094.28 208.86 1093.14 208.86C1092 208.86 1091.07 209.16 1090.35 209.76C1089.65 210.36 1089.25 211.18 1089.15 212.22L1087.41 211.83C1087.55 210.51 1088.16 209.41 1089.24 208.53C1090.28 207.71 1091.57 207.3 1093.11 207.3C1094.89 207.3 1096.26 207.78 1097.22 208.74C1098.1 209.68 1098.54 210.86 1098.54 212.28V219.54C1098.54 220.38 1098.6 221.2 1098.72 222H1096.98C1096.86 221.56 1096.8 220.74 1096.8 219.54C1096.38 220.34 1095.79 220.97 1095.03 221.43C1094.11 222.05 1093.04 222.36 1091.82 222.36C1090.4 222.36 1089.24 221.94 1088.34 221.1ZM1088.97 218.22C1088.97 218.92 1089.24 219.53 1089.78 220.05C1090.32 220.57 1091.07 220.83 1092.03 220.83C1093.41 220.83 1094.54 220.41 1095.42 219.57C1096.3 218.73 1096.74 217.59 1096.74 216.15V214.44C1096.64 214.54 1096.39 214.64 1095.99 214.74C1095.47 214.9 1095.09 214.99 1094.85 215.01L1091.67 215.49C1089.87 215.75 1088.97 216.66 1088.97 218.22ZM1105.8 203.16V207.69H1109.52V209.34H1105.8V217.95C1105.8 219.67 1106.61 220.53 1108.23 220.53C1108.77 220.53 1109.2 220.46 1109.52 220.32V221.88C1109.16 222.06 1108.57 222.15 1107.75 222.15C1106.57 222.15 1105.65 221.81 1104.99 221.13C1104.33 220.43 1104 219.43 1104 218.13V209.34H1100.97V207.69H1102.05C1103.45 207.69 1104.15 206.99 1104.15 205.59V203.16H1105.8ZM1114.19 203.22C1113.79 203.22 1113.44 203.08 1113.14 202.8C1112.86 202.52 1112.72 202.18 1112.72 201.78C1112.72 201.36 1112.86 201 1113.14 200.7C1113.44 200.4 1113.79 200.25 1114.19 200.25C1114.61 200.25 1114.96 200.4 1115.24 200.7C1115.54 201 1115.69 201.36 1115.69 201.78C1115.69 202.18 1115.54 202.52 1115.24 202.8C1114.96 203.08 1114.61 203.22 1114.19 203.22ZM1115.09 222H1113.32V207.69H1115.09V222ZM1120.96 209.4C1122.3 208 1123.96 207.3 1125.94 207.3C1127.92 207.3 1129.59 208 1130.95 209.4C1132.31 210.82 1132.99 212.64 1132.99 214.86C1132.99 217.08 1132.31 218.89 1130.95 220.29C1129.59 221.69 1127.92 222.39 1125.94 222.39C1123.98 222.39 1122.33 221.69 1120.99 220.29C1119.61 218.87 1118.92 217.06 1118.92 214.86C1118.92 212.62 1119.6 210.8 1120.96 209.4ZM1122.31 219.21C1123.29 220.25 1124.5 220.77 1125.94 220.77C1127.38 220.77 1128.6 220.25 1129.6 219.21C1130.64 218.11 1131.16 216.66 1131.16 214.86C1131.16 213.08 1130.64 211.62 1129.6 210.48C1128.64 209.46 1127.42 208.95 1125.94 208.95C1124.46 208.95 1123.25 209.46 1122.31 210.48C1121.27 211.62 1120.75 213.08 1120.75 214.86C1120.75 216.66 1121.27 218.11 1122.31 219.21ZM1138.62 213.45V222H1136.82V207.69H1138.56V210.12C1139.48 208.26 1141.03 207.33 1143.21 207.33C1144.83 207.33 1146.1 207.85 1147.02 208.89C1147.86 209.85 1148.28 211.11 1148.28 212.67V222H1146.48V212.97C1146.48 211.77 1146.17 210.82 1145.55 210.12C1144.87 209.34 1143.89 208.95 1142.61 208.95C1141.43 208.95 1140.46 209.4 1139.7 210.3C1138.98 211.14 1138.62 212.19 1138.62 213.45Z" fill="white"/>
<path d="M15.4855 399.44C14.1855 400.74 12.4255 401.39 10.2055 401.39C7.98551 401.39 6.23551 400.75 4.95551 399.47C3.59551 398.17 2.91551 396.32 2.91551 393.92V379.73H4.80551V393.83C4.80551 395.73 5.26551 397.18 6.18551 398.18C7.10551 399.16 8.44551 399.65 10.2055 399.65C11.9655 399.65 13.3055 399.16 14.2255 398.18C15.1455 397.18 15.6055 395.73 15.6055 393.83V379.73H17.4955V393.92C17.4955 396.3 16.8255 398.14 15.4855 399.44ZM21.1944 397.19L22.8444 396.62C22.9844 397.6 23.3844 398.38 24.0444 398.96C24.7244 399.54 25.6344 399.83 26.7744 399.83C27.7144 399.83 28.4844 399.6 29.0844 399.14C29.6844 398.66 29.9844 398.04 29.9844 397.28C29.9844 396 29.1744 395.19 27.5544 394.85L25.1544 394.31C22.8544 393.77 21.7044 392.5 21.7044 390.5C21.7044 389.34 22.1844 388.35 23.1444 387.53C24.1044 386.71 25.2344 386.3 26.5344 386.3C27.9944 386.3 29.2144 386.72 30.1944 387.56C30.8944 388.2 31.3744 389.05 31.6344 390.11L30.0444 390.71C29.9044 389.93 29.5744 389.28 29.0544 388.76C28.3744 388.16 27.5344 387.86 26.5344 387.86C25.6944 387.86 24.9844 388.09 24.4044 388.55C23.7844 389.03 23.4744 389.64 23.4744 390.38C23.4744 391.54 24.2044 392.3 25.6644 392.66L28.0344 393.17C30.5144 393.75 31.7544 395.08 31.7544 397.16C31.7544 398.28 31.3244 399.25 30.4644 400.07C29.5244 400.95 28.2844 401.39 26.7444 401.39C25.0644 401.39 23.7444 400.94 22.7844 400.04C21.9044 399.26 21.3744 398.31 21.1944 397.19ZM46.0801 396.38L47.6701 396.95C47.2501 398.23 46.5201 399.27 45.4801 400.07C44.3401 400.95 42.9801 401.39 41.4001 401.39C39.4201 401.39 37.7901 400.72 36.5101 399.38C35.1301 398 34.4401 396.14 34.4401 393.8C34.4401 391.64 35.1001 389.83 36.4201 388.37C37.6801 386.99 39.2301 386.3 41.0701 386.3C43.1101 386.3 44.7501 386.98 45.9901 388.34C47.1701 389.68 47.7601 391.41 47.7601 393.53C47.7601 393.65 47.7401 393.87 47.7001 394.19H36.3001V394.31C36.3001 395.93 36.8001 397.26 37.8001 398.3C38.7601 399.3 39.9601 399.8 41.4001 399.8C42.5801 399.8 43.6101 399.46 44.4901 398.78C45.1901 398.22 45.7201 397.42 46.0801 396.38ZM36.3601 392.69H45.8701C45.8301 391.33 45.4001 390.2 44.5801 389.3C43.7001 388.38 42.5401 387.92 41.1001 387.92C39.8201 387.92 38.7201 388.38 37.8001 389.3C36.9401 390.2 36.4601 391.33 36.3601 392.69ZM58.8676 386.66V388.55C58.5676 388.45 58.1476 388.4 57.6076 388.4C56.3276 388.4 55.2976 388.81 54.5176 389.63C53.7576 390.43 53.3776 391.63 53.3776 393.23V401H51.5776V386.69H53.3176V389.36C54.1976 387.46 55.6776 386.51 57.7576 386.51C58.2976 386.51 58.6676 386.56 58.8676 386.66Z" fill="white"/>
<path d="M289.906 30H287.896L275.026 11.1V30H273.136V8.73H275.746L288.016 26.88V8.73H289.906V30ZM305.542 25.38L307.132 25.95C306.712 27.23 305.982 28.27 304.942 29.07C303.802 29.95 302.442 30.39 300.862 30.39C298.882 30.39 297.252 29.72 295.972 28.38C294.592 27 293.902 25.14 293.902 22.8C293.902 20.64 294.562 18.83 295.882 17.37C297.142 15.99 298.692 15.3 300.532 15.3C302.572 15.3 304.212 15.98 305.452 17.34C306.632 18.68 307.222 20.41 307.222 22.53C307.222 22.65 307.202 22.87 307.162 23.19H295.762V23.31C295.762 24.93 296.262 26.26 297.262 27.3C298.222 28.3 299.422 28.8 300.862 28.8C302.042 28.8 303.072 28.46 303.952 27.78C304.652 27.22 305.182 26.42 305.542 25.38ZM295.822 21.69H305.332C305.292 20.33 304.862 19.2 304.042 18.3C303.162 17.38 302.002 16.92 300.562 16.92C299.282 16.92 298.182 17.38 297.262 18.3C296.402 19.2 295.922 20.33 295.822 21.69ZM321.48 25.38L323.07 25.95C322.65 27.23 321.92 28.27 320.88 29.07C319.74 29.95 318.38 30.39 316.8 30.39C314.82 30.39 313.19 29.72 311.91 28.38C310.53 27 309.84 25.14 309.84 22.8C309.84 20.64 310.5 18.83 311.82 17.37C313.08 15.99 314.63 15.3 316.47 15.3C318.51 15.3 320.15 15.98 321.39 17.34C322.57 18.68 323.16 20.41 323.16 22.53C323.16 22.65 323.14 22.87 323.1 23.19H311.7V23.31C311.7 24.93 312.2 26.26 313.2 27.3C314.16 28.3 315.36 28.8 316.8 28.8C317.98 28.8 319.01 28.46 319.89 27.78C320.59 27.22 321.12 26.42 321.48 25.38ZM311.76 21.69H321.27C321.23 20.33 320.8 19.2 319.98 18.3C319.1 17.38 317.94 16.92 316.5 16.92C315.22 16.92 314.12 17.38 313.2 18.3C312.34 19.2 311.86 20.33 311.76 21.69ZM337.387 27.75V27.18C336.987 28.08 336.427 28.79 335.707 29.31C334.767 30.01 333.657 30.36 332.377 30.36C330.357 30.36 328.757 29.64 327.577 28.2C326.377 26.78 325.777 24.99 325.777 22.83C325.777 20.71 326.387 18.93 327.607 17.49C328.847 16.05 330.437 15.33 332.377 15.33C333.737 15.33 334.887 15.68 335.827 16.38C336.527 16.92 337.037 17.59 337.357 18.39V8.34H339.157V27.27C339.157 28.59 339.207 29.5 339.307 30H337.537C337.437 29.6 337.387 28.85 337.387 27.75ZM328.957 18.57C328.057 19.69 327.607 21.11 327.607 22.83C327.607 24.51 328.047 25.92 328.927 27.06C329.807 28.2 331.007 28.77 332.527 28.77C334.007 28.77 335.187 28.2 336.067 27.06C336.947 25.92 337.387 24.5 337.387 22.8C337.387 21.1 336.947 19.7 336.067 18.6C335.167 17.48 333.997 16.92 332.557 16.92C331.077 16.92 329.877 17.47 328.957 18.57Z" fill="white"/>
<path d="M832.991 30H831.071V8.73H832.991V30ZM848.593 27.75V27.18C848.193 28.08 847.633 28.79 846.913 29.31C845.973 30.01 844.863 30.36 843.583 30.36C841.563 30.36 839.963 29.64 838.783 28.2C837.583 26.78 836.983 24.99 836.983 22.83C836.983 20.71 837.593 18.93 838.813 17.49C840.053 16.05 841.643 15.33 843.583 15.33C844.943 15.33 846.093 15.68 847.033 16.38C847.733 16.92 848.243 17.59 848.563 18.39V8.34H850.363V27.27C850.363 28.59 850.413 29.5 850.513 30H848.743C848.643 29.6 848.593 28.85 848.593 27.75ZM840.163 18.57C839.263 19.69 838.813 21.11 838.813 22.83C838.813 24.51 839.253 25.92 840.133 27.06C841.013 28.2 842.213 28.77 843.733 28.77C845.213 28.77 846.393 28.2 847.273 27.06C848.153 25.92 848.593 24.5 848.593 22.8C848.593 21.1 848.153 19.7 847.273 18.6C846.373 17.48 845.203 16.92 843.763 16.92C842.283 16.92 841.083 17.47 840.163 18.57ZM865.85 25.38L867.44 25.95C867.02 27.23 866.29 28.27 865.25 29.07C864.11 29.95 862.75 30.39 861.17 30.39C859.19 30.39 857.56 29.72 856.28 28.38C854.9 27 854.21 25.14 854.21 22.8C854.21 20.64 854.87 18.83 856.19 17.37C857.45 15.99 859 15.3 860.84 15.3C862.88 15.3 864.52 15.98 865.76 17.34C866.94 18.68 867.53 20.41 867.53 22.53C867.53 22.65 867.51 22.87 867.47 23.19H856.07V23.31C856.07 24.93 856.57 26.26 857.57 27.3C858.53 28.3 859.73 28.8 861.17 28.8C862.35 28.8 863.38 28.46 864.26 27.78C864.96 27.22 865.49 26.42 865.85 25.38ZM856.13 21.69H865.64C865.6 20.33 865.17 19.2 864.35 18.3C863.47 17.38 862.31 16.92 860.87 16.92C859.59 16.92 858.49 17.38 857.57 18.3C856.71 19.2 856.23 20.33 856.13 21.69ZM871.587 29.1C870.767 28.38 870.357 27.45 870.357 26.31C870.357 23.99 871.797 22.58 874.677 22.08L878.487 21.51C879.487 21.33 879.987 20.86 879.987 20.1C879.987 19.12 879.667 18.34 879.027 17.76C878.407 17.16 877.527 16.86 876.387 16.86C875.247 16.86 874.317 17.16 873.597 17.76C872.897 18.36 872.497 19.18 872.397 20.22L870.657 19.83C870.797 18.51 871.407 17.41 872.487 16.53C873.527 15.71 874.817 15.3 876.357 15.3C878.137 15.3 879.507 15.78 880.467 16.74C881.347 17.68 881.787 18.86 881.787 20.28V27.54C881.787 28.38 881.847 29.2 881.967 30H880.227C880.107 29.56 880.047 28.74 880.047 27.54C879.627 28.34 879.037 28.97 878.277 29.43C877.357 30.05 876.287 30.36 875.067 30.36C873.647 30.36 872.487 29.94 871.587 29.1ZM872.217 26.22C872.217 26.92 872.487 27.53 873.027 28.05C873.567 28.57 874.317 28.83 875.277 28.83C876.657 28.83 877.787 28.41 878.667 27.57C879.547 26.73 879.987 25.59 879.987 24.15V22.44C879.887 22.54 879.637 22.64 879.237 22.74C878.717 22.9 878.337 22.99 878.097 23.01L874.917 23.49C873.117 23.75 872.217 24.66 872.217 26.22ZM889.048 11.16V15.69H892.768V17.34H889.048V25.95C889.048 27.67 889.858 28.53 891.478 28.53C892.018 28.53 892.448 28.46 892.768 28.32V29.88C892.408 30.06 891.818 30.15 890.998 30.15C889.818 30.15 888.898 29.81 888.238 29.13C887.578 28.43 887.248 27.43 887.248 26.13V17.34H884.218V15.69H885.298C886.698 15.69 887.398 14.99 887.398 13.59V11.16H889.048ZM897.442 11.22C897.042 11.22 896.692 11.08 896.392 10.8C896.112 10.52 895.972 10.18 895.972 9.78C895.972 9.36 896.112 9 896.392 8.7C896.692 8.4 897.042 8.25 897.442 8.25C897.862 8.25 898.212 8.4 898.492 8.7C898.792 9 898.942 9.36 898.942 9.78C898.942 10.18 898.792 10.52 898.492 10.8C898.212 11.08 897.862 11.22 897.442 11.22ZM898.342 30H896.572V15.69H898.342V30ZM904.209 17.4C905.549 16 907.209 15.3 909.189 15.3C911.169 15.3 912.839 16 914.199 17.4C915.559 18.82 916.239 20.64 916.239 22.86C916.239 25.08 915.559 26.89 914.199 28.29C912.839 29.69 911.169 30.39 909.189 30.39C907.229 30.39 905.579 29.69 904.239 28.29C902.859 26.87 902.169 25.06 902.169 22.86C902.169 20.62 902.849 18.8 904.209 17.4ZM905.559 27.21C906.539 28.25 907.749 28.77 909.189 28.77C910.629 28.77 911.849 28.25 912.849 27.21C913.889 26.11 914.409 24.66 914.409 22.86C914.409 21.08 913.889 19.62 912.849 18.48C911.889 17.46 910.669 16.95 909.189 16.95C907.709 16.95 906.499 17.46 905.559 18.48C904.519 19.62 903.999 21.08 903.999 22.86C903.999 24.66 904.519 26.11 905.559 27.21ZM921.868 21.45V30H920.068V15.69H921.808V18.12C922.728 16.26 924.278 15.33 926.458 15.33C928.078 15.33 929.348 15.85 930.268 16.89C931.108 17.85 931.528 19.11 931.528 20.67V30H929.728V20.97C929.728 19.77 929.418 18.82 928.798 18.12C928.118 17.34 927.138 16.95 925.858 16.95C924.678 16.95 923.708 17.4 922.948 18.3C922.228 19.14 921.868 20.19 921.868 21.45Z" fill="white"/>
<path d="M49 359L310.057 62L571.115 359L884 62" stroke="white" stroke-width="4"/>
<path d="M0 211H992" stroke="white" stroke-width="4" stroke-dasharray="8 8"/>
<path d="M979 198L992 211L979 224" stroke="white" stroke-width="3"/>
</svg>
