<svg width="330" height="493" viewBox="0 0 330 493" fill="none" xmlns="http://www.w3.org/2000/svg">
<path d="M38.9616 297H37.9616L37.8416 294.26C37.5216 295.033 36.9816 295.68 36.2216 296.2C35.2616 296.907 34.0882 297.26 32.7016 297.26C30.9149 297.26 29.3882 296.627 28.1216 295.36C26.7216 293.987 26.0216 292.167 26.0216 289.9C26.0216 287.647 26.7282 285.827 28.1416 284.44C29.4349 283.187 31.0149 282.56 32.8816 282.56C34.3749 282.56 35.6816 282.953 36.8016 283.74C37.9082 284.54 38.6549 285.567 39.0416 286.82L37.9016 287.3C37.5416 286.18 36.9282 285.307 36.0616 284.68C35.1949 284.04 34.1349 283.72 32.8816 283.72C31.3482 283.72 30.0616 284.24 29.0216 285.28C27.8749 286.427 27.3016 287.967 27.3016 289.9C27.3016 291.847 27.8749 293.393 29.0216 294.54C30.0482 295.593 31.2882 296.12 32.7416 296.12C34.4082 296.12 35.7082 295.573 36.6416 294.48C37.3616 293.613 37.7349 292.62 37.7616 291.5H32.5216V290.34H38.9616V297ZM42.5759 288.6C43.4693 287.667 44.5759 287.2 45.8959 287.2C47.2159 287.2 48.3293 287.667 49.2359 288.6C50.1426 289.547 50.5959 290.76 50.5959 292.24C50.5959 293.72 50.1426 294.927 49.2359 295.86C48.3293 296.793 47.2159 297.26 45.8959 297.26C44.5893 297.26 43.4893 296.793 42.5959 295.86C41.6759 294.913 41.2159 293.707 41.2159 292.24C41.2159 290.747 41.6693 289.533 42.5759 288.6ZM43.4759 295.14C44.1293 295.833 44.9359 296.18 45.8959 296.18C46.8559 296.18 47.6693 295.833 48.3359 295.14C49.0293 294.407 49.3759 293.44 49.3759 292.24C49.3759 291.053 49.0293 290.08 48.3359 289.32C47.6959 288.64 46.8826 288.3 45.8959 288.3C44.9093 288.3 44.1026 288.64 43.4759 289.32C42.7826 290.08 42.4359 291.053 42.4359 292.24C42.4359 293.44 42.7826 294.407 43.4759 295.14ZM53.2111 296.4C52.6644 295.92 52.3911 295.3 52.3911 294.54C52.3911 292.993 53.3511 292.053 55.2711 291.72L57.8111 291.34C58.4778 291.22 58.8111 290.907 58.8111 290.4C58.8111 289.747 58.5978 289.227 58.1711 288.84C57.7578 288.44 57.1711 288.24 56.4111 288.24C55.6511 288.24 55.0311 288.44 54.5511 288.84C54.0844 289.24 53.8178 289.787 53.7511 290.48L52.5911 290.22C52.6844 289.34 53.0911 288.607 53.8111 288.02C54.5044 287.473 55.3644 287.2 56.3911 287.2C57.5778 287.2 58.4911 287.52 59.1311 288.16C59.7178 288.787 60.0111 289.573 60.0111 290.52V295.36C60.0111 295.92 60.0511 296.467 60.1311 297H58.9711C58.8911 296.707 58.8511 296.16 58.8511 295.36C58.5711 295.893 58.1778 296.313 57.6711 296.62C57.0578 297.033 56.3444 297.24 55.5311 297.24C54.5844 297.24 53.8111 296.96 53.2111 296.4ZM53.6311 294.48C53.6311 294.947 53.8111 295.353 54.1711 295.7C54.5311 296.047 55.0311 296.22 55.6711 296.22C56.5911 296.22 57.3444 295.94 57.9311 295.38C58.5178 294.82 58.8111 294.06 58.8111 293.1V291.96C58.7444 292.027 58.5778 292.093 58.3111 292.16C57.9644 292.267 57.7111 292.327 57.5511 292.34L55.4311 292.66C54.2311 292.833 53.6311 293.44 53.6311 294.48ZM64.3292 297H63.1292V282.56H64.3292V297Z" fill="white"/>
<path d="M117.16 478H115.88V463.82H117.16V478ZM121.919 472.3V478H120.719V468.46H121.879V470.08C122.492 468.84 123.526 468.22 124.979 468.22C126.059 468.22 126.906 468.567 127.519 469.26C128.079 469.9 128.359 470.74 128.359 471.78V478H127.159V471.98C127.159 471.18 126.952 470.547 126.539 470.08C126.086 469.56 125.432 469.3 124.579 469.3C123.792 469.3 123.146 469.6 122.639 470.2C122.159 470.76 121.919 471.46 121.919 472.3ZM132.72 472.3V478H131.52V468.46H132.68V470.08C133.293 468.84 134.327 468.22 135.78 468.22C136.86 468.22 137.707 468.567 138.32 469.26C138.88 469.9 139.16 470.74 139.16 471.78V478H137.96V471.98C137.96 471.18 137.753 470.547 137.34 470.08C136.887 469.56 136.233 469.3 135.38 469.3C134.593 469.3 133.947 469.6 133.44 470.2C132.96 470.76 132.72 471.46 132.72 472.3ZM142.881 469.6C143.774 468.667 144.881 468.2 146.201 468.2C147.521 468.2 148.634 468.667 149.541 469.6C150.447 470.547 150.901 471.76 150.901 473.24C150.901 474.72 150.447 475.927 149.541 476.86C148.634 477.793 147.521 478.26 146.201 478.26C144.894 478.26 143.794 477.793 142.901 476.86C141.981 475.913 141.521 474.707 141.521 473.24C141.521 471.747 141.974 470.533 142.881 469.6ZM143.781 476.14C144.434 476.833 145.241 477.18 146.201 477.18C147.161 477.18 147.974 476.833 148.641 476.14C149.334 475.407 149.681 474.44 149.681 473.24C149.681 472.053 149.334 471.08 148.641 470.32C148.001 469.64 147.187 469.3 146.201 469.3C145.214 469.3 144.407 469.64 143.781 470.32C143.087 471.08 142.741 472.053 142.741 473.24C142.741 474.44 143.087 475.407 143.781 476.14ZM160.718 468.46L156.958 478H155.698L151.898 468.46H153.258L156.338 476.64L159.438 468.46H160.718ZM162.891 477.4C162.344 476.92 162.071 476.3 162.071 475.54C162.071 473.993 163.031 473.053 164.951 472.72L167.491 472.34C168.157 472.22 168.491 471.907 168.491 471.4C168.491 470.747 168.277 470.227 167.851 469.84C167.437 469.44 166.851 469.24 166.091 469.24C165.331 469.24 164.711 469.44 164.231 469.84C163.764 470.24 163.497 470.787 163.431 471.48L162.271 471.22C162.364 470.34 162.771 469.607 163.491 469.02C164.184 468.473 165.044 468.2 166.071 468.2C167.257 468.2 168.171 468.52 168.811 469.16C169.397 469.787 169.691 470.573 169.691 471.52V476.36C169.691 476.92 169.731 477.467 169.811 478H168.651C168.571 477.707 168.531 477.16 168.531 476.36C168.251 476.893 167.857 477.313 167.351 477.62C166.737 478.033 166.024 478.24 165.211 478.24C164.264 478.24 163.491 477.96 162.891 477.4ZM163.311 475.48C163.311 475.947 163.491 476.353 163.851 476.7C164.211 477.047 164.711 477.22 165.351 477.22C166.271 477.22 167.024 476.94 167.611 476.38C168.197 475.82 168.491 475.06 168.491 474.1V472.96C168.424 473.027 168.257 473.093 167.991 473.16C167.644 473.267 167.391 473.327 167.231 473.34L165.111 473.66C163.911 473.833 163.311 474.44 163.311 475.48ZM174.531 465.44V468.46H177.011V469.56H174.531V475.3C174.531 476.447 175.071 477.02 176.151 477.02C176.511 477.02 176.798 476.973 177.011 476.88V477.92C176.771 478.04 176.378 478.1 175.831 478.1C175.045 478.1 174.431 477.873 173.991 477.42C173.551 476.953 173.331 476.287 173.331 475.42V469.56H171.311V468.46H172.031C172.965 468.46 173.431 467.993 173.431 467.06V465.44H174.531ZM180.127 465.48C179.861 465.48 179.627 465.387 179.427 465.2C179.241 465.013 179.147 464.787 179.147 464.52C179.147 464.24 179.241 464 179.427 463.8C179.627 463.6 179.861 463.5 180.127 463.5C180.407 463.5 180.641 463.6 180.827 463.8C181.027 464 181.127 464.24 181.127 464.52C181.127 464.787 181.027 465.013 180.827 465.2C180.641 465.387 180.407 465.48 180.127 465.48ZM180.727 478H179.547V468.46H180.727V478ZM184.638 469.6C185.532 468.667 186.638 468.2 187.958 468.2C189.278 468.2 190.392 468.667 191.298 469.6C192.205 470.547 192.658 471.76 192.658 473.24C192.658 474.72 192.205 475.927 191.298 476.86C190.392 477.793 189.278 478.26 187.958 478.26C186.652 478.26 185.552 477.793 184.658 476.86C183.738 475.913 183.278 474.707 183.278 473.24C183.278 471.747 183.732 470.533 184.638 469.6ZM185.538 476.14C186.192 476.833 186.998 477.18 187.958 477.18C188.918 477.18 189.732 476.833 190.398 476.14C191.092 475.407 191.438 474.44 191.438 473.24C191.438 472.053 191.092 471.08 190.398 470.32C189.758 469.64 188.945 469.3 187.958 469.3C186.972 469.3 186.165 469.64 185.538 470.32C184.845 471.08 184.498 472.053 184.498 473.24C184.498 474.44 184.845 475.407 185.538 476.14ZM196.411 472.3V478H195.211V468.46H196.371V470.08C196.985 468.84 198.018 468.22 199.471 468.22C200.551 468.22 201.398 468.567 202.011 469.26C202.571 469.9 202.851 470.74 202.851 471.78V478H201.651V471.98C201.651 471.18 201.445 470.547 201.031 470.08C200.578 469.56 199.925 469.3 199.071 469.3C198.285 469.3 197.638 469.6 197.131 470.2C196.651 470.76 196.411 471.46 196.411 472.3Z" fill="white"/>
<path d="M35.3237 40.96C34.457 41.8267 33.2837 42.26 31.8037 42.26C30.3237 42.26 29.157 41.8333 28.3037 40.98C27.397 40.1133 26.9437 38.88 26.9437 37.28V27.82H28.2037V37.22C28.2037 38.4867 28.5103 39.4533 29.1237 40.12C29.737 40.7733 30.6303 41.1 31.8037 41.1C32.977 41.1 33.8703 40.7733 34.4837 40.12C35.097 39.4533 35.4037 38.4867 35.4037 37.22V27.82H36.6637V37.28C36.6637 38.8667 36.217 40.0933 35.3237 40.96ZM39.1296 39.46L40.2296 39.08C40.3229 39.7333 40.5896 40.2533 41.0296 40.64C41.4829 41.0267 42.0896 41.22 42.8496 41.22C43.4763 41.22 43.9896 41.0667 44.3896 40.76C44.7896 40.44 44.9896 40.0267 44.9896 39.52C44.9896 38.6667 44.4496 38.1267 43.3696 37.9L41.7696 37.54C40.2363 37.18 39.4696 36.3333 39.4696 35C39.4696 34.2267 39.7896 33.5667 40.4296 33.02C41.0696 32.4733 41.8229 32.2 42.6896 32.2C43.6629 32.2 44.4763 32.48 45.1296 33.04C45.5963 33.4667 45.9163 34.0333 46.0896 34.74L45.0296 35.14C44.9363 34.62 44.7163 34.1867 44.3696 33.84C43.9163 33.44 43.3563 33.24 42.6896 33.24C42.1296 33.24 41.6563 33.3933 41.2696 33.7C40.8563 34.02 40.6496 34.4267 40.6496 34.92C40.6496 35.6933 41.1363 36.2 42.1096 36.44L43.6896 36.78C45.3429 37.1667 46.1696 38.0533 46.1696 39.44C46.1696 40.1867 45.8829 40.8333 45.3096 41.38C44.6829 41.9667 43.8563 42.26 42.8296 42.26C41.7096 42.26 40.8296 41.96 40.1896 41.36C39.6029 40.84 39.2496 40.2067 39.1296 39.46ZM55.7201 38.92L56.7801 39.3C56.5001 40.1533 56.0134 40.8467 55.3201 41.38C54.5601 41.9667 53.6534 42.26 52.6001 42.26C51.2801 42.26 50.1934 41.8133 49.3401 40.92C48.4201 40 47.9601 38.76 47.9601 37.2C47.9601 35.76 48.4001 34.5533 49.2801 33.58C50.1201 32.66 51.1534 32.2 52.3801 32.2C53.7401 32.2 54.8334 32.6533 55.6601 33.56C56.4467 34.4533 56.8401 35.6067 56.8401 37.02C56.8401 37.1 56.8267 37.2467 56.8001 37.46H49.2001V37.54C49.2001 38.62 49.5334 39.5067 50.2001 40.2C50.8401 40.8667 51.6401 41.2 52.6001 41.2C53.3867 41.2 54.0734 40.9733 54.6601 40.52C55.1267 40.1467 55.4801 39.6133 55.7201 38.92ZM49.2401 36.46H55.5801C55.5534 35.5533 55.2667 34.8 54.7201 34.2C54.1334 33.5867 53.3601 33.28 52.4001 33.28C51.5467 33.28 50.8134 33.5867 50.2001 34.2C49.6267 34.8 49.3067 35.5533 49.2401 36.46ZM64.2451 32.44V33.7C64.0451 33.6333 63.7651 33.6 63.4051 33.6C62.5517 33.6 61.8651 33.8733 61.3451 34.42C60.8384 34.9533 60.5851 35.7533 60.5851 36.82V42H59.3851V32.46H60.5451V34.24C61.1317 32.9733 62.1184 32.34 63.5051 32.34C63.8651 32.34 64.1117 32.3733 64.2451 32.44Z" fill="white"/>
<path d="M247.271 181H245.931L237.351 168.4V181H236.091V166.82H237.831L246.011 178.92V166.82H247.271V181ZM257.695 177.92L258.755 178.3C258.475 179.153 257.988 179.847 257.295 180.38C256.535 180.967 255.628 181.26 254.575 181.26C253.255 181.26 252.168 180.813 251.315 179.92C250.395 179 249.935 177.76 249.935 176.2C249.935 174.76 250.375 173.553 251.255 172.58C252.095 171.66 253.128 171.2 254.355 171.2C255.715 171.2 256.808 171.653 257.635 172.56C258.421 173.453 258.815 174.607 258.815 176.02C258.815 176.1 258.801 176.247 258.775 176.46H251.175V176.54C251.175 177.62 251.508 178.507 252.175 179.2C252.815 179.867 253.615 180.2 254.575 180.2C255.361 180.2 256.048 179.973 256.635 179.52C257.101 179.147 257.455 178.613 257.695 177.92ZM251.215 175.46H257.555C257.528 174.553 257.241 173.8 256.695 173.2C256.108 172.587 255.335 172.28 254.375 172.28C253.521 172.28 252.788 172.587 252.175 173.2C251.601 173.8 251.281 174.553 251.215 175.46ZM268.32 177.92L269.38 178.3C269.1 179.153 268.613 179.847 267.92 180.38C267.16 180.967 266.253 181.26 265.2 181.26C263.88 181.26 262.793 180.813 261.94 179.92C261.02 179 260.56 177.76 260.56 176.2C260.56 174.76 261 173.553 261.88 172.58C262.72 171.66 263.753 171.2 264.98 171.2C266.34 171.2 267.433 171.653 268.26 172.56C269.046 173.453 269.44 174.607 269.44 176.02C269.44 176.1 269.426 176.247 269.4 176.46H261.8V176.54C261.8 177.62 262.133 178.507 262.8 179.2C263.44 179.867 264.24 180.2 265.2 180.2C265.986 180.2 266.673 179.973 267.26 179.52C267.726 179.147 268.08 178.613 268.32 177.92ZM261.84 175.46H268.18C268.153 174.553 267.866 173.8 267.32 173.2C266.733 172.587 265.96 172.28 265 172.28C264.146 172.28 263.413 172.587 262.8 173.2C262.226 173.8 261.906 174.553 261.84 175.46ZM278.925 179.5V179.12C278.658 179.72 278.285 180.193 277.805 180.54C277.178 181.007 276.438 181.24 275.585 181.24C274.238 181.24 273.171 180.76 272.385 179.8C271.585 178.853 271.185 177.66 271.185 176.22C271.185 174.807 271.591 173.62 272.405 172.66C273.231 171.7 274.291 171.22 275.585 171.22C276.491 171.22 277.258 171.453 277.885 171.92C278.351 172.28 278.691 172.727 278.905 173.26V166.56H280.105V179.18C280.105 180.06 280.138 180.667 280.205 181H279.025C278.958 180.733 278.925 180.233 278.925 179.5ZM273.305 173.38C272.705 174.127 272.405 175.073 272.405 176.22C272.405 177.34 272.698 178.28 273.285 179.04C273.871 179.8 274.671 180.18 275.685 180.18C276.671 180.18 277.458 179.8 278.045 179.04C278.631 178.28 278.925 177.333 278.925 176.2C278.925 175.067 278.631 174.133 278.045 173.4C277.445 172.653 276.665 172.28 275.705 172.28C274.718 172.28 273.918 172.647 273.305 173.38Z" fill="white"/>
<path d="M237.494 413H236.214V398.82H237.494V413ZM247.895 411.5V411.12C247.629 411.72 247.255 412.193 246.775 412.54C246.149 413.007 245.409 413.24 244.555 413.24C243.209 413.24 242.142 412.76 241.355 411.8C240.555 410.853 240.155 409.66 240.155 408.22C240.155 406.807 240.562 405.62 241.375 404.66C242.202 403.7 243.262 403.22 244.555 403.22C245.462 403.22 246.229 403.453 246.855 403.92C247.322 404.28 247.662 404.727 247.875 405.26V398.56H249.075V411.18C249.075 412.06 249.109 412.667 249.175 413H247.995C247.929 412.733 247.895 412.233 247.895 411.5ZM242.275 405.38C241.675 406.127 241.375 407.073 241.375 408.22C241.375 409.34 241.669 410.28 242.255 411.04C242.842 411.8 243.642 412.18 244.655 412.18C245.642 412.18 246.429 411.8 247.015 411.04C247.602 410.28 247.895 409.333 247.895 408.2C247.895 407.067 247.602 406.133 247.015 405.4C246.415 404.653 245.635 404.28 244.675 404.28C243.689 404.28 242.889 404.647 242.275 405.38ZM259.4 409.92L260.46 410.3C260.18 411.153 259.693 411.847 259 412.38C258.24 412.967 257.333 413.26 256.28 413.26C254.96 413.26 253.873 412.813 253.02 411.92C252.1 411 251.64 409.76 251.64 408.2C251.64 406.76 252.08 405.553 252.96 404.58C253.8 403.66 254.833 403.2 256.06 403.2C257.42 403.2 258.513 403.653 259.34 404.56C260.126 405.453 260.52 406.607 260.52 408.02C260.52 408.1 260.506 408.247 260.48 408.46H252.88V408.54C252.88 409.62 253.213 410.507 253.88 411.2C254.52 411.867 255.32 412.2 256.28 412.2C257.066 412.2 257.753 411.973 258.34 411.52C258.806 411.147 259.16 410.613 259.4 409.92ZM252.92 407.46H259.26C259.233 406.553 258.946 405.8 258.4 405.2C257.813 404.587 257.04 404.28 256.08 404.28C255.226 404.28 254.493 404.587 253.88 405.2C253.306 405.8 252.986 406.553 252.92 407.46ZM263.225 412.4C262.678 411.92 262.405 411.3 262.405 410.54C262.405 408.993 263.365 408.053 265.285 407.72L267.825 407.34C268.491 407.22 268.825 406.907 268.825 406.4C268.825 405.747 268.611 405.227 268.185 404.84C267.771 404.44 267.185 404.24 266.425 404.24C265.665 404.24 265.045 404.44 264.565 404.84C264.098 405.24 263.831 405.787 263.765 406.48L262.605 406.22C262.698 405.34 263.105 404.607 263.825 404.02C264.518 403.473 265.378 403.2 266.405 403.2C267.591 403.2 268.505 403.52 269.145 404.16C269.731 404.787 270.025 405.573 270.025 406.52V411.36C270.025 411.92 270.065 412.467 270.145 413H268.985C268.905 412.707 268.865 412.16 268.865 411.36C268.585 411.893 268.191 412.313 267.685 412.62C267.071 413.033 266.358 413.24 265.545 413.24C264.598 413.24 263.825 412.96 263.225 412.4ZM263.645 410.48C263.645 410.947 263.825 411.353 264.185 411.7C264.545 412.047 265.045 412.22 265.685 412.22C266.605 412.22 267.358 411.94 267.945 411.38C268.531 410.82 268.825 410.06 268.825 409.1V407.96C268.758 408.027 268.591 408.093 268.325 408.16C267.978 408.267 267.725 408.327 267.565 408.34L265.445 408.66C264.245 408.833 263.645 409.44 263.645 410.48ZM274.865 400.44V403.46H277.345V404.56H274.865V410.3C274.865 411.447 275.405 412.02 276.485 412.02C276.845 412.02 277.132 411.973 277.345 411.88V412.92C277.105 413.04 276.712 413.1 276.165 413.1C275.379 413.1 274.765 412.873 274.325 412.42C273.885 411.953 273.665 411.287 273.665 410.42V404.56H271.645V403.46H272.365C273.299 403.46 273.765 402.993 273.765 402.06V400.44H274.865ZM280.461 400.48C280.195 400.48 279.961 400.387 279.761 400.2C279.575 400.013 279.481 399.787 279.481 399.52C279.481 399.24 279.575 399 279.761 398.8C279.961 398.6 280.195 398.5 280.461 398.5C280.741 398.5 280.975 398.6 281.161 398.8C281.361 399 281.461 399.24 281.461 399.52C281.461 399.787 281.361 400.013 281.161 400.2C280.975 400.387 280.741 400.48 280.461 400.48ZM281.061 413H279.881V403.46H281.061V413ZM284.972 404.6C285.866 403.667 286.972 403.2 288.292 403.2C289.612 403.2 290.726 403.667 291.632 404.6C292.539 405.547 292.992 406.76 292.992 408.24C292.992 409.72 292.539 410.927 291.632 411.86C290.726 412.793 289.612 413.26 288.292 413.26C286.986 413.26 285.886 412.793 284.992 411.86C284.072 410.913 283.612 409.707 283.612 408.24C283.612 406.747 284.066 405.533 284.972 404.6ZM285.872 411.14C286.526 411.833 287.332 412.18 288.292 412.18C289.252 412.18 290.066 411.833 290.732 411.14C291.426 410.407 291.772 409.44 291.772 408.24C291.772 407.053 291.426 406.08 290.732 405.32C290.092 404.64 289.279 404.3 288.292 404.3C287.306 404.3 286.499 404.64 285.872 405.32C285.179 406.08 284.832 407.053 284.832 408.24C284.832 409.44 285.179 410.407 285.872 411.14ZM296.745 407.3V413H295.545V403.46H296.705V405.08C297.319 403.84 298.352 403.22 299.805 403.22C300.885 403.22 301.732 403.567 302.345 404.26C302.905 404.9 303.185 405.74 303.185 406.78V413H301.985V406.98C301.985 406.18 301.779 405.547 301.365 405.08C300.912 404.56 300.259 404.3 299.405 404.3C298.619 404.3 297.972 404.6 297.465 405.2C296.985 405.76 296.745 406.46 296.745 407.3Z" fill="white"/>
<path d="M219 406L87 290.009L219 174.018L87 35" stroke="white" stroke-width="3"/>
<path d="M158 0L158 450" stroke="white" stroke-width="3" stroke-dasharray="8 8"/>
<path d="M145 437L158 450L171 437" stroke="white" stroke-width="3"/>
</svg>
