<svg width="332" height="518" viewBox="0 0 332 518" fill="none" xmlns="http://www.w3.org/2000/svg">
<path d="M12.06 140.96C11.1933 141.827 10.02 142.26 8.54 142.26C7.06 142.26 5.89333 141.833 5.04 140.98C4.13333 140.113 3.68 138.88 3.68 137.28V127.82H4.94V137.22C4.94 138.487 5.24667 139.453 5.86 140.12C6.47333 140.773 7.36667 141.1 8.54 141.1C9.71333 141.1 10.6067 140.773 11.22 140.12C11.8333 139.453 12.14 138.487 12.14 137.22V127.82H13.4V137.28C13.4 138.867 12.9533 140.093 12.06 140.96ZM17.9659 136.3V142H16.7659V132.46H17.9259V134.08C18.5393 132.84 19.5726 132.22 21.0259 132.22C22.1059 132.22 22.9526 132.567 23.5659 133.26C24.1259 133.9 24.4059 134.74 24.4059 135.78V142H23.2059V135.98C23.2059 135.18 22.9993 134.547 22.5859 134.08C22.1326 133.56 21.4793 133.3 20.6259 133.3C19.8393 133.3 19.1926 133.6 18.6859 134.2C18.2059 134.76 17.9659 135.46 17.9659 136.3ZM34.5067 140.5V140.12C34.2401 140.72 33.8667 141.193 33.3867 141.54C32.7601 142.007 32.0201 142.24 31.1667 142.24C29.8201 142.24 28.7534 141.76 27.9667 140.8C27.1667 139.853 26.7667 138.66 26.7667 137.22C26.7667 135.807 27.1734 134.62 27.9867 133.66C28.8134 132.7 29.8734 132.22 31.1667 132.22C32.0734 132.22 32.8401 132.453 33.4667 132.92C33.9334 133.28 34.2734 133.727 34.4867 134.26V127.56H35.6867V140.18C35.6867 141.06 35.7201 141.667 35.7867 142H34.6067C34.5401 141.733 34.5067 141.233 34.5067 140.5ZM28.8867 134.38C28.2867 135.127 27.9867 136.073 27.9867 137.22C27.9867 138.34 28.2801 139.28 28.8667 140.04C29.4534 140.8 30.2534 141.18 31.2667 141.18C32.2534 141.18 33.0401 140.8 33.6267 140.04C34.2134 139.28 34.5067 138.333 34.5067 137.2C34.5067 136.067 34.2134 135.133 33.6267 134.4C33.0267 133.653 32.2467 133.28 31.2867 133.28C30.3001 133.28 29.5001 133.647 28.8867 134.38ZM46.0111 138.92L47.0711 139.3C46.7911 140.153 46.3044 140.847 45.6111 141.38C44.8511 141.967 43.9444 142.26 42.8911 142.26C41.5711 142.26 40.4844 141.813 39.6311 140.92C38.7111 140 38.2511 138.76 38.2511 137.2C38.2511 135.76 38.6911 134.553 39.5711 133.58C40.4111 132.66 41.4444 132.2 42.6711 132.2C44.0311 132.2 45.1244 132.653 45.9511 133.56C46.7378 134.453 47.1311 135.607 47.1311 137.02C47.1311 137.1 47.1178 137.247 47.0911 137.46H39.4911V137.54C39.4911 138.62 39.8244 139.507 40.4911 140.2C41.1311 140.867 41.9311 141.2 42.8911 141.2C43.6778 141.2 44.3644 140.973 44.9511 140.52C45.4178 140.147 45.7711 139.613 46.0111 138.92ZM39.5311 136.46H45.8711C45.8444 135.553 45.5578 134.8 45.0111 134.2C44.4244 133.587 43.6511 133.28 42.6911 133.28C41.8378 133.28 41.1044 133.587 40.4911 134.2C39.9178 134.8 39.5978 135.553 39.5311 136.46ZM54.5361 132.44V133.7C54.3361 133.633 54.0561 133.6 53.6961 133.6C52.8428 133.6 52.1561 133.873 51.6361 134.42C51.1294 134.953 50.8761 135.753 50.8761 136.82V142H49.6761V132.46H50.8361V134.24C51.4228 132.973 52.4094 132.34 53.7961 132.34C54.1561 132.34 54.4028 132.373 54.5361 132.44ZM55.7097 139.46L56.8097 139.08C56.903 139.733 57.1697 140.253 57.6097 140.64C58.063 141.027 58.6697 141.22 59.4297 141.22C60.0564 141.22 60.5697 141.067 60.9697 140.76C61.3697 140.44 61.5697 140.027 61.5697 139.52C61.5697 138.667 61.0297 138.127 59.9497 137.9L58.3497 137.54C56.8164 137.18 56.0497 136.333 56.0497 135C56.0497 134.227 56.3697 133.567 57.0097 133.02C57.6497 132.473 58.403 132.2 59.2697 132.2C60.243 132.2 61.0564 132.48 61.7097 133.04C62.1764 133.467 62.4964 134.033 62.6697 134.74L61.6097 135.14C61.5164 134.62 61.2964 134.187 60.9497 133.84C60.4964 133.44 59.9364 133.24 59.2697 133.24C58.7097 133.24 58.2364 133.393 57.8497 133.7C57.4364 134.02 57.2297 134.427 57.2297 134.92C57.2297 135.693 57.7164 136.2 58.6897 136.44L60.2697 136.78C61.923 137.167 62.7497 138.053 62.7497 139.44C62.7497 140.187 62.463 140.833 61.8897 141.38C61.263 141.967 60.4364 142.26 59.4097 142.26C58.2897 142.26 57.4097 141.96 56.7697 141.36C56.183 140.84 55.8297 140.207 55.7097 139.46ZM67.1602 129.44V132.46H69.6402V133.56H67.1602V139.3C67.1602 140.447 67.7002 141.02 68.7802 141.02C69.1402 141.02 69.4268 140.973 69.6402 140.88V141.92C69.4002 142.04 69.0068 142.1 68.4602 142.1C67.6735 142.1 67.0602 141.873 66.6202 141.42C66.1802 140.953 65.9602 140.287 65.9602 139.42V133.56H63.9402V132.46H64.6602C65.5935 132.46 66.0602 131.993 66.0602 131.06V129.44H67.1602ZM72.3361 141.4C71.7894 140.92 71.5161 140.3 71.5161 139.54C71.5161 137.993 72.4761 137.053 74.3961 136.72L76.9361 136.34C77.6028 136.22 77.9361 135.907 77.9361 135.4C77.9361 134.747 77.7228 134.227 77.2961 133.84C76.8828 133.44 76.2961 133.24 75.5361 133.24C74.7761 133.24 74.1561 133.44 73.6761 133.84C73.2094 134.24 72.9428 134.787 72.8761 135.48L71.7161 135.22C71.8094 134.34 72.2161 133.607 72.9361 133.02C73.6294 132.473 74.4894 132.2 75.5161 132.2C76.7028 132.2 77.6161 132.52 78.2561 133.16C78.8428 133.787 79.1361 134.573 79.1361 135.52V140.36C79.1361 140.92 79.1761 141.467 79.2561 142H78.0961C78.0161 141.707 77.9761 141.16 77.9761 140.36C77.6961 140.893 77.3028 141.313 76.7961 141.62C76.1828 142.033 75.4694 142.24 74.6561 142.24C73.7094 142.24 72.9361 141.96 72.3361 141.4ZM72.7561 139.48C72.7561 139.947 72.9361 140.353 73.2961 140.7C73.6561 141.047 74.1561 141.22 74.7961 141.22C75.7161 141.22 76.4694 140.94 77.0561 140.38C77.6428 139.82 77.9361 139.06 77.9361 138.1V136.96C77.8694 137.027 77.7028 137.093 77.4361 137.16C77.0894 137.267 76.8361 137.327 76.6761 137.34L74.5561 137.66C73.3561 137.833 72.7561 138.44 72.7561 139.48ZM83.4542 136.3V142H82.2542V132.46H83.4142V134.08C84.0276 132.84 85.0609 132.22 86.5142 132.22C87.5942 132.22 88.4409 132.567 89.0542 133.26C89.6142 133.9 89.8942 134.74 89.8942 135.78V142H88.6942V135.98C88.6942 135.18 88.4876 134.547 88.0742 134.08C87.6209 133.56 86.9676 133.3 86.1142 133.3C85.3276 133.3 84.6809 133.6 84.1742 134.2C83.6942 134.76 83.4542 135.46 83.4542 136.3ZM99.995 140.5V140.12C99.7283 140.72 99.355 141.193 98.875 141.54C98.2483 142.007 97.5083 142.24 96.655 142.24C95.3083 142.24 94.2417 141.76 93.455 140.8C92.655 139.853 92.255 138.66 92.255 137.22C92.255 135.807 92.6617 134.62 93.475 133.66C94.3017 132.7 95.3617 132.22 96.655 132.22C97.5617 132.22 98.3283 132.453 98.955 132.92C99.4217 133.28 99.7617 133.727 99.975 134.26V127.56H101.175V140.18C101.175 141.06 101.208 141.667 101.275 142H100.095C100.028 141.733 99.995 141.233 99.995 140.5ZM94.375 134.38C93.775 135.127 93.475 136.073 93.475 137.22C93.475 138.34 93.7683 139.28 94.355 140.04C94.9417 140.8 95.7417 141.18 96.755 141.18C97.7417 141.18 98.5283 140.8 99.115 140.04C99.7017 139.28 99.995 138.333 99.995 137.2C99.995 136.067 99.7017 135.133 99.115 134.4C98.515 133.653 97.735 133.28 96.775 133.28C95.7883 133.28 94.9883 133.647 94.375 134.38Z" fill="white"/>
<path d="M177.16 142H175.88V127.82H177.16V142ZM187.561 140.5V140.12C187.295 140.72 186.921 141.193 186.441 141.54C185.815 142.007 185.075 142.24 184.221 142.24C182.875 142.24 181.808 141.76 181.021 140.8C180.221 139.853 179.821 138.66 179.821 137.22C179.821 135.807 180.228 134.62 181.041 133.66C181.868 132.7 182.928 132.22 184.221 132.22C185.128 132.22 185.895 132.453 186.521 132.92C186.988 133.28 187.328 133.727 187.541 134.26V127.56H188.741V140.18C188.741 141.06 188.775 141.667 188.841 142H187.661C187.595 141.733 187.561 141.233 187.561 140.5ZM181.941 134.38C181.341 135.127 181.041 136.073 181.041 137.22C181.041 138.34 181.335 139.28 181.921 140.04C182.508 140.8 183.308 141.18 184.321 141.18C185.308 141.18 186.095 140.8 186.681 140.04C187.268 139.28 187.561 138.333 187.561 137.2C187.561 136.067 187.268 135.133 186.681 134.4C186.081 133.653 185.301 133.28 184.341 133.28C183.355 133.28 182.555 133.647 181.941 134.38ZM199.066 138.92L200.126 139.3C199.846 140.153 199.359 140.847 198.666 141.38C197.906 141.967 196.999 142.26 195.946 142.26C194.626 142.26 193.539 141.813 192.686 140.92C191.766 140 191.306 138.76 191.306 137.2C191.306 135.76 191.746 134.553 192.626 133.58C193.466 132.66 194.499 132.2 195.726 132.2C197.086 132.2 198.179 132.653 199.006 133.56C199.792 134.453 200.186 135.607 200.186 137.02C200.186 137.1 200.172 137.247 200.146 137.46H192.546V137.54C192.546 138.62 192.879 139.507 193.546 140.2C194.186 140.867 194.986 141.2 195.946 141.2C196.732 141.2 197.419 140.973 198.006 140.52C198.472 140.147 198.826 139.613 199.066 138.92ZM192.586 136.46H198.926C198.899 135.553 198.612 134.8 198.066 134.2C197.479 133.587 196.706 133.28 195.746 133.28C194.892 133.28 194.159 133.587 193.546 134.2C192.972 134.8 192.652 135.553 192.586 136.46ZM202.891 141.4C202.344 140.92 202.071 140.3 202.071 139.54C202.071 137.993 203.031 137.053 204.951 136.72L207.491 136.34C208.157 136.22 208.491 135.907 208.491 135.4C208.491 134.747 208.277 134.227 207.851 133.84C207.437 133.44 206.851 133.24 206.091 133.24C205.331 133.24 204.711 133.44 204.231 133.84C203.764 134.24 203.497 134.787 203.431 135.48L202.271 135.22C202.364 134.34 202.771 133.607 203.491 133.02C204.184 132.473 205.044 132.2 206.071 132.2C207.257 132.2 208.171 132.52 208.811 133.16C209.397 133.787 209.691 134.573 209.691 135.52V140.36C209.691 140.92 209.731 141.467 209.811 142H208.651C208.571 141.707 208.531 141.16 208.531 140.36C208.251 140.893 207.857 141.313 207.351 141.62C206.737 142.033 206.024 142.24 205.211 142.24C204.264 142.24 203.491 141.96 202.891 141.4ZM203.311 139.48C203.311 139.947 203.491 140.353 203.851 140.7C204.211 141.047 204.711 141.22 205.351 141.22C206.271 141.22 207.024 140.94 207.611 140.38C208.197 139.82 208.491 139.06 208.491 138.1V136.96C208.424 137.027 208.257 137.093 207.991 137.16C207.644 137.267 207.391 137.327 207.231 137.34L205.111 137.66C203.911 137.833 203.311 138.44 203.311 139.48ZM214.531 129.44V132.46H217.011V133.56H214.531V139.3C214.531 140.447 215.071 141.02 216.151 141.02C216.511 141.02 216.798 140.973 217.011 140.88V141.92C216.771 142.04 216.378 142.1 215.831 142.1C215.045 142.1 214.431 141.873 213.991 141.42C213.551 140.953 213.331 140.287 213.331 139.42V133.56H211.311V132.46H212.031C212.965 132.46 213.431 131.993 213.431 131.06V129.44H214.531ZM226.41 138.92L227.47 139.3C227.19 140.153 226.703 140.847 226.01 141.38C225.25 141.967 224.343 142.26 223.29 142.26C221.97 142.26 220.883 141.813 220.03 140.92C219.11 140 218.65 138.76 218.65 137.2C218.65 135.76 219.09 134.553 219.97 133.58C220.81 132.66 221.843 132.2 223.07 132.2C224.43 132.2 225.523 132.653 226.35 133.56C227.136 134.453 227.53 135.607 227.53 137.02C227.53 137.1 227.516 137.247 227.49 137.46H219.89V137.54C219.89 138.62 220.223 139.507 220.89 140.2C221.53 140.867 222.33 141.2 223.29 141.2C224.076 141.2 224.763 140.973 225.35 140.52C225.816 140.147 226.17 139.613 226.41 138.92ZM219.93 136.46H226.27C226.243 135.553 225.956 134.8 225.41 134.2C224.823 133.587 224.05 133.28 223.09 133.28C222.236 133.28 221.503 133.587 220.89 134.2C220.316 134.8 219.996 135.553 219.93 136.46Z" fill="white"/>
<path d="M13.76 313.98H8.74V327H7.46V313.98H2.46V312.82H13.76V313.98ZM20.9525 323.92L22.0125 324.3C21.7325 325.153 21.2458 325.847 20.5525 326.38C19.7925 326.967 18.8858 327.26 17.8325 327.26C16.5125 327.26 15.4258 326.813 14.5725 325.92C13.6525 325 13.1925 323.76 13.1925 322.2C13.1925 320.76 13.6325 319.553 14.5125 318.58C15.3525 317.66 16.3858 317.2 17.6125 317.2C18.9725 317.2 20.0658 317.653 20.8925 318.56C21.6792 319.453 22.0725 320.607 22.0725 322.02C22.0725 322.1 22.0592 322.247 22.0325 322.46H14.4325V322.54C14.4325 323.62 14.7658 324.507 15.4325 325.2C16.0725 325.867 16.8725 326.2 17.8325 326.2C18.6192 326.2 19.3058 325.973 19.8925 325.52C20.3592 325.147 20.7125 324.613 20.9525 323.92ZM14.4725 321.46H20.8125C20.7858 320.553 20.4992 319.8 19.9525 319.2C19.3658 318.587 18.5925 318.28 17.6325 318.28C16.7792 318.28 16.0458 318.587 15.4325 319.2C14.8592 319.8 14.5392 320.553 14.4725 321.46ZM23.7175 324.46L24.8175 324.08C24.9108 324.733 25.1775 325.253 25.6175 325.64C26.0708 326.027 26.6775 326.22 27.4375 326.22C28.0642 326.22 28.5775 326.067 28.9775 325.76C29.3775 325.44 29.5775 325.027 29.5775 324.52C29.5775 323.667 29.0375 323.127 27.9575 322.9L26.3575 322.54C24.8242 322.18 24.0575 321.333 24.0575 320C24.0575 319.227 24.3775 318.567 25.0175 318.02C25.6575 317.473 26.4108 317.2 27.2775 317.2C28.2508 317.2 29.0642 317.48 29.7175 318.04C30.1842 318.467 30.5042 319.033 30.6775 319.74L29.6175 320.14C29.5242 319.62 29.3042 319.187 28.9575 318.84C28.5042 318.44 27.9442 318.24 27.2775 318.24C26.7175 318.24 26.2442 318.393 25.8575 318.7C25.4442 319.02 25.2375 319.427 25.2375 319.92C25.2375 320.693 25.7242 321.2 26.6975 321.44L28.2775 321.78C29.9308 322.167 30.7575 323.053 30.7575 324.44C30.7575 325.187 30.4708 325.833 29.8975 326.38C29.2708 326.967 28.4442 327.26 27.4175 327.26C26.2975 327.26 25.4175 326.96 24.7775 326.36C24.1908 325.84 23.8375 325.207 23.7175 324.46ZM35.168 314.44V317.46H37.648V318.56H35.168V324.3C35.168 325.447 35.708 326.02 36.788 326.02C37.148 326.02 37.4346 325.973 37.648 325.88V326.92C37.408 327.04 37.0146 327.1 36.468 327.1C35.6813 327.1 35.068 326.873 34.628 326.42C34.188 325.953 33.968 325.287 33.968 324.42V318.56H31.948V317.46H32.668C33.6013 317.46 34.068 316.993 34.068 316.06V314.44H35.168Z" fill="white"/>
<path d="M180.26 327H175.88V312.82H180.3C182.193 312.82 183.767 313.427 185.02 314.64C186.367 315.947 187.04 317.713 187.04 319.94C187.04 322.167 186.36 323.92 185 325.2C183.733 326.4 182.153 327 180.26 327ZM177.14 325.88H180.22C181.793 325.88 183.08 325.387 184.08 324.4C185.187 323.32 185.74 321.833 185.74 319.94C185.74 318.047 185.2 316.547 184.12 315.44C183.093 314.44 181.807 313.94 180.26 313.94H177.14V325.88ZM196.781 323.92L197.841 324.3C197.561 325.153 197.074 325.847 196.381 326.38C195.621 326.967 194.714 327.26 193.661 327.26C192.341 327.26 191.254 326.813 190.401 325.92C189.481 325 189.021 323.76 189.021 322.2C189.021 320.76 189.461 319.553 190.341 318.58C191.181 317.66 192.214 317.2 193.441 317.2C194.801 317.2 195.894 317.653 196.721 318.56C197.507 319.453 197.901 320.607 197.901 322.02C197.901 322.1 197.887 322.247 197.861 322.46H190.261V322.54C190.261 323.62 190.594 324.507 191.261 325.2C191.901 325.867 192.701 326.2 193.661 326.2C194.447 326.2 195.134 325.973 195.721 325.52C196.187 325.147 196.541 324.613 196.781 323.92ZM190.301 321.46H196.641C196.614 320.553 196.327 319.8 195.781 319.2C195.194 318.587 194.421 318.28 193.461 318.28C192.607 318.28 191.874 318.587 191.261 319.2C190.687 319.8 190.367 320.553 190.301 321.46ZM201.646 327H200.446V312.56H201.646V327ZM205.576 314.48C205.31 314.48 205.076 314.387 204.876 314.2C204.69 314.013 204.596 313.787 204.596 313.52C204.596 313.24 204.69 313 204.876 312.8C205.076 312.6 205.31 312.5 205.576 312.5C205.856 312.5 206.09 312.6 206.276 312.8C206.476 313 206.576 313.24 206.576 313.52C206.576 313.787 206.476 314.013 206.276 314.2C206.09 314.387 205.856 314.48 205.576 314.48ZM206.176 327H204.996V317.46H206.176V327ZM216.988 317.46L213.228 327H211.968L208.168 317.46H209.528L212.608 325.64L215.708 317.46H216.988ZM225.765 323.92L226.825 324.3C226.545 325.153 226.058 325.847 225.365 326.38C224.605 326.967 223.698 327.26 222.645 327.26C221.325 327.26 220.238 326.813 219.385 325.92C218.465 325 218.005 323.76 218.005 322.2C218.005 320.76 218.445 319.553 219.325 318.58C220.165 317.66 221.198 317.2 222.425 317.2C223.785 317.2 224.878 317.653 225.705 318.56C226.492 319.453 226.885 320.607 226.885 322.02C226.885 322.1 226.872 322.247 226.845 322.46H219.245V322.54C219.245 323.62 219.578 324.507 220.245 325.2C220.885 325.867 221.685 326.2 222.645 326.2C223.432 326.2 224.118 325.973 224.705 325.52C225.172 325.147 225.525 324.613 225.765 323.92ZM219.285 321.46H225.625C225.598 320.553 225.312 319.8 224.765 319.2C224.178 318.587 223.405 318.28 222.445 318.28C221.592 318.28 220.858 318.587 220.245 319.2C219.672 319.8 219.352 320.553 219.285 321.46ZM234.29 317.44V318.7C234.09 318.633 233.81 318.6 233.45 318.6C232.597 318.6 231.91 318.873 231.39 319.42C230.883 319.953 230.63 320.753 230.63 321.82V327H229.43V317.46H230.59V319.24C231.177 317.973 232.163 317.34 233.55 317.34C233.91 317.34 234.157 317.373 234.29 317.44Z" fill="white"/>
<path d="M12.24 513H3.88V498.82H12.24V499.98H5.14V505.32H11.62V506.48H5.14V511.84H12.24V513ZM22.3314 503.46L18.5714 513H17.3114L13.5114 503.46H14.8714L17.9514 511.64L21.0514 503.46H22.3314ZM24.7088 504.6C25.6021 503.667 26.7088 503.2 28.0288 503.2C29.3488 503.2 30.4621 503.667 31.3688 504.6C32.2754 505.547 32.7288 506.76 32.7288 508.24C32.7288 509.72 32.2754 510.927 31.3688 511.86C30.4621 512.793 29.3488 513.26 28.0288 513.26C26.7221 513.26 25.6221 512.793 24.7288 511.86C23.8088 510.913 23.3488 509.707 23.3488 508.24C23.3488 506.747 23.8021 505.533 24.7088 504.6ZM25.6088 511.14C26.2621 511.833 27.0688 512.18 28.0288 512.18C28.9888 512.18 29.8021 511.833 30.4688 511.14C31.1621 510.407 31.5088 509.44 31.5088 508.24C31.5088 507.053 31.1621 506.08 30.4688 505.32C29.8288 504.64 29.0154 504.3 28.0288 504.3C27.0421 504.3 26.2354 504.64 25.6088 505.32C24.9154 506.08 24.5688 507.053 24.5688 508.24C24.5688 509.44 24.9154 510.407 25.6088 511.14ZM36.4816 513H35.2816V498.56H36.4816V513ZM47.2923 503.46L43.5323 513H42.2723L38.4723 503.46H39.8323L42.9123 511.64L46.0123 503.46H47.2923ZM56.0697 509.92L57.1297 510.3C56.8497 511.153 56.363 511.847 55.6697 512.38C54.9097 512.967 54.003 513.26 52.9497 513.26C51.6297 513.26 50.543 512.813 49.6897 511.92C48.7697 511 48.3097 509.76 48.3097 508.2C48.3097 506.76 48.7497 505.553 49.6297 504.58C50.4697 503.66 51.503 503.2 52.7297 503.2C54.0897 503.2 55.183 503.653 56.0097 504.56C56.7964 505.453 57.1897 506.607 57.1897 508.02C57.1897 508.1 57.1764 508.247 57.1497 508.46H49.5497V508.54C49.5497 509.62 49.883 510.507 50.5497 511.2C51.1897 511.867 51.9897 512.2 52.9497 512.2C53.7364 512.2 54.423 511.973 55.0097 511.52C55.4764 511.147 55.8297 510.613 56.0697 509.92ZM49.5897 507.46H55.9297C55.903 506.553 55.6164 505.8 55.0697 505.2C54.483 504.587 53.7097 504.28 52.7497 504.28C51.8964 504.28 51.163 504.587 50.5497 505.2C49.9764 505.8 49.6564 506.553 49.5897 507.46Z" fill="white"/>
<path d="M183.54 513L180.12 506.88H177.16V513H175.88V498.82H180.84C182.067 498.82 183.087 499.207 183.9 499.98C184.673 500.713 185.06 501.673 185.06 502.86C185.06 503.9 184.74 504.773 184.1 505.48C183.433 506.213 182.567 506.647 181.5 506.78L185.02 513H183.54ZM177.16 505.72H180.62C181.567 505.72 182.327 505.46 182.9 504.94C183.473 504.42 183.76 503.727 183.76 502.86C183.76 501.98 183.473 501.28 182.9 500.76C182.327 500.227 181.567 499.96 180.62 499.96H177.16V505.72ZM194.242 509.92L195.302 510.3C195.022 511.153 194.535 511.847 193.842 512.38C193.082 512.967 192.175 513.26 191.122 513.26C189.802 513.26 188.715 512.813 187.862 511.92C186.942 511 186.482 509.76 186.482 508.2C186.482 506.76 186.922 505.553 187.802 504.58C188.642 503.66 189.675 503.2 190.902 503.2C192.262 503.2 193.355 503.653 194.182 504.56C194.968 505.453 195.362 506.607 195.362 508.02C195.362 508.1 195.348 508.247 195.322 508.46H187.722V508.54C187.722 509.62 188.055 510.507 188.722 511.2C189.362 511.867 190.162 512.2 191.122 512.2C191.908 512.2 192.595 511.973 193.182 511.52C193.648 511.147 194.002 510.613 194.242 509.92ZM187.762 507.46H194.102C194.075 506.553 193.788 505.8 193.242 505.2C192.655 504.587 191.882 504.28 190.922 504.28C190.068 504.28 189.335 504.587 188.722 505.2C188.148 505.8 187.828 506.553 187.762 507.46ZM199.087 516.8H197.907V503.46H199.087V505.36C199.38 504.76 199.78 504.28 200.287 503.92C200.927 503.467 201.68 503.24 202.547 503.24C203.853 503.24 204.913 503.713 205.727 504.66C206.487 505.633 206.867 506.82 206.867 508.22C206.867 509.673 206.48 510.867 205.707 511.8C204.893 512.76 203.827 513.24 202.507 513.24C201.64 513.24 200.9 513.02 200.287 512.58C199.753 512.207 199.353 511.747 199.087 511.2V516.8ZM204.747 511.04C205.347 510.293 205.647 509.353 205.647 508.22C205.647 507.073 205.347 506.14 204.747 505.42C204.133 504.673 203.333 504.3 202.347 504.3C201.36 504.3 200.567 504.673 199.967 505.42C199.367 506.167 199.067 507.1 199.067 508.22C199.067 509.38 199.367 510.32 199.967 511.04C200.553 511.8 201.347 512.18 202.347 512.18C203.333 512.18 204.133 511.8 204.747 511.04ZM216.37 509.92L217.43 510.3C217.15 511.153 216.664 511.847 215.97 512.38C215.21 512.967 214.304 513.26 213.25 513.26C211.93 513.26 210.844 512.813 209.99 511.92C209.07 511 208.61 509.76 208.61 508.2C208.61 506.76 209.05 505.553 209.93 504.58C210.77 503.66 211.804 503.2 213.03 503.2C214.39 503.2 215.484 503.653 216.31 504.56C217.097 505.453 217.49 506.607 217.49 508.02C217.49 508.1 217.477 508.247 217.45 508.46H209.85V508.54C209.85 509.62 210.184 510.507 210.85 511.2C211.49 511.867 212.29 512.2 213.25 512.2C214.037 512.2 214.724 511.973 215.31 511.52C215.777 511.147 216.13 510.613 216.37 509.92ZM209.89 507.46H216.23C216.204 506.553 215.917 505.8 215.37 505.2C214.784 504.587 214.01 504.28 213.05 504.28C212.197 504.28 211.464 504.587 210.85 505.2C210.277 505.8 209.957 506.553 209.89 507.46ZM220.195 512.4C219.649 511.92 219.375 511.3 219.375 510.54C219.375 508.993 220.335 508.053 222.255 507.72L224.795 507.34C225.462 507.22 225.795 506.907 225.795 506.4C225.795 505.747 225.582 505.227 225.155 504.84C224.742 504.44 224.155 504.24 223.395 504.24C222.635 504.24 222.015 504.44 221.535 504.84C221.069 505.24 220.802 505.787 220.735 506.48L219.575 506.22C219.669 505.34 220.075 504.607 220.795 504.02C221.489 503.473 222.349 503.2 223.375 503.2C224.562 503.2 225.475 503.52 226.115 504.16C226.702 504.787 226.995 505.573 226.995 506.52V511.36C226.995 511.92 227.035 512.467 227.115 513H225.955C225.875 512.707 225.835 512.16 225.835 511.36C225.555 511.893 225.162 512.313 224.655 512.62C224.042 513.033 223.329 513.24 222.515 513.24C221.569 513.24 220.795 512.96 220.195 512.4ZM220.615 510.48C220.615 510.947 220.795 511.353 221.155 511.7C221.515 512.047 222.015 512.22 222.655 512.22C223.575 512.22 224.329 511.94 224.915 511.38C225.502 510.82 225.795 510.06 225.795 509.1V507.96C225.729 508.027 225.562 508.093 225.295 508.16C224.949 508.267 224.695 508.327 224.535 508.34L222.415 508.66C221.215 508.833 220.615 509.44 220.615 510.48ZM231.836 500.44V503.46H234.316V504.56H231.836V510.3C231.836 511.447 232.376 512.02 233.456 512.02C233.816 512.02 234.103 511.973 234.316 511.88V512.92C234.076 513.04 233.683 513.1 233.136 513.1C232.349 513.1 231.736 512.873 231.296 512.42C230.856 511.953 230.636 511.287 230.636 510.42V504.56H228.616V503.46H229.336C230.269 503.46 230.736 502.993 230.736 502.06V500.44H231.836Z" fill="white"/>
<circle cx="44" cy="42" r="40.5" stroke="white" stroke-width="3"/>
<line x1="72.1173" y1="72.0226" x2="106.743" y2="106.648" stroke="white" stroke-width="3"/>
<rect x="176.121" y="53.552" width="61.4203" height="61.4203" transform="rotate(-45 176.121 53.552)" stroke="white" stroke-width="3"/>
<rect x="205.112" y="53.552" width="61.4203" height="61.4203" transform="rotate(-45 205.112 53.552)" fill="black" stroke="white" stroke-width="3"/>
<rect x="234.1" y="53.552" width="61.4203" height="61.4203" transform="rotate(-45 234.1 53.552)" fill="black" stroke="white" stroke-width="3"/>
<path d="M209.873 449.467L174.001 413.595L207.595 380" stroke="white" stroke-width="3"/>
<path d="M175.062 414.218H248.718C258.499 413.239 278.062 417.744 278.062 443.597C278.062 469.45 258.499 473.954 248.718 472.975" stroke="white" stroke-width="3"/>
<path d="M44 380H95V427" stroke="white" stroke-width="3"/>
<path d="M2 473C74.7636 398.655 93.6515 379.356 94 379" stroke="white" stroke-width="3"/>
<path d="M174 201L193.17 243.357L178.702 289L276 243.357L174 201Z" stroke="white" stroke-width="3"/>
<path d="M21.2072 263V264.5L21.747 261.6L21.2072 263ZM21 263V261.5H19.5V263H21ZM21 289H19.5V292.527L22.0405 290.08L21 289ZM45.9231 265V263.5H45.3183L44.8826 263.92L45.9231 265ZM3.5 231C3.5 215.26 16.2599 202.5 32 202.5V199.5C14.603 199.5 0.5 213.603 0.5 231H3.5ZM3.5 235V231H0.5V235H3.5ZM21.747 261.6C11.0703 257.482 3.5 247.123 3.5 235H0.5C0.5 248.405 8.87216 259.85 20.6674 264.4L21.747 261.6ZM21 264.5H21.2072V261.5H21V264.5ZM22.5 289V263H19.5V289H22.5ZM44.8826 263.92L19.9595 287.92L22.0405 290.08L46.9635 266.08L44.8826 263.92ZM75 263.5H45.9231V266.5H75V263.5ZM103.5 235C103.5 250.74 90.7401 263.5 75 263.5V266.5C92.397 266.5 106.5 252.397 106.5 235H103.5ZM103.5 231V235H106.5V231H103.5ZM75 202.5C90.7401 202.5 103.5 215.26 103.5 231H106.5C106.5 213.603 92.397 199.5 75 199.5V202.5ZM32 202.5H75V199.5H32V202.5Z" fill="white"/>
</svg>
