<svg width="804" height="522" viewBox="0 0 804 522" fill="none" xmlns="http://www.w3.org/2000/svg">
<path d="M19.09 225.263C17.79 226.563 16.03 227.213 13.81 227.213C11.59 227.213 9.84 226.573 8.56 225.293C7.2 223.993 6.52 222.143 6.52 219.743V205.553H8.41V219.653C8.41 221.553 8.87 223.003 9.79 224.003C10.71 224.983 12.05 225.473 13.81 225.473C15.57 225.473 16.91 224.983 17.83 224.003C18.75 223.003 19.21 221.553 19.21 219.653V205.553H21.1V219.743C21.1 222.123 20.43 223.963 19.09 225.263ZM27.9489 218.273V226.823H26.1489V212.513H27.8889V214.943C28.8089 213.083 30.3589 212.153 32.5389 212.153C34.1589 212.153 35.4289 212.673 36.3489 213.713C37.1889 214.673 37.6089 215.933 37.6089 217.493V226.823H35.8089V217.793C35.8089 216.593 35.4989 215.643 34.8789 214.943C34.1989 214.163 33.2189 213.773 31.9389 213.773C30.7589 213.773 29.7889 214.223 29.0289 215.123C28.3089 215.963 27.9489 217.013 27.9489 218.273ZM52.7601 224.573V224.003C52.3601 224.903 51.8001 225.613 51.0801 226.133C50.1401 226.833 49.0301 227.183 47.7501 227.183C45.7301 227.183 44.1301 226.463 42.9501 225.023C41.7501 223.603 41.1501 221.813 41.1501 219.653C41.1501 217.533 41.7601 215.753 42.9801 214.313C44.2201 212.873 45.8101 212.153 47.7501 212.153C49.1101 212.153 50.2601 212.503 51.2001 213.203C51.9001 213.743 52.4101 214.413 52.7301 215.213V205.163H54.5301V224.093C54.5301 225.413 54.5801 226.323 54.6801 226.823H52.9101C52.8101 226.423 52.7601 225.673 52.7601 224.573ZM44.3301 215.393C43.4301 216.513 42.9801 217.933 42.9801 219.653C42.9801 221.333 43.4201 222.743 44.3001 223.883C45.1801 225.023 46.3801 225.593 47.9001 225.593C49.3801 225.593 50.5601 225.023 51.4401 223.883C52.3201 222.743 52.7601 221.323 52.7601 219.623C52.7601 217.923 52.3201 216.523 51.4401 215.423C50.5401 214.303 49.3701 213.743 47.9301 213.743C46.4501 213.743 45.2501 214.293 44.3301 215.393ZM70.0166 222.203L71.6066 222.773C71.1866 224.053 70.4566 225.093 69.4166 225.893C68.2766 226.773 66.9166 227.213 65.3366 227.213C63.3566 227.213 61.7266 226.543 60.4466 225.203C59.0666 223.823 58.3766 221.963 58.3766 219.623C58.3766 217.463 59.0366 215.653 60.3566 214.193C61.6166 212.813 63.1666 212.123 65.0066 212.123C67.0466 212.123 68.6866 212.803 69.9266 214.163C71.1066 215.503 71.6966 217.233 71.6966 219.353C71.6966 219.473 71.6766 219.693 71.6366 220.013H60.2366V220.133C60.2366 221.753 60.7366 223.083 61.7366 224.123C62.6966 225.123 63.8966 225.623 65.3366 225.623C66.5166 225.623 67.5466 225.283 68.4266 224.603C69.1266 224.043 69.6566 223.243 70.0166 222.203ZM60.2966 218.513H69.8066C69.7666 217.153 69.3366 216.023 68.5166 215.123C67.6366 214.203 66.4766 213.743 65.0366 213.743C63.7566 213.743 62.6566 214.203 61.7366 215.123C60.8766 216.023 60.3966 217.153 60.2966 218.513ZM82.8041 212.483V214.373C82.5041 214.273 82.0841 214.223 81.5441 214.223C80.2641 214.223 79.2341 214.633 78.4541 215.453C77.6941 216.253 77.3141 217.453 77.3141 219.053V226.823H75.5141V212.513H77.2541V215.183C78.1341 213.283 79.6141 212.333 81.6941 212.333C82.2341 212.333 82.6041 212.383 82.8041 212.483ZM84.5645 223.013L86.2145 222.443C86.3545 223.423 86.7545 224.203 87.4145 224.783C88.0945 225.363 89.0045 225.653 90.1445 225.653C91.0845 225.653 91.8545 225.423 92.4545 224.963C93.0545 224.483 93.3545 223.863 93.3545 223.103C93.3545 221.823 92.5445 221.013 90.9245 220.673L88.5245 220.133C86.2245 219.593 85.0745 218.323 85.0745 216.323C85.0745 215.163 85.5545 214.173 86.5145 213.353C87.4745 212.533 88.6045 212.123 89.9045 212.123C91.3645 212.123 92.5845 212.543 93.5645 213.383C94.2645 214.023 94.7445 214.873 95.0045 215.933L93.4145 216.533C93.2745 215.753 92.9445 215.103 92.4245 214.583C91.7445 213.983 90.9045 213.683 89.9045 213.683C89.0645 213.683 88.3545 213.913 87.7745 214.373C87.1545 214.853 86.8445 215.463 86.8445 216.203C86.8445 217.363 87.5745 218.123 89.0345 218.483L91.4045 218.993C93.8845 219.573 95.1245 220.903 95.1245 222.983C95.1245 224.103 94.6945 225.073 93.8345 225.893C92.8945 226.773 91.6545 227.213 90.1145 227.213C88.4345 227.213 87.1145 226.763 86.1545 225.863C85.2745 225.083 84.7445 224.133 84.5645 223.013ZM101.74 207.983V212.513H105.46V214.163H101.74V222.773C101.74 224.493 102.55 225.353 104.17 225.353C104.71 225.353 105.14 225.283 105.46 225.143V226.703C105.1 226.883 104.51 226.973 103.69 226.973C102.51 226.973 101.59 226.633 100.93 225.953C100.27 225.253 99.9402 224.253 99.9402 222.953V214.163H96.9102V212.513H97.9902C99.3902 212.513 100.09 211.813 100.09 210.413V207.983H101.74ZM109.504 225.923C108.684 225.203 108.274 224.273 108.274 223.133C108.274 220.813 109.714 219.403 112.594 218.903L116.404 218.333C117.404 218.153 117.904 217.683 117.904 216.923C117.904 215.943 117.584 215.163 116.944 214.583C116.324 213.983 115.444 213.683 114.304 213.683C113.164 213.683 112.234 213.983 111.514 214.583C110.814 215.183 110.414 216.003 110.314 217.043L108.574 216.653C108.714 215.333 109.324 214.233 110.404 213.353C111.444 212.533 112.734 212.123 114.274 212.123C116.054 212.123 117.424 212.603 118.384 213.563C119.264 214.503 119.704 215.683 119.704 217.103V224.363C119.704 225.203 119.764 226.023 119.884 226.823H118.144C118.024 226.383 117.964 225.563 117.964 224.363C117.544 225.163 116.954 225.793 116.194 226.253C115.274 226.873 114.204 227.183 112.984 227.183C111.564 227.183 110.404 226.763 109.504 225.923ZM110.134 223.043C110.134 223.743 110.404 224.353 110.944 224.873C111.484 225.393 112.234 225.653 113.194 225.653C114.574 225.653 115.704 225.233 116.584 224.393C117.464 223.553 117.904 222.413 117.904 220.973V219.263C117.804 219.363 117.554 219.463 117.154 219.563C116.634 219.723 116.254 219.813 116.014 219.833L112.834 220.313C111.034 220.573 110.134 221.483 110.134 223.043ZM126.181 218.273V226.823H124.381V212.513H126.121V214.943C127.041 213.083 128.591 212.153 130.771 212.153C132.391 212.153 133.661 212.673 134.581 213.713C135.421 214.673 135.841 215.933 135.841 217.493V226.823H134.041V217.793C134.041 216.593 133.731 215.643 133.111 214.943C132.431 214.163 131.451 213.773 130.171 213.773C128.991 213.773 128.021 214.223 127.261 215.123C126.541 215.963 126.181 217.013 126.181 218.273ZM150.993 224.573V224.003C150.593 224.903 150.033 225.613 149.313 226.133C148.373 226.833 147.263 227.183 145.982 227.183C143.963 227.183 142.363 226.463 141.183 225.023C139.983 223.603 139.383 221.813 139.383 219.653C139.383 217.533 139.993 215.753 141.213 214.313C142.453 212.873 144.043 212.153 145.982 212.153C147.343 212.153 148.493 212.503 149.433 213.203C150.133 213.743 150.643 214.413 150.963 215.213V205.163H152.763V224.093C152.763 225.413 152.813 226.323 152.913 226.823H151.143C151.043 226.423 150.993 225.673 150.993 224.573ZM142.563 215.393C141.663 216.513 141.213 217.933 141.213 219.653C141.213 221.333 141.653 222.743 142.533 223.883C143.413 225.023 144.613 225.593 146.133 225.593C147.613 225.593 148.793 225.023 149.673 223.883C150.553 222.743 150.993 221.323 150.993 219.623C150.993 217.923 150.553 216.523 149.673 215.423C148.773 214.303 147.603 213.743 146.163 213.743C144.683 213.743 143.483 214.293 142.563 215.393Z" fill="white"/>
<path d="M279.283 226.823H277.363V205.553H279.283V226.823ZM294.885 224.573V224.003C294.485 224.903 293.925 225.613 293.205 226.133C292.265 226.833 291.155 227.183 289.875 227.183C287.855 227.183 286.255 226.463 285.075 225.023C283.875 223.603 283.275 221.813 283.275 219.653C283.275 217.533 283.885 215.753 285.105 214.313C286.345 212.873 287.935 212.153 289.875 212.153C291.235 212.153 292.385 212.503 293.325 213.203C294.025 213.743 294.535 214.413 294.855 215.213V205.163H296.655V224.093C296.655 225.413 296.705 226.323 296.805 226.823H295.035C294.935 226.423 294.885 225.673 294.885 224.573ZM286.455 215.393C285.555 216.513 285.105 217.933 285.105 219.653C285.105 221.333 285.545 222.743 286.425 223.883C287.305 225.023 288.505 225.593 290.025 225.593C291.505 225.593 292.685 225.023 293.565 223.883C294.445 222.743 294.885 221.323 294.885 219.623C294.885 217.923 294.445 216.523 293.565 215.423C292.665 214.303 291.495 213.743 290.055 213.743C288.575 213.743 287.375 214.293 286.455 215.393ZM312.141 222.203L313.731 222.773C313.311 224.053 312.581 225.093 311.541 225.893C310.401 226.773 309.041 227.213 307.461 227.213C305.481 227.213 303.851 226.543 302.571 225.203C301.191 223.823 300.501 221.963 300.501 219.623C300.501 217.463 301.161 215.653 302.481 214.193C303.741 212.813 305.291 212.123 307.131 212.123C309.171 212.123 310.811 212.803 312.051 214.163C313.231 215.503 313.821 217.233 313.821 219.353C313.821 219.473 313.801 219.693 313.761 220.013H302.361V220.133C302.361 221.753 302.861 223.083 303.861 224.123C304.821 225.123 306.021 225.623 307.461 225.623C308.641 225.623 309.671 225.283 310.551 224.603C311.251 224.043 311.781 223.243 312.141 222.203ZM302.421 218.513H311.931C311.891 217.153 311.461 216.023 310.641 215.123C309.761 214.203 308.601 213.743 307.161 213.743C305.881 213.743 304.781 214.203 303.861 215.123C303.001 216.023 302.521 217.153 302.421 218.513ZM317.879 225.923C317.059 225.203 316.649 224.273 316.649 223.133C316.649 220.813 318.089 219.403 320.969 218.903L324.779 218.333C325.779 218.153 326.279 217.683 326.279 216.923C326.279 215.943 325.959 215.163 325.319 214.583C324.699 213.983 323.819 213.683 322.679 213.683C321.539 213.683 320.609 213.983 319.889 214.583C319.189 215.183 318.789 216.003 318.689 217.043L316.949 216.653C317.089 215.333 317.699 214.233 318.779 213.353C319.819 212.533 321.109 212.123 322.649 212.123C324.429 212.123 325.799 212.603 326.759 213.563C327.639 214.503 328.079 215.683 328.079 217.103V224.363C328.079 225.203 328.139 226.023 328.259 226.823H326.519C326.399 226.383 326.339 225.563 326.339 224.363C325.919 225.163 325.329 225.793 324.569 226.253C323.649 226.873 322.579 227.183 321.359 227.183C319.939 227.183 318.779 226.763 317.879 225.923ZM318.509 223.043C318.509 223.743 318.779 224.353 319.319 224.873C319.859 225.393 320.609 225.653 321.569 225.653C322.949 225.653 324.079 225.233 324.959 224.393C325.839 223.553 326.279 222.413 326.279 220.973V219.263C326.179 219.363 325.929 219.463 325.529 219.563C325.009 219.723 324.629 219.813 324.389 219.833L321.209 220.313C319.409 220.573 318.509 221.483 318.509 223.043ZM335.34 207.983V212.513H339.06V214.163H335.34V222.773C335.34 224.493 336.15 225.353 337.77 225.353C338.31 225.353 338.74 225.283 339.06 225.143V226.703C338.7 226.883 338.11 226.973 337.29 226.973C336.11 226.973 335.19 226.633 334.53 225.953C333.87 225.253 333.54 224.253 333.54 222.953V214.163H330.51V212.513H331.59C332.99 212.513 333.69 211.813 333.69 210.413V207.983H335.34ZM353.157 222.203L354.747 222.773C354.327 224.053 353.597 225.093 352.557 225.893C351.417 226.773 350.057 227.213 348.477 227.213C346.497 227.213 344.867 226.543 343.587 225.203C342.207 223.823 341.517 221.963 341.517 219.623C341.517 217.463 342.177 215.653 343.497 214.193C344.757 212.813 346.307 212.123 348.147 212.123C350.187 212.123 351.827 212.803 353.067 214.163C354.247 215.503 354.837 217.233 354.837 219.353C354.837 219.473 354.817 219.693 354.777 220.013H343.377V220.133C343.377 221.753 343.877 223.083 344.877 224.123C345.837 225.123 347.037 225.623 348.477 225.623C349.657 225.623 350.687 225.283 351.567 224.603C352.267 224.043 352.797 223.243 353.157 222.203ZM343.437 218.513H352.947C352.907 217.153 352.477 216.023 351.657 215.123C350.777 214.203 349.617 213.743 348.177 213.743C346.897 213.743 345.797 214.203 344.877 215.123C344.017 216.023 343.537 217.153 343.437 218.513Z" fill="white"/>
<path d="M619.64 207.293H612.11V226.823H610.19V207.293H602.69V205.553H619.64V207.293ZM630.429 222.203L632.019 222.773C631.599 224.053 630.869 225.093 629.829 225.893C628.689 226.773 627.329 227.213 625.749 227.213C623.769 227.213 622.139 226.543 620.859 225.203C619.479 223.823 618.789 221.963 618.789 219.623C618.789 217.463 619.449 215.653 620.769 214.193C622.029 212.813 623.579 212.123 625.419 212.123C627.459 212.123 629.099 212.803 630.339 214.163C631.519 215.503 632.109 217.233 632.109 219.353C632.109 219.473 632.089 219.693 632.049 220.013H620.649V220.133C620.649 221.753 621.149 223.083 622.149 224.123C623.109 225.123 624.309 225.623 625.749 225.623C626.929 225.623 627.959 225.283 628.839 224.603C629.539 224.043 630.069 223.243 630.429 222.203ZM620.709 218.513H630.219C630.179 217.153 629.749 216.023 628.929 215.123C628.049 214.203 626.889 213.743 625.449 213.743C624.169 213.743 623.069 214.203 622.149 215.123C621.289 216.023 620.809 217.153 620.709 218.513ZM634.576 223.013L636.226 222.443C636.366 223.423 636.766 224.203 637.426 224.783C638.106 225.363 639.016 225.653 640.156 225.653C641.096 225.653 641.866 225.423 642.466 224.963C643.066 224.483 643.366 223.863 643.366 223.103C643.366 221.823 642.556 221.013 640.936 220.673L638.536 220.133C636.236 219.593 635.086 218.323 635.086 216.323C635.086 215.163 635.566 214.173 636.526 213.353C637.486 212.533 638.616 212.123 639.916 212.123C641.376 212.123 642.596 212.543 643.576 213.383C644.276 214.023 644.756 214.873 645.016 215.933L643.426 216.533C643.286 215.753 642.956 215.103 642.436 214.583C641.756 213.983 640.916 213.683 639.916 213.683C639.076 213.683 638.366 213.913 637.786 214.373C637.166 214.853 636.856 215.463 636.856 216.203C636.856 217.363 637.586 218.123 639.046 218.483L641.416 218.993C643.896 219.573 645.136 220.903 645.136 222.983C645.136 224.103 644.706 225.073 643.846 225.893C642.906 226.773 641.666 227.213 640.126 227.213C638.446 227.213 637.126 226.763 636.166 225.863C635.286 225.083 634.756 224.133 634.576 223.013ZM651.752 207.983V212.513H655.472V214.163H651.752V222.773C651.752 224.493 652.562 225.353 654.182 225.353C654.722 225.353 655.152 225.283 655.472 225.143V226.703C655.112 226.883 654.522 226.973 653.702 226.973C652.522 226.973 651.602 226.633 650.942 225.953C650.282 225.253 649.952 224.253 649.952 222.953V214.163H646.922V212.513H648.002C649.402 212.513 650.102 211.813 650.102 210.413V207.983H651.752Z" fill="white"/>
<path d="M13.39 513.828H6.82V492.558H13.45C16.29 492.558 18.65 493.468 20.53 495.288C22.55 497.248 23.56 499.898 23.56 503.238C23.56 506.578 22.54 509.208 20.5 511.128C18.6 512.928 16.23 513.828 13.39 513.828ZM8.71 512.148H13.33C15.69 512.148 17.62 511.408 19.12 509.928C20.78 508.308 21.61 506.078 21.61 503.238C21.61 500.398 20.8 498.148 19.18 496.488C17.64 494.988 15.71 494.238 13.39 494.238H8.71V512.148ZM38.1709 509.208L39.7609 509.778C39.3409 511.058 38.6109 512.098 37.5709 512.898C36.4309 513.778 35.0709 514.218 33.4909 514.218C31.5109 514.218 29.8809 513.548 28.6009 512.208C27.2209 510.828 26.5309 508.968 26.5309 506.628C26.5309 504.468 27.1909 502.658 28.5109 501.198C29.7709 499.818 31.3209 499.128 33.1609 499.128C35.2009 499.128 36.8409 499.808 38.0809 501.168C39.2609 502.508 39.8509 504.238 39.8509 506.358C39.8509 506.478 39.8309 506.698 39.7909 507.018H28.3909V507.138C28.3909 508.758 28.8909 510.088 29.8909 511.128C30.8509 512.128 32.0509 512.628 33.4909 512.628C34.6709 512.628 35.7009 512.288 36.5809 511.608C37.2809 511.048 37.8109 510.248 38.1709 509.208ZM28.4509 505.518H37.9609C37.9209 504.158 37.4909 503.028 36.6709 502.128C35.7909 501.208 34.6309 500.748 33.1909 500.748C31.9109 500.748 30.8109 501.208 29.8909 502.128C29.0309 503.028 28.5509 504.158 28.4509 505.518ZM45.4684 513.828H43.6684V492.168H45.4684V513.828ZM51.3646 495.048C50.9646 495.048 50.6146 494.908 50.3146 494.628C50.0346 494.348 49.8946 494.008 49.8946 493.608C49.8946 493.188 50.0346 492.828 50.3146 492.528C50.6146 492.228 50.9646 492.078 51.3646 492.078C51.7846 492.078 52.1346 492.228 52.4146 492.528C52.7146 492.828 52.8646 493.188 52.8646 493.608C52.8646 494.008 52.7146 494.348 52.4146 494.628C52.1346 494.908 51.7846 495.048 51.3646 495.048ZM52.2646 513.828H50.4946V499.518H52.2646V513.828ZM68.4815 499.518L62.8415 513.828H60.9515L55.2515 499.518H57.2915L61.9115 511.788L66.5615 499.518H68.4815ZM81.6475 509.208L83.2375 509.778C82.8175 511.058 82.0875 512.098 81.0475 512.898C79.9075 513.778 78.5475 514.218 76.9675 514.218C74.9875 514.218 73.3575 513.548 72.0775 512.208C70.6975 510.828 70.0075 508.968 70.0075 506.628C70.0075 504.468 70.6675 502.658 71.9875 501.198C73.2475 499.818 74.7975 499.128 76.6375 499.128C78.6775 499.128 80.3175 499.808 81.5575 501.168C82.7375 502.508 83.3275 504.238 83.3275 506.358C83.3275 506.478 83.3075 506.698 83.2675 507.018H71.8675V507.138C71.8675 508.758 72.3675 510.088 73.3675 511.128C74.3275 512.128 75.5275 512.628 76.9675 512.628C78.1475 512.628 79.1775 512.288 80.0575 511.608C80.7575 511.048 81.2875 510.248 81.6475 509.208ZM71.9275 505.518H81.4375C81.3975 504.158 80.9675 503.028 80.1475 502.128C79.2675 501.208 78.1075 500.748 76.6675 500.748C75.3875 500.748 74.2875 501.208 73.3675 502.128C72.5075 503.028 72.0275 504.158 71.9275 505.518ZM94.435 499.488V501.378C94.135 501.278 93.715 501.228 93.175 501.228C91.895 501.228 90.865 501.638 90.085 502.458C89.325 503.258 88.945 504.458 88.945 506.058V513.828H87.145V499.518H88.885V502.188C89.765 500.288 91.245 499.338 93.325 499.338C93.865 499.338 94.235 499.388 94.435 499.488Z" fill="white"/>
<path d="M287.756 513.828H275.216V492.558H287.756V494.298H277.106V502.308H286.826V504.048H277.106V512.088H287.756V513.828ZM302.893 499.518L297.253 513.828H295.363L289.663 499.518H291.703L296.323 511.788L300.973 499.518H302.893ZM306.459 501.228C307.799 499.828 309.459 499.128 311.439 499.128C313.419 499.128 315.089 499.828 316.449 501.228C317.809 502.648 318.489 504.468 318.489 506.688C318.489 508.908 317.809 510.718 316.449 512.118C315.089 513.518 313.419 514.218 311.439 514.218C309.479 514.218 307.829 513.518 306.489 512.118C305.109 510.698 304.419 508.888 304.419 506.688C304.419 504.448 305.099 502.628 306.459 501.228ZM307.809 511.038C308.789 512.078 309.999 512.598 311.439 512.598C312.879 512.598 314.099 512.078 315.099 511.038C316.139 509.938 316.659 508.488 316.659 506.688C316.659 504.908 316.139 503.448 315.099 502.308C314.139 501.288 312.919 500.778 311.439 500.778C309.959 500.778 308.749 501.288 307.809 502.308C306.769 503.448 306.249 504.908 306.249 506.688C306.249 508.488 306.769 509.938 307.809 511.038ZM324.118 513.828H322.318V492.168H324.118V513.828ZM340.334 499.518L334.694 513.828H332.804L327.104 499.518H329.144L333.764 511.788L338.414 499.518H340.334ZM353.5 509.208L355.09 509.778C354.67 511.058 353.94 512.098 352.9 512.898C351.76 513.778 350.4 514.218 348.82 514.218C346.84 514.218 345.21 513.548 343.93 512.208C342.55 510.828 341.86 508.968 341.86 506.628C341.86 504.468 342.52 502.658 343.84 501.198C345.1 499.818 346.65 499.128 348.49 499.128C350.53 499.128 352.17 499.808 353.41 501.168C354.59 502.508 355.18 504.238 355.18 506.358C355.18 506.478 355.16 506.698 355.12 507.018H343.72V507.138C343.72 508.758 344.22 510.088 345.22 511.128C346.18 512.128 347.38 512.628 348.82 512.628C350 512.628 351.03 512.288 351.91 511.608C352.61 511.048 353.14 510.248 353.5 509.208ZM343.78 505.518H353.29C353.25 504.158 352.82 503.028 352 502.128C351.12 501.208 349.96 500.748 348.52 500.748C347.24 500.748 346.14 501.208 345.22 502.128C344.36 503.028 343.88 504.158 343.78 505.518Z" fill="white"/>
<path d="M616.31 513.828L611.18 504.648H606.74V513.828H604.82V492.558H612.26C614.1 492.558 615.63 493.138 616.85 494.298C618.01 495.398 618.59 496.838 618.59 498.618C618.59 500.178 618.11 501.488 617.15 502.548C616.15 503.648 614.85 504.298 613.25 504.498L618.53 513.828H616.31ZM606.74 502.908H611.93C613.35 502.908 614.49 502.518 615.35 501.738C616.21 500.958 616.64 499.918 616.64 498.618C616.64 497.298 616.21 496.248 615.35 495.468C614.49 494.668 613.35 494.268 611.93 494.268H606.74V502.908ZM632.362 509.208L633.952 509.778C633.532 511.058 632.802 512.098 631.762 512.898C630.622 513.778 629.262 514.218 627.682 514.218C625.702 514.218 624.072 513.548 622.792 512.208C621.412 510.828 620.722 508.968 620.722 506.628C620.722 504.468 621.382 502.658 622.702 501.198C623.962 499.818 625.512 499.128 627.352 499.128C629.392 499.128 631.032 499.808 632.272 501.168C633.452 502.508 634.042 504.238 634.042 506.358C634.042 506.478 634.022 506.698 633.982 507.018H622.582V507.138C622.582 508.758 623.082 510.088 624.082 511.128C625.042 512.128 626.242 512.628 627.682 512.628C628.862 512.628 629.892 512.288 630.772 511.608C631.472 511.048 632.002 510.248 632.362 509.208ZM622.642 505.518H632.152C632.112 504.158 631.682 503.028 630.862 502.128C629.982 501.208 628.822 500.748 627.382 500.748C626.102 500.748 625.002 501.208 624.082 502.128C623.222 503.028 622.742 504.158 622.642 505.518ZM639.63 519.528H637.86V499.518H639.63V502.368C640.07 501.468 640.67 500.748 641.43 500.208C642.39 499.528 643.52 499.188 644.82 499.188C646.78 499.188 648.37 499.898 649.59 501.318C650.73 502.778 651.3 504.558 651.3 506.658C651.3 508.838 650.72 510.628 649.56 512.028C648.34 513.468 646.74 514.188 644.76 514.188C643.46 514.188 642.35 513.858 641.43 513.198C640.63 512.638 640.03 511.948 639.63 511.128V519.528ZM648.12 510.888C649.02 509.768 649.47 508.358 649.47 506.658C649.47 504.938 649.02 503.538 648.12 502.458C647.2 501.338 646 500.778 644.52 500.778C643.04 500.778 641.85 501.338 640.95 502.458C640.05 503.578 639.6 504.978 639.6 506.658C639.6 508.398 640.05 509.808 640.95 510.888C641.83 512.028 643.02 512.598 644.52 512.598C646 512.598 647.2 512.028 648.12 510.888ZM665.556 509.208L667.146 509.778C666.726 511.058 665.996 512.098 664.956 512.898C663.816 513.778 662.456 514.218 660.876 514.218C658.896 514.218 657.266 513.548 655.986 512.208C654.606 510.828 653.916 508.968 653.916 506.628C653.916 504.468 654.576 502.658 655.896 501.198C657.156 499.818 658.706 499.128 660.546 499.128C662.586 499.128 664.226 499.808 665.466 501.168C666.646 502.508 667.236 504.238 667.236 506.358C667.236 506.478 667.216 506.698 667.176 507.018H655.776V507.138C655.776 508.758 656.276 510.088 657.276 511.128C658.236 512.128 659.436 512.628 660.876 512.628C662.056 512.628 663.086 512.288 663.966 511.608C664.666 511.048 665.196 510.248 665.556 509.208ZM655.836 505.518H665.346C665.306 504.158 664.876 503.028 664.056 502.128C663.176 501.208 662.016 500.748 660.576 500.748C659.296 500.748 658.196 501.208 657.276 502.128C656.416 503.028 655.936 504.158 655.836 505.518ZM671.293 512.928C670.473 512.208 670.063 511.278 670.063 510.138C670.063 507.818 671.503 506.408 674.383 505.908L678.193 505.338C679.193 505.158 679.693 504.688 679.693 503.928C679.693 502.948 679.373 502.168 678.733 501.588C678.113 500.988 677.233 500.688 676.093 500.688C674.953 500.688 674.023 500.988 673.303 501.588C672.603 502.188 672.203 503.008 672.103 504.048L670.363 503.658C670.503 502.338 671.113 501.238 672.193 500.358C673.233 499.538 674.523 499.128 676.063 499.128C677.843 499.128 679.213 499.608 680.173 500.568C681.053 501.508 681.493 502.688 681.493 504.108V511.368C681.493 512.208 681.553 513.028 681.673 513.828H679.933C679.813 513.388 679.753 512.568 679.753 511.368C679.333 512.168 678.743 512.798 677.983 513.258C677.063 513.878 675.993 514.188 674.773 514.188C673.353 514.188 672.193 513.768 671.293 512.928ZM671.923 510.048C671.923 510.748 672.193 511.358 672.733 511.878C673.273 512.398 674.023 512.658 674.983 512.658C676.363 512.658 677.493 512.238 678.373 511.398C679.253 510.558 679.693 509.418 679.693 507.978V506.268C679.593 506.368 679.343 506.468 678.943 506.568C678.423 506.728 678.043 506.818 677.803 506.838L674.623 507.318C672.823 507.578 671.923 508.488 671.923 510.048ZM688.754 494.988V499.518H692.474V501.168H688.754V509.778C688.754 511.498 689.564 512.358 691.184 512.358C691.724 512.358 692.154 512.288 692.474 512.148V513.708C692.114 513.888 691.524 513.978 690.704 513.978C689.524 513.978 688.604 513.638 687.944 512.958C687.284 512.258 686.954 511.258 686.954 509.958V501.168H683.924V499.518H685.004C686.404 499.518 687.104 498.818 687.104 497.418V494.988H688.754Z" fill="white"/>
<circle cx="74.9543" cy="70.9543" r="68.9543" stroke="white" stroke-width="4"/>
<line x1="124.126" y1="124.12" x2="182.8" y2="182.794" stroke="white" stroke-width="4"/>
<path d="M327.59 92.2051L376.173 140.509L351.726 165.141L277.371 90.7868L351.727 16.4306L376.172 40.9936L327.589 89.3696L326.164 90.7879L327.59 92.2051Z" stroke="white" stroke-width="4"/>
<path d="M401.199 16.4165L425.664 40.5142L377.04 89.376L375.635 90.7878L377.041 92.1986L425.191 140.515L401.171 165.129L326.828 90.7868L401.199 16.4165Z" stroke="white" stroke-width="4"/>
<rect x="375.616" y="90.7868" width="105.16" height="105.16" transform="rotate(-45 375.616 90.7868)" stroke="white" stroke-width="4"/>
<path d="M346.929 294.81H432.892V375.316" stroke="white" stroke-width="4"/>
<path d="M662.84 403.919L602.054 343.134L658.981 286.207" stroke="white" stroke-width="4"/>
<path d="M275.609 452.728C399.717 327.541 431.933 295.045 432.527 294.446" stroke="white" stroke-width="4"/>
<path d="M4 307.091L36.5691 378.679L11.9886 455.822L177.292 378.679L4 307.091Z" stroke="white" stroke-width="4"/>
<path d="M604.5 343H718.102C745.904 343 770 364.94 770 396C770 424.965 749.611 449 711.924 449" stroke="white" stroke-width="4"/>
<path d="M635.092 126.405H637.092V124.405H635.092V126.405ZM635.092 168.022H633.092V172.85L636.506 169.436L635.092 168.022ZM676.709 126.405V124.405H675.881L675.295 124.99L676.709 126.405ZM604.344 48.6087C604.344 33.1447 616.88 20.6086 632.344 20.6086V16.6086C614.671 16.6086 600.344 30.9355 600.344 48.6087H604.344ZM604.344 96.4046V48.6087H600.344V96.4046H604.344ZM632.344 124.405C616.88 124.405 604.344 111.869 604.344 96.4046H600.344C600.344 114.078 614.671 128.405 632.344 128.405V124.405ZM635.092 124.405H632.344V128.405H635.092V124.405ZM637.092 168.022V126.405H633.092V168.022H637.092ZM675.295 124.99L633.678 166.608L636.506 169.436L678.124 127.819L675.295 124.99ZM747 124.405H676.709V128.405H747V124.405ZM775 96.4046C775 111.869 762.464 124.405 747 124.405V128.405C764.674 128.405 779 114.078 779 96.4046H775ZM775 48.6086V96.4046H779V48.6086H775ZM747 20.6086C762.464 20.6086 775 33.1447 775 48.6086H779C779 30.9355 764.674 16.6086 747 16.6086V20.6086ZM632.344 20.6086H747V16.6086H632.344V20.6086Z" fill="white"/>
</svg>
