<svg width="1928" height="99" viewBox="0 0 1928 99" fill="none" xmlns="http://www.w3.org/2000/svg">
<path fill-rule="evenodd" clip-rule="evenodd" d="M329.106 24.8597V34.7802C323.968 32.84 319.394 31.859 315.391 31.859C313.019 31.859 311.131 32.2983 309.711 33.1476C308.291 34.0041 307.566 35.0585 307.566 36.3031C307.566 37.9578 309.169 39.4293 312.397 40.7473L321.721 45.2866C329.26 48.8814 333 53.6549 333 59.6512C333 64.6371 331.017 68.6127 327.013 71.5559C323.039 74.5285 317.689 76 311.028 76C307.954 76 305.195 75.8683 302.743 75.59C300.292 75.3265 297.474 74.7846 294.348 74.0085V63.6268C300.079 65.567 305.298 66.548 309.996 66.548C315.603 66.548 318.391 64.9227 318.391 61.6427C318.391 60.01 317.25 58.6922 314.93 57.6598L304.573 53.2449C300.753 51.5171 297.913 49.4232 296.054 46.9412C294.224 44.4373 293.294 41.5673 293.294 38.2873C293.294 33.6966 295.227 29.9993 299.047 27.1878C302.897 24.3983 308.006 23 314.359 23C316.422 23 318.801 23.183 321.436 23.5198C324.093 23.8785 326.647 24.3178 329.106 24.8597V24.8597Z" fill="black"/>
<path fill-rule="evenodd" clip-rule="evenodd" d="M35.7899 24.8597V34.7802C30.6519 32.84 26.0849 31.859 22.0814 31.859C19.7027 31.859 17.8218 32.2983 16.4018 33.1476C14.982 34.0041 14.2574 35.0585 14.2574 36.3031C14.2574 37.9578 15.8822 39.4293 19.1099 40.7473L28.4343 45.2866C35.9436 48.8814 39.691 53.6549 39.691 59.6512C39.691 64.6371 37.7002 68.6127 33.726 71.5559C29.7225 74.5285 24.4016 76 17.7194 76C14.6453 76 11.8787 75.8683 9.42685 75.59C6.97499 75.3265 4.18642 74.7846 1.03937 74.0085V63.6268C6.79209 65.567 12.0106 66.548 16.68 66.548C22.2864 66.548 25.075 64.9227 25.075 61.6427C25.075 60.01 23.9405 58.6922 21.6423 57.6598L11.2859 53.2449C7.43606 51.5171 4.59628 49.4232 2.76662 46.9412C0.907517 44.4373 0 41.5673 0 38.2873C0 33.6966 1.91763 29.9993 5.76003 27.1878C9.58065 24.3983 14.6965 23 21.0495 23C23.1354 23 25.4848 23.183 28.1489 23.5198C30.7838 23.8785 33.3381 24.3178 35.7899 24.8597V24.8597Z" fill="black"/>
<path fill-rule="evenodd" clip-rule="evenodd" d="M46.4756 23.9297H61.6626V75.0701H46.4756V23.9297Z" fill="black"/>
<path fill-rule="evenodd" clip-rule="evenodd" d="M110.59 23.9297V33.3818H88.0256V44.7226H107.597V53.2448H88.0256V65.1496H111.051V75.0701H73.4097V23.9297H110.59Z" fill="black"/>
<path fill-rule="evenodd" clip-rule="evenodd" d="M181.489 23.9297V75.0701H167.312V41.3402L152.601 75.5387H143.848L129.7 41.3402V75.0701H119.446V23.9297H137.985L150.64 55.2363L163.88 23.9297H181.489Z" fill="black"/>
<path fill-rule="evenodd" clip-rule="evenodd" d="M230.395 23.9297V33.3818H207.954V44.7226H227.525V53.2448H207.954V65.1496H230.856V75.0701H193.215V23.9297H230.395Z" fill="black"/>
<path fill-rule="evenodd" clip-rule="evenodd" d="M283.684 23.9297V75.0701H267.576L249.498 42.2699V75.0701H239.251V23.9297H255.829L273.439 56.1662V23.9297H283.684Z" fill="black"/>
<path d="M515.918 29.3697C514.931 25.6797 512.03 22.7799 508.34 21.7921C501.659 20 474.855 20 474.855 20C474.855 20 448.051 20 441.37 21.7921C437.68 22.7799 434.78 25.6797 433.792 29.3697C432 36.0513 432 50 432 50C432 50 432 63.9488 433.792 70.6304C434.78 74.3204 437.68 77.2202 441.37 78.2078C448.051 80 474.855 80 474.855 80C474.855 80 501.659 80 508.34 78.2078C512.03 77.2202 514.931 74.3204 515.918 70.6304C517.71 63.9488 517.71 50 517.71 50C517.71 50 517.703 36.0513 515.918 29.3697Z" fill="black"/>
<path d="M466.276 62.8562L488.543 50.0012L466.276 37.146V62.8562Z" fill="white"/>
<path d="M535.733 59.0108L526.109 24.2554H534.505L537.878 40.0103C538.739 43.8908 539.367 47.1998 539.776 49.9374H540.023C540.305 47.9759 540.94 44.6881 541.921 40.0667L545.413 24.2554H553.809L544.066 59.0108V75.683H535.726V59.0108H535.733Z" fill="black"/>
<path d="M556.335 74.5811C554.642 73.4381 553.435 71.66 552.715 69.2471C552.003 66.8342 551.643 63.6311 551.643 59.6234V54.1694C551.643 50.1266 552.052 46.8742 552.871 44.4259C553.689 41.9776 554.966 40.1855 556.702 39.0637C558.437 37.9419 560.716 37.3774 563.539 37.3774C566.318 37.3774 568.541 37.9489 570.22 39.0919C571.892 40.2349 573.12 42.027 573.896 44.4541C574.672 46.8883 575.06 50.1266 575.06 54.1694V59.6234C575.06 63.6311 574.679 66.8483 573.924 69.2753C573.169 71.7095 571.942 73.4876 570.248 74.6093C568.555 75.7313 566.255 76.2956 563.355 76.2956C560.363 76.3025 558.028 75.7241 556.335 74.5811ZM565.832 68.6969C566.297 67.4693 566.537 65.4725 566.537 62.6927V50.9876C566.537 48.2923 566.304 46.3168 565.832 45.075C565.359 43.8262 564.533 43.2053 563.348 43.2053C562.205 43.2053 561.394 43.8262 560.928 45.075C560.455 46.3238 560.222 48.2923 560.222 50.9876V62.6927C560.222 65.4725 560.448 67.4762 560.9 68.6969C561.351 69.9245 562.163 70.5383 563.348 70.5383C564.533 70.5383 565.359 69.9245 565.832 68.6969Z" fill="black"/>
<path d="M602.372 75.6902H595.754L595.02 71.09H594.837C593.038 74.5613 590.342 76.2968 586.744 76.2968C584.254 76.2968 582.412 75.4784 581.227 73.8488C580.042 72.2117 579.449 69.6578 579.449 66.1865V38.1125H587.908V65.6924C587.908 67.3718 588.092 68.564 588.459 69.2768C588.826 69.9893 589.439 70.349 590.3 70.349C591.034 70.349 591.739 70.1234 592.417 69.6719C593.094 69.2201 593.588 68.6486 593.92 67.9574V38.1055H602.372V75.6902Z" fill="black"/>
<path d="M625.352 31.0627H616.956V75.6887H608.68V31.0627H600.284V24.2612H625.352V31.0627Z" fill="black"/>
<path d="M645.756 75.6902H639.138L638.405 71.09H638.221C636.422 74.5613 633.727 76.2968 630.128 76.2968C627.638 76.2968 625.796 75.4784 624.611 73.8488C623.426 72.2117 622.833 69.6578 622.833 66.1865V38.1125H631.293V65.6924C631.293 67.3718 631.476 68.564 631.843 69.2768C632.21 69.9893 632.824 70.349 633.685 70.349C634.418 70.349 635.124 70.1234 635.801 69.6719C636.479 69.2201 636.972 68.6486 637.304 67.9574V38.1055H645.756V75.6902Z" fill="black"/>
<path d="M673.753 44.1161C673.238 41.7455 672.412 40.031 671.27 38.9656C670.127 37.9002 668.553 37.371 666.549 37.371C664.997 37.371 663.544 37.8085 662.196 38.6904C660.848 39.5724 659.804 40.7224 659.07 42.1547H659.007V22.3569H650.858V75.6824H657.843L658.703 72.1265H658.887C659.543 73.3964 660.524 74.3912 661.829 75.1322C663.135 75.866 664.588 76.2329 666.183 76.2329C669.04 76.2329 671.15 74.9135 672.497 72.2816C673.845 69.6428 674.522 65.5295 674.522 59.9276V53.9798C674.522 49.7817 674.261 46.4868 673.753 44.1161ZM665.999 59.4476C665.999 62.1851 665.886 64.3301 665.66 65.8823C665.435 67.4345 665.06 68.5424 664.524 69.1913C663.995 69.8474 663.276 70.172 662.379 70.172C661.681 70.172 661.039 70.0097 660.446 69.6782C659.854 69.3536 659.374 68.8598 659.007 68.2106V46.8819C659.289 45.8588 659.783 45.0263 660.482 44.3701C661.173 43.7139 661.935 43.3894 662.746 43.3894C663.607 43.3894 664.27 43.728 664.736 44.3983C665.209 45.0756 665.533 46.2045 665.717 47.7991C665.9 49.3936 665.992 51.6584 665.992 54.6005V59.4476H665.999Z" fill="black"/>
<path d="M686.523 61.6136C686.523 64.0265 686.593 65.8328 686.735 67.0394C686.876 68.2457 687.172 69.1208 687.624 69.6782C688.075 70.2284 688.767 70.5035 689.705 70.5035C690.968 70.5035 691.843 70.0097 692.308 69.029C692.781 68.0483 693.035 66.4115 693.078 64.1255L700.373 64.5557C700.415 64.8803 700.436 65.3318 700.436 65.9033C700.436 69.3746 699.484 71.9711 697.586 73.6856C695.688 75.4001 693 76.2608 689.529 76.2608C685.359 76.2608 682.438 74.9555 680.766 72.338C679.086 69.7205 678.254 65.6777 678.254 60.2024V53.6408C678.254 48.0036 679.122 43.8832 680.857 41.2868C682.593 38.6903 685.563 37.3921 689.775 37.3921C692.675 37.3921 694.905 37.9213 696.457 38.9866C698.009 40.052 699.103 41.703 699.738 43.9537C700.373 46.2044 700.69 49.3088 700.69 53.2739V59.7086H686.523V61.6136ZM687.595 43.9043C687.165 44.4335 686.883 45.3013 686.735 46.5078C686.593 47.7143 686.523 49.5417 686.523 51.9971V54.6923H692.711V51.9971C692.711 49.584 692.626 47.7566 692.464 46.5078C692.301 45.259 692.005 44.3841 691.575 43.8691C691.144 43.3611 690.481 43.1 689.585 43.1C688.682 43.1071 688.019 43.3752 687.595 43.9043Z" fill="black"/>
<path fill-rule="evenodd" clip-rule="evenodd" d="M925.971 42.6564C925.971 48.5582 922.265 56.3123 919.587 61.4351C915.379 69.4965 909.688 74.3271 900.434 74.8968C892.254 75.4003 873.767 76.8094 877.005 63.132C878.41 57.2109 881.531 51.9941 883.447 46.2763C889.885 33.5296 906.088 31.0997 918.96 34.2852C923.317 35.8581 925.636 37.963 925.971 42.6563L925.971 42.6564ZM904.367 43.222C897.75 43.222 896.945 52.3863 895.702 57.3061C895.391 59.1654 893.292 65.3945 896.671 65.3945C904.626 66.982 905.366 58.3242 906.704 52.5548C907.196 50.4323 908.172 46.8712 907.73 44.6926C907.73 43.0722 905.453 43.3303 904.367 43.2221V43.222ZM858.822 43.6181C858.005 59.1389 847.019 57.9311 833.968 57.8718C829.009 57.8514 823.936 57.5324 819.034 57.5324C817.224 59.3533 822.462 64.8762 823.936 65.7904C828.966 68.8998 835.277 67.5648 839.327 63.5278C841.502 63.5278 864.852 60.4994 856.77 68.5054C852.858 71.9593 847.323 73.9993 842.291 75.1798C826.279 78.937 791.692 69.8035 803.358 47.4075C811.332 34.3844 828.604 27.2631 842.861 23.595C844.188 23.3315 845.5 23.1287 846.851 23.0293C856.994 22.2778 858.822 36.1684 858.822 43.6181L858.822 43.6181ZM843.944 42.3736C843.944 40.9698 844.002 39.4854 843.545 38.1314C841.979 31.8728 825.553 45.2376 823.594 47.1814C823.348 47.6729 823.534 47.5206 823.879 47.6905C829.33 47.6905 834.795 47.6339 840.239 47.6339C843.824 47.0467 843.944 45.9639 843.944 42.3736V42.3736ZM875.581 50.3489C874.345 52.8188 874.621 56.0589 872.103 57.9281C868.66 60.4842 859.988 60.4911 861.9 54.3083C863.709 48.4305 867.131 45.9306 873.357 47.4642C874.876 47.969 875.235 48.9673 875.581 50.3489L875.581 50.3489ZM984 42.7129C984 44.2952 983.665 45.9266 983.316 47.4642C981.258 56.4891 977.94 65.0753 974.993 73.7658C972.289 76.4486 966.669 74.9877 963.764 73.2567C962.311 71.8147 965.923 64.4575 966.5 62.6794C967.385 59.9487 972.222 49.8789 968.153 47.8603C966.844 47.8603 965.803 48.0303 964.505 48.3693C952.329 52.5993 943.686 64.8982 934.92 73.5961C931.121 75.4944 928.393 75.0086 924.66 73.1437C924.29 72.7762 924.469 72.1923 924.546 71.7295C927.37 60.023 931.838 48.4164 936.687 37.3961C937.45 35.1461 945.29 35.9798 947.233 36.9437C947.233 39.4357 946.969 43.6181 950.596 43.6181C958.732 42.7283 978.669 25.2035 983.715 40.2244C983.858 41.0725 984 41.8413 984 42.713L984 42.7129Z" fill="black"/>
<path d="M1111.78 24H1096.51C1085.68 24 1085.38 24.6783 1085.91 27.9077H1089.52C1092.9 27.9077 1093.65 28.3649 1093.65 31.2846V66.7638C1093.65 71.807 1092.18 72.3379 1084.17 72.7802C1083.94 73.7499 1083.94 74.7598 1084.17 75.7295H1112.45C1133.97 75.7295 1142.83 65.4072 1142.83 49.85C1142.85 33.7767 1133.44 24 1111.78 24ZM1461.34 24.9585C1475.77 24.9585 1483.75 31.786 1483.75 42.1083C1483.75 48.4344 1479.84 53.5513 1473.61 56.1761C1473.61 56.1761 1479.24 61.3667 1482.1 63.6966C1492.02 71.6743 1495.33 72.3526 1501.87 72.3526C1502.55 74.9922 1500.66 76.9534 1492.7 76.9681C1486.36 77.301 1480.16 75.0138 1475.55 70.642C1472.71 68.1669 1470.29 65.2428 1468.4 61.9861C1466.51 58.5945 1466.37 58.3733 1461.78 58.3733H1456.74V69.4329C1456.74 71.63 1457.41 72.3821 1461.32 72.3821H1465.16C1465.38 74.5498 1465.16 75.759 1462.97 75.759H1439.31C1439.12 74.785 1439.12 73.7837 1439.31 72.8097C1445.88 72.3526 1447.36 71.6005 1447.36 67.0145V32.2431C1447.36 29.3086 1446.3 28.8662 1443.21 28.8662H1439.6C1439.07 26.905 1439.6 25.4746 1442.68 25.2534C1445.6 25.0152 1449.11 24.9694 1455.89 24.9606L1461.34 24.9585ZM1267.9 25.4746L1286.78 61.6764L1304.16 25.4894H1321.98C1322.28 26.4486 1322.28 27.4793 1321.98 28.4386C1314.99 28.8957 1314.54 30.0902 1314.76 32.2726L1318.36 68.9757C1318.6 71.3794 1319.79 71.6005 1325.57 72.3821C1325.79 74.5498 1325.57 75.759 1323.46 75.759H1296.92C1296.62 74.7993 1296.62 73.7694 1296.92 72.8097L1300.99 72.5885C1307.3 72.2199 1308.37 71.3941 1307.98 67.7076L1304.61 34.9121L1286.59 72.854C1285.23 75.5673 1284.62 76.0096 1282.9 76.0096L1262.14 34.9416L1259.73 68.7103C1259.5 71.6448 1259.5 72.3968 1267.48 72.3968H1271.53C1272.05 74.5645 1271.75 75.7737 1269.64 75.7737H1244.97C1244.74 74.804 1244.74 73.7942 1244.97 72.8245C1253.25 72.3673 1253.92 70.8632 1254.15 67.7076L1257.23 32.3168C1257.46 29.8985 1256.93 29.0727 1249.56 28.8515C1249.1 27.1262 1249.56 25.4746 1252.72 25.4746H1267.9ZM1235.34 25.4893C1235.57 26.4591 1235.57 27.4689 1235.34 28.4386C1228.8 28.8957 1227.82 30.3261 1227.82 33.4818V69.1969C1227.82 71.8217 1228.58 72.3526 1231.73 72.3526L1235.88 72.3968C1236.39 74.5645 1236.17 75.7737 1233.91 75.7737H1211.06C1210.75 74.8143 1210.75 73.7839 1211.06 72.8245C1216.96 71.8365 1218.43 71.0844 1218.43 68.0025V32.0514C1218.43 29.3381 1217.75 28.8957 1214.29 28.8957H1210.68C1210.22 26.9492 1210.68 25.4746 1213.77 25.4893H1235.34ZM1363.5 25.4894C1363.73 26.4593 1363.73 27.4687 1363.5 28.4386C1355.57 28.8957 1354.09 29.574 1354.09 34.455V67.7076C1354.09 70.1849 1355.36 70.8632 1357.47 70.8632H1362.28C1367.85 70.8632 1368.6 70.4798 1371.76 63.7114L1373.87 59.0516C1376.05 58.9778 1377.18 59.8774 1376.34 62.2367C1374.74 66.6585 1373.44 71.1806 1372.44 75.7737H1335.78C1335.59 74.7997 1335.59 73.7984 1335.78 72.8245C1343.08 72.3968 1344.73 71.3794 1344.73 66.4984V32.0219C1344.73 29.3086 1343.74 28.8662 1340.58 28.8662H1336.94C1336.49 26.964 1336.94 25.4894 1340.1 25.4894H1363.5ZM1179.09 24.5309C1179.45 26.4739 1180.1 28.3496 1181.04 30.0902L1198.42 69.713C1199.25 71.6743 1200.07 72.3526 1203.91 72.3526L1205.65 72.3673C1206.09 74.535 1205.65 75.7442 1203.69 75.7442H1179.34C1179.11 74.7745 1179.11 73.7647 1179.34 72.795C1187.54 72.5738 1188.37 71.8955 1187.54 69.9342L1182.81 58.5797H1163.37L1160.29 66.7786C1158.56 71.2171 1158.56 72.3526 1162.69 72.3526H1169.15C1169.68 74.5203 1169.15 75.7295 1167.28 75.7295H1145.78C1145.55 74.7596 1145.55 73.7501 1145.78 72.7802C1151.56 72.0282 1152.24 71.5711 1154.27 66.7638L1169.15 31.5205C1171.63 25.74 1172.6 24.5309 1176.14 24.5309H1179.09ZM1424.68 25.5483C1424.9 28.9252 1425.34 32.4643 1425.87 35.6937C1426.23 38.0383 1425.33 39.3065 1422.92 39.0853L1421.95 35.6937C1420.68 31.1076 1419.09 29.8985 1414.96 29.8985H1402.93V49.2454H1410.83C1413.1 49.2454 1413.56 48.4933 1413.78 46.5321L1414.31 42.6981H1415.15C1416.66 42.6981 1417.48 43.229 1417.34 45.5589C1417.11 50.2334 1417.11 55.424 1417.34 60.305C1416.49 60.6415 1415.55 60.6415 1414.71 60.305C1413.75 54.436 1412.76 53.7577 1410.8 53.7577H1402.9V67.0292C1402.9 69.7278 1403.58 70.8632 1408.69 70.8632H1415.15C1420.73 70.8632 1421.48 70.4798 1424.63 63.7114L1426.74 59.0516C1428.93 58.9778 1429.97 59.9511 1429.22 62.1925C1427.63 66.6157 1426.32 71.1375 1425.31 75.7295H1383.8C1383.5 74.7698 1383.5 73.7399 1383.8 72.7802C1391.72 72.3379 1393.2 71.807 1393.2 66.7638V32.0809C1393.2 29.3676 1392.53 28.9252 1389.14 28.9252H1385.53C1385.22 27.023 1385.53 25.5483 1388.83 25.5483H1424.68ZM1110.8 28.4238C1125.3 28.4238 1132.76 36.8586 1132.76 51.2951C1132.76 67.5159 1124.56 71.6005 1111.7 71.6005C1104.65 71.6005 1103.06 70.8485 1103.06 66.2624V28.4238H1110.8ZM1172.85 34.9121L1165.02 54.4655H1181.04L1172.85 34.9121ZM1459.32 29.3381H1456.75V53.9642L1460.98 53.9611C1468.14 53.8885 1473.83 52.4445 1473.83 42.6096C1473.83 32.4938 1467.81 29.3381 1459.32 29.3381Z" fill="black"/>
<path d="M1692.28 36.1961C1695.61 36.1961 1698.36 33.6952 1698.36 30.598L1698.34 30.2005C1698.13 27.1876 1695.47 25 1692.28 25C1689.06 25 1686.31 27.3819 1686.31 30.598C1686.31 33.6952 1689.06 36.1961 1692.28 36.1961ZM1624.48 75.8737C1626.78 75.8937 1634.8 76.1639 1639.32 69.6796C1641.46 66.4638 1641.7 63.0099 1641.7 61.5806C1641.7 55.7445 1638.6 52.6474 1636.58 51.3375C1635.98 50.8617 1635.03 50.1465 1633.36 49.4328C1634.31 49.0745 1634.79 48.9555 1635.74 48.2419C1640.03 45.3826 1640.39 40.9755 1640.39 39.0709C1640.39 36.0927 1639.44 33.5918 1637.53 31.4478C1633.6 27.2801 1628.23 26.9218 1626.44 26.6839C1623.82 26.4459 1621.08 26.5649 1618.45 26.5649L1602 26.5649L1602 68.8637C1602.02 69.2531 1602.44 75.8727 1609.03 75.8727L1624.48 75.8737ZM1915.35 76.5708C1920.96 76.5708 1921.2 69.9013 1921.2 69.9013V49.1778H1928V40.96H1921.2V39.769C1921.2 38.2212 1921.2 37.7439 1921.79 36.9097C1922.63 35.362 1924.17 35.243 1925.73 35.243H1928V27.263L1923.4 27.2636C1920.53 27.2715 1917.77 27.3822 1915.11 28.9313C1910.95 31.6701 1910.82 36.434 1910.82 37.7439L1910.82 37.8241C1910.72 39.9518 1910.82 74.2112 1910.82 76.4554L1910.82 76.5708H1915.35ZM1818.58 77.7616C1819.76 77.7564 1823.56 77.6484 1826.18 75.3799C1826.89 74.7842 1827.61 74.0696 1828.43 72.4023C1828.19 73.9505 1828.19 76.4518 1828.19 76.5708H1838.46V27.263H1834.52C1828.12 27.263 1827.85 32.9607 1827.84 33.631L1827.84 43.8177C1827.61 43.4609 1827.24 42.8646 1826.53 42.1509C1825.22 41.1979 1822.6 39.769 1818.66 39.769C1811.38 39.769 1806.14 44.295 1803.88 50.9635C1802.69 54.4175 1802.56 57.7525 1802.56 59.0624C1802.56 69.4247 1807.7 74.4269 1811.75 76.4517C1814.48 77.7618 1817.34 77.7618 1818.42 77.7618L1818.58 77.7616ZM1626.8 45.1447C1625.25 45.8599 1622.75 45.7409 1618.93 45.7409H1612.97V35.8548L1621.42 35.8565C1623.85 35.8669 1625.33 35.9399 1626.56 36.451C1627.51 36.6889 1629.42 37.8799 1629.42 40.6186C1629.42 43.4779 1627.75 44.6689 1626.8 45.1447ZM1665.21 78C1669.15 78 1678.68 77.1663 1682.62 66.3282H1672.01C1671.05 67.6382 1669.5 69.663 1665.69 69.663C1664.38 69.663 1661.16 69.4247 1659.13 66.2091C1658.18 64.7799 1657.7 63.4697 1657.7 61.8028H1682.98C1683.1 61.4444 1683.1 60.9686 1683.1 60.6118C1683.1 57.9904 1682.62 55.729 1682.5 54.7759C1680.83 46.1996 1676.3 42.6267 1672.72 41.0789C1669.5 39.769 1666.52 39.6501 1665.33 39.6501C1657.34 39.6501 1653.05 43.6987 1651.14 46.1996C1647.33 51.203 1647.09 57.1578 1647.09 59.1814C1647.09 66.9236 1650.9 74.0696 1658.41 76.809C1659.61 77.2854 1661.99 77.881 1665.21 78ZM1720.77 78C1724.71 78 1734.24 77.1663 1738.06 66.3282H1727.45C1726.61 67.6382 1724.95 69.663 1721.13 69.663C1719.82 69.663 1716.72 69.4247 1714.57 66.2091C1713.74 64.7799 1713.26 63.4697 1713.14 61.8028H1738.42C1738.54 61.4444 1738.54 60.9686 1738.54 60.6118C1738.54 57.9904 1738.06 55.729 1737.94 54.7759C1736.39 46.1996 1731.74 42.6267 1728.16 41.0789C1725.06 39.769 1722.08 39.6501 1720.77 39.6501C1712.9 39.6501 1708.61 43.6987 1706.7 46.1996C1702.77 51.203 1702.53 57.1578 1702.53 59.1814C1702.53 66.9236 1706.34 74.0696 1713.98 76.809C1715.17 77.2854 1717.43 77.881 1720.77 78ZM1783.13 77.7618C1790.99 77.7618 1794.94 75.2608 1796.95 72.1641C1798.99 69.3056 1799.1 66.4473 1799.1 65.2563C1799.1 63.1124 1798.38 61.3255 1798.15 60.6118C1796.48 57.0389 1793.51 55.9669 1789.93 55.0138L1786.59 54.2986L1782.76 53.585C1780.98 53.1076 1779.19 52.7508 1778.71 52.394C1778.36 52.275 1777.28 51.6788 1777.28 50.4878C1777.28 49.4158 1778.12 47.9869 1780.38 47.3906C1780.62 47.3906 1781.33 47.2716 1782.29 47.2716C1785.4 47.2716 1787.18 48.4626 1787.9 49.7725C1788.26 50.3688 1788.5 50.8446 1788.61 51.5598L1798.27 51.5598C1798.27 50.2499 1798.03 47.63 1795.76 44.8897C1791.47 39.65 1784.08 39.7688 1782.41 39.7688C1774.9 39.7688 1771.21 42.3888 1769.18 45.367C1768.59 46.4391 1767.4 48.4626 1767.4 51.5598C1767.4 52.7507 1767.51 55.9668 1770.13 58.3488C1772.64 60.6118 1775.98 61.3254 1782.65 62.8742C1786.47 63.708 1788.74 64.0653 1788.74 66.5663C1788.74 69.0674 1785.88 69.7822 1785.51 69.9012C1784.56 70.1395 1783.73 70.1395 1783.37 70.1395C1779.9 70.1395 1777.89 68.8292 1777.04 67.6383C1776.33 66.5664 1776.22 65.3754 1776.22 65.0181H1766.32C1766.68 69.1865 1768.11 71.2113 1769.18 72.6405C1771.45 75.3799 1775.37 77.7618 1783.13 77.7618ZM1862.18 77.7618C1865.52 77.7618 1867.66 77.2854 1869.1 76.809C1876.85 74.1888 1881.25 66.5664 1881.25 58.5867C1881.25 53.2265 1879.23 47.5095 1874.94 43.9366L1874.41 43.5155C1869.75 39.9982 1864.49 39.8836 1862.53 39.769C1854.78 39.769 1850.38 43.1041 1848.1 45.3671C1846.32 47.5095 1843.34 51.9166 1843.34 58.8246C1843.34 66.5664 1847.15 73.7124 1854.54 76.5708C1857.89 77.7618 1860.86 77.7618 1862.18 77.7618ZM1896.04 76.5708V58.5867C1896.04 51.7977 1898.67 49.5347 1903.31 49.5347H1906.88V40.4826H1902.48C1892.09 40.4826 1886.16 46.7636 1885.91 57.6478L1885.91 58.3488V76.5708H1896.04ZM1752.96 76.5708V58.5867C1752.96 51.7977 1755.59 49.5347 1760.24 49.5347H1763.81V40.4826H1759.4C1749.01 40.4826 1743.08 46.7636 1742.84 57.6478L1742.83 58.3488V76.5708H1752.96ZM1697.52 76.5708V40.8411H1687.15V76.5708H1697.52ZM1657.58 54.5364C1657.7 54.2985 1657.82 53.466 1658.06 52.7508C1659.25 49.6536 1661.87 47.749 1665.21 47.749C1668.43 47.749 1671.29 49.6536 1672.01 52.8697C1672.25 53.5849 1672.25 54.1795 1672.25 54.4175L1657.58 54.5364ZM1713.14 54.5364C1713.14 54.2985 1713.38 53.466 1713.62 52.7508C1714.69 49.6536 1717.43 47.749 1720.77 47.749C1723.99 47.749 1726.85 49.6536 1727.57 52.8697C1727.81 53.5849 1727.81 54.1795 1727.81 54.4175L1713.14 54.5364ZM1862.29 69.4247C1858.37 69.4247 1853.82 66.9236 1853.82 58.8246L1853.83 58.1342C1854.08 50.2447 1858.48 48.1026 1862.29 47.9869C1867.66 47.9869 1869.44 51.6787 1870.05 53.5849C1870.76 55.6085 1870.76 57.8715 1870.76 58.4678C1870.76 64.4226 1868.49 67.2809 1866.11 68.591C1864.57 69.3057 1862.9 69.4247 1862.29 69.4247ZM1820.57 69.4247C1818.53 69.4247 1816.99 68.8292 1815.67 67.2809C1814.24 65.7327 1812.94 63.3506 1812.94 58.8246L1812.95 58.1445C1813.18 50.8116 1817.1 48.3402 1820.8 48.2248C1823.08 48.2248 1824.51 49.1778 1825.22 49.7725C1828.43 52.5129 1828.19 57.6336 1828.19 58.4678C1828.19 63.8271 1826.76 66.6855 1824.62 68.2337C1824.03 68.7101 1822.6 69.4247 1820.57 69.4247ZM1623.58 66.5828C1622.15 66.7018 1620.72 66.5828 1619.29 66.5828L1614.4 66.5827C1613.09 66.5827 1612.97 65.1535 1612.97 65.1535V54.5534L1620.77 54.5536C1623.1 54.5551 1624.98 54.5732 1625.97 54.7914C1627.4 55.0308 1630.38 56.4597 1630.38 60.5084C1630.38 61.2236 1630.38 62.7715 1629.18 64.32C1627.75 66.2255 1625.85 66.4638 1623.58 66.5828Z" fill="black"/>
</svg>
