<svg width="330" height="638" viewBox="0 0 330 638" fill="none" xmlns="http://www.w3.org/2000/svg">
<path d="M45.9616 351H44.9616L44.8416 348.26C44.5216 349.033 43.9816 349.68 43.2216 350.2C42.2616 350.907 41.0882 351.26 39.7016 351.26C37.9149 351.26 36.3882 350.627 35.1216 349.36C33.7216 347.987 33.0216 346.167 33.0216 343.9C33.0216 341.647 33.7282 339.827 35.1416 338.44C36.4349 337.187 38.0149 336.56 39.8816 336.56C41.3749 336.56 42.6816 336.953 43.8016 337.74C44.9082 338.54 45.6549 339.567 46.0416 340.82L44.9016 341.3C44.5416 340.18 43.9282 339.307 43.0616 338.68C42.1949 338.04 41.1349 337.72 39.8816 337.72C38.3482 337.72 37.0616 338.24 36.0216 339.28C34.8749 340.427 34.3016 341.967 34.3016 343.9C34.3016 345.847 34.8749 347.393 36.0216 348.54C37.0482 349.593 38.2882 350.12 39.7416 350.12C41.4082 350.12 42.7082 349.573 43.6416 348.48C44.3616 347.613 44.7349 346.62 44.7616 345.5H39.5216V344.34H45.9616V351ZM49.5759 342.6C50.4693 341.667 51.5759 341.2 52.8959 341.2C54.2159 341.2 55.3293 341.667 56.2359 342.6C57.1426 343.547 57.5959 344.76 57.5959 346.24C57.5959 347.72 57.1426 348.927 56.2359 349.86C55.3293 350.793 54.2159 351.26 52.8959 351.26C51.5893 351.26 50.4893 350.793 49.5959 349.86C48.6759 348.913 48.2159 347.707 48.2159 346.24C48.2159 344.747 48.6693 343.533 49.5759 342.6ZM50.4759 349.14C51.1293 349.833 51.9359 350.18 52.8959 350.18C53.8559 350.18 54.6693 349.833 55.3359 349.14C56.0293 348.407 56.3759 347.44 56.3759 346.24C56.3759 345.053 56.0293 344.08 55.3359 343.32C54.6959 342.64 53.8826 342.3 52.8959 342.3C51.9093 342.3 51.1026 342.64 50.4759 343.32C49.7826 344.08 49.4359 345.053 49.4359 346.24C49.4359 347.44 49.7826 348.407 50.4759 349.14ZM60.2111 350.4C59.6644 349.92 59.3911 349.3 59.3911 348.54C59.3911 346.993 60.3511 346.053 62.2711 345.72L64.8111 345.34C65.4778 345.22 65.8111 344.907 65.8111 344.4C65.8111 343.747 65.5978 343.227 65.1711 342.84C64.7578 342.44 64.1711 342.24 63.4111 342.24C62.6511 342.24 62.0311 342.44 61.5511 342.84C61.0844 343.24 60.8178 343.787 60.7511 344.48L59.5911 344.22C59.6844 343.34 60.0911 342.607 60.8111 342.02C61.5044 341.473 62.3644 341.2 63.3911 341.2C64.5778 341.2 65.4911 341.52 66.1311 342.16C66.7178 342.787 67.0111 343.573 67.0111 344.52V349.36C67.0111 349.92 67.0511 350.467 67.1311 351H65.9711C65.8911 350.707 65.8511 350.16 65.8511 349.36C65.5711 349.893 65.1778 350.313 64.6711 350.62C64.0578 351.033 63.3444 351.24 62.5311 351.24C61.5844 351.24 60.8111 350.96 60.2111 350.4ZM60.6311 348.48C60.6311 348.947 60.8111 349.353 61.1711 349.7C61.5311 350.047 62.0311 350.22 62.6711 350.22C63.5911 350.22 64.3444 349.94 64.9311 349.38C65.5178 348.82 65.8111 348.06 65.8111 347.1V345.96C65.7444 346.027 65.5778 346.093 65.3111 346.16C64.9644 346.267 64.7111 346.327 64.5511 346.34L62.4311 346.66C61.2311 346.833 60.6311 347.44 60.6311 348.48ZM71.3292 351H70.1292V336.56H71.3292V351Z" fill="white"/>
<path d="M123.16 626H121.88V611.82H123.16V626ZM127.919 620.3V626H126.719V616.46H127.879V618.08C128.492 616.84 129.526 616.22 130.979 616.22C132.059 616.22 132.906 616.567 133.519 617.26C134.079 617.9 134.359 618.74 134.359 619.78V626H133.159V619.98C133.159 619.18 132.952 618.547 132.539 618.08C132.086 617.56 131.432 617.3 130.579 617.3C129.792 617.3 129.146 617.6 128.639 618.2C128.159 618.76 127.919 619.46 127.919 620.3ZM138.72 620.3V626H137.52V616.46H138.68V618.08C139.293 616.84 140.327 616.22 141.78 616.22C142.86 616.22 143.707 616.567 144.32 617.26C144.88 617.9 145.16 618.74 145.16 619.78V626H143.96V619.98C143.96 619.18 143.753 618.547 143.34 618.08C142.887 617.56 142.233 617.3 141.38 617.3C140.593 617.3 139.947 617.6 139.44 618.2C138.96 618.76 138.72 619.46 138.72 620.3ZM148.881 617.6C149.774 616.667 150.881 616.2 152.201 616.2C153.521 616.2 154.634 616.667 155.541 617.6C156.447 618.547 156.901 619.76 156.901 621.24C156.901 622.72 156.447 623.927 155.541 624.86C154.634 625.793 153.521 626.26 152.201 626.26C150.894 626.26 149.794 625.793 148.901 624.86C147.981 623.913 147.521 622.707 147.521 621.24C147.521 619.747 147.974 618.533 148.881 617.6ZM149.781 624.14C150.434 624.833 151.241 625.18 152.201 625.18C153.161 625.18 153.974 624.833 154.641 624.14C155.334 623.407 155.681 622.44 155.681 621.24C155.681 620.053 155.334 619.08 154.641 618.32C154.001 617.64 153.187 617.3 152.201 617.3C151.214 617.3 150.407 617.64 149.781 618.32C149.087 619.08 148.741 620.053 148.741 621.24C148.741 622.44 149.087 623.407 149.781 624.14ZM166.718 616.46L162.958 626H161.698L157.898 616.46H159.258L162.338 624.64L165.438 616.46H166.718ZM168.891 625.4C168.344 624.92 168.071 624.3 168.071 623.54C168.071 621.993 169.031 621.053 170.951 620.72L173.491 620.34C174.157 620.22 174.491 619.907 174.491 619.4C174.491 618.747 174.277 618.227 173.851 617.84C173.437 617.44 172.851 617.24 172.091 617.24C171.331 617.24 170.711 617.44 170.231 617.84C169.764 618.24 169.497 618.787 169.431 619.48L168.271 619.22C168.364 618.34 168.771 617.607 169.491 617.02C170.184 616.473 171.044 616.2 172.071 616.2C173.257 616.2 174.171 616.52 174.811 617.16C175.397 617.787 175.691 618.573 175.691 619.52V624.36C175.691 624.92 175.731 625.467 175.811 626H174.651C174.571 625.707 174.531 625.16 174.531 624.36C174.251 624.893 173.857 625.313 173.351 625.62C172.737 626.033 172.024 626.24 171.211 626.24C170.264 626.24 169.491 625.96 168.891 625.4ZM169.311 623.48C169.311 623.947 169.491 624.353 169.851 624.7C170.211 625.047 170.711 625.22 171.351 625.22C172.271 625.22 173.024 624.94 173.611 624.38C174.197 623.82 174.491 623.06 174.491 622.1V620.96C174.424 621.027 174.257 621.093 173.991 621.16C173.644 621.267 173.391 621.327 173.231 621.34L171.111 621.66C169.911 621.833 169.311 622.44 169.311 623.48ZM180.531 613.44V616.46H183.011V617.56H180.531V623.3C180.531 624.447 181.071 625.02 182.151 625.02C182.511 625.02 182.798 624.973 183.011 624.88V625.92C182.771 626.04 182.378 626.1 181.831 626.1C181.045 626.1 180.431 625.873 179.991 625.42C179.551 624.953 179.331 624.287 179.331 623.42V617.56H177.311V616.46H178.031C178.965 616.46 179.431 615.993 179.431 615.06V613.44H180.531ZM186.127 613.48C185.861 613.48 185.627 613.387 185.427 613.2C185.241 613.013 185.147 612.787 185.147 612.52C185.147 612.24 185.241 612 185.427 611.8C185.627 611.6 185.861 611.5 186.127 611.5C186.407 611.5 186.641 611.6 186.827 611.8C187.027 612 187.127 612.24 187.127 612.52C187.127 612.787 187.027 613.013 186.827 613.2C186.641 613.387 186.407 613.48 186.127 613.48ZM186.727 626H185.547V616.46H186.727V626ZM190.638 617.6C191.532 616.667 192.638 616.2 193.958 616.2C195.278 616.2 196.392 616.667 197.298 617.6C198.205 618.547 198.658 619.76 198.658 621.24C198.658 622.72 198.205 623.927 197.298 624.86C196.392 625.793 195.278 626.26 193.958 626.26C192.652 626.26 191.552 625.793 190.658 624.86C189.738 623.913 189.278 622.707 189.278 621.24C189.278 619.747 189.732 618.533 190.638 617.6ZM191.538 624.14C192.192 624.833 192.998 625.18 193.958 625.18C194.918 625.18 195.732 624.833 196.398 624.14C197.092 623.407 197.438 622.44 197.438 621.24C197.438 620.053 197.092 619.08 196.398 618.32C195.758 617.64 194.945 617.3 193.958 617.3C192.972 617.3 192.165 617.64 191.538 618.32C190.845 619.08 190.498 620.053 190.498 621.24C190.498 622.44 190.845 623.407 191.538 624.14ZM202.411 620.3V626H201.211V616.46H202.371V618.08C202.985 616.84 204.018 616.22 205.471 616.22C206.551 616.22 207.398 616.567 208.011 617.26C208.571 617.9 208.851 618.74 208.851 619.78V626H207.651V619.98C207.651 619.18 207.445 618.547 207.031 618.08C206.578 617.56 205.925 617.3 205.071 617.3C204.285 617.3 203.638 617.6 203.131 618.2C202.651 618.76 202.411 619.46 202.411 620.3Z" fill="white"/>
<path d="M41.5873 35.96C40.7207 36.8267 39.5473 37.26 38.0673 37.26C36.5873 37.26 35.4207 36.8333 34.5673 35.98C33.6607 35.1133 33.2073 33.88 33.2073 32.28V22.82H34.4673V32.22C34.4673 33.4867 34.774 34.4533 35.3873 35.12C36.0007 35.7733 36.894 36.1 38.0673 36.1C39.2407 36.1 40.134 35.7733 40.7473 35.12C41.3607 34.4533 41.6673 33.4867 41.6673 32.22V22.82H42.9273V32.28C42.9273 33.8667 42.4807 35.0933 41.5873 35.96ZM45.3933 34.46L46.4933 34.08C46.5866 34.7333 46.8533 35.2533 47.2933 35.64C47.7466 36.0267 48.3533 36.22 49.1133 36.22C49.7399 36.22 50.2533 36.0667 50.6533 35.76C51.0533 35.44 51.2533 35.0267 51.2533 34.52C51.2533 33.6667 50.7133 33.1267 49.6333 32.9L48.0333 32.54C46.4999 32.18 45.7333 31.3333 45.7333 30C45.7333 29.2267 46.0533 28.5667 46.6933 28.02C47.3333 27.4733 48.0866 27.2 48.9533 27.2C49.9266 27.2 50.7399 27.48 51.3933 28.04C51.8599 28.4667 52.1799 29.0333 52.3533 29.74L51.2933 30.14C51.1999 29.62 50.9799 29.1867 50.6333 28.84C50.1799 28.44 49.6199 28.24 48.9533 28.24C48.3933 28.24 47.9199 28.3933 47.5333 28.7C47.1199 29.02 46.9133 29.4267 46.9133 29.92C46.9133 30.6933 47.3999 31.2 48.3733 31.44L49.9533 31.78C51.6066 32.1667 52.4333 33.0533 52.4333 34.44C52.4333 35.1867 52.1466 35.8333 51.5733 36.38C50.9466 36.9667 50.1199 37.26 49.0933 37.26C47.9733 37.26 47.0933 36.96 46.4533 36.36C45.8666 35.84 45.5133 35.2067 45.3933 34.46ZM61.9838 33.92L63.0438 34.3C62.7638 35.1533 62.2771 35.8467 61.5838 36.38C60.8238 36.9667 59.9171 37.26 58.8638 37.26C57.5438 37.26 56.4571 36.8133 55.6038 35.92C54.6838 35 54.2238 33.76 54.2238 32.2C54.2238 30.76 54.6638 29.5533 55.5438 28.58C56.3838 27.66 57.4171 27.2 58.6438 27.2C60.0038 27.2 61.0971 27.6533 61.9238 28.56C62.7104 29.4533 63.1038 30.6067 63.1038 32.02C63.1038 32.1 63.0904 32.2467 63.0638 32.46H55.4638V32.54C55.4638 33.62 55.7971 34.5067 56.4638 35.2C57.1038 35.8667 57.9038 36.2 58.8638 36.2C59.6504 36.2 60.3371 35.9733 60.9238 35.52C61.3904 35.1467 61.7438 34.6133 61.9838 33.92ZM55.5038 31.46H61.8438C61.8171 30.5533 61.5304 29.8 60.9838 29.2C60.3971 28.5867 59.6238 28.28 58.6638 28.28C57.8104 28.28 57.0771 28.5867 56.4638 29.2C55.8904 29.8 55.5704 30.5533 55.5038 31.46ZM70.5088 27.44V28.7C70.3088 28.6333 70.0288 28.6 69.6688 28.6C68.8154 28.6 68.1288 28.8733 67.6088 29.42C67.1021 29.9533 66.8488 30.7533 66.8488 31.82V37H65.6488V27.46H66.8088V29.24C67.3954 27.9733 68.3821 27.34 69.7688 27.34C70.1288 27.34 70.3754 27.3733 70.5088 27.44Z" fill="white"/>
<path d="M274.06 193H272.72L264.14 180.4V193H262.88V178.82H264.62L272.8 190.92V178.82H274.06V193ZM284.484 189.92L285.544 190.3C285.264 191.153 284.777 191.847 284.084 192.38C283.324 192.967 282.417 193.26 281.364 193.26C280.044 193.26 278.957 192.813 278.104 191.92C277.184 191 276.724 189.76 276.724 188.2C276.724 186.76 277.164 185.553 278.044 184.58C278.884 183.66 279.917 183.2 281.144 183.2C282.504 183.2 283.597 183.653 284.424 184.56C285.21 185.453 285.604 186.607 285.604 188.02C285.604 188.1 285.59 188.247 285.564 188.46H277.964V188.54C277.964 189.62 278.297 190.507 278.964 191.2C279.604 191.867 280.404 192.2 281.364 192.2C282.15 192.2 282.837 191.973 283.424 191.52C283.89 191.147 284.244 190.613 284.484 189.92ZM278.004 187.46H284.344C284.317 186.553 284.03 185.8 283.484 185.2C282.897 184.587 282.124 184.28 281.164 184.28C280.31 184.28 279.577 184.587 278.964 185.2C278.39 185.8 278.07 186.553 278.004 187.46ZM295.109 189.92L296.169 190.3C295.889 191.153 295.402 191.847 294.709 192.38C293.949 192.967 293.042 193.26 291.989 193.26C290.669 193.26 289.582 192.813 288.729 191.92C287.809 191 287.349 189.76 287.349 188.2C287.349 186.76 287.789 185.553 288.669 184.58C289.509 183.66 290.542 183.2 291.769 183.2C293.129 183.2 294.222 183.653 295.049 184.56C295.835 185.453 296.229 186.607 296.229 188.02C296.229 188.1 296.215 188.247 296.189 188.46H288.589V188.54C288.589 189.62 288.922 190.507 289.589 191.2C290.229 191.867 291.029 192.2 291.989 192.2C292.775 192.2 293.462 191.973 294.049 191.52C294.515 191.147 294.869 190.613 295.109 189.92ZM288.629 187.46H294.969C294.942 186.553 294.655 185.8 294.109 185.2C293.522 184.587 292.749 184.28 291.789 184.28C290.935 184.28 290.202 184.587 289.589 185.2C289.015 185.8 288.695 186.553 288.629 187.46ZM305.714 191.5V191.12C305.447 191.72 305.074 192.193 304.594 192.54C303.967 193.007 303.227 193.24 302.374 193.24C301.027 193.24 299.96 192.76 299.174 191.8C298.374 190.853 297.974 189.66 297.974 188.22C297.974 186.807 298.38 185.62 299.194 184.66C300.02 183.7 301.08 183.22 302.374 183.22C303.28 183.22 304.047 183.453 304.674 183.92C305.14 184.28 305.48 184.727 305.694 185.26V178.56H306.894V191.18C306.894 192.06 306.927 192.667 306.994 193H305.814C305.747 192.733 305.714 192.233 305.714 191.5ZM300.094 185.38C299.494 186.127 299.194 187.073 299.194 188.22C299.194 189.34 299.487 190.28 300.074 191.04C300.66 191.8 301.46 192.18 302.474 192.18C303.46 192.18 304.247 191.8 304.834 191.04C305.42 190.28 305.714 189.333 305.714 188.2C305.714 187.067 305.42 186.133 304.834 185.4C304.234 184.653 303.454 184.28 302.494 184.28C301.507 184.28 300.707 184.647 300.094 185.38Z" fill="white"/>
<path d="M262.16 502H260.88V487.82H262.16V502ZM272.561 500.5V500.12C272.295 500.72 271.921 501.193 271.441 501.54C270.815 502.007 270.075 502.24 269.221 502.24C267.875 502.24 266.808 501.76 266.021 500.8C265.221 499.853 264.821 498.66 264.821 497.22C264.821 495.807 265.228 494.62 266.041 493.66C266.868 492.7 267.928 492.22 269.221 492.22C270.128 492.22 270.895 492.453 271.521 492.92C271.988 493.28 272.328 493.727 272.541 494.26V487.56H273.741V500.18C273.741 501.06 273.775 501.667 273.841 502H272.661C272.595 501.733 272.561 501.233 272.561 500.5ZM266.941 494.38C266.341 495.127 266.041 496.073 266.041 497.22C266.041 498.34 266.335 499.28 266.921 500.04C267.508 500.8 268.308 501.18 269.321 501.18C270.308 501.18 271.095 500.8 271.681 500.04C272.268 499.28 272.561 498.333 272.561 497.2C272.561 496.067 272.268 495.133 271.681 494.4C271.081 493.653 270.301 493.28 269.341 493.28C268.355 493.28 267.555 493.647 266.941 494.38ZM284.066 498.92L285.126 499.3C284.846 500.153 284.359 500.847 283.666 501.38C282.906 501.967 281.999 502.26 280.946 502.26C279.626 502.26 278.539 501.813 277.686 500.92C276.766 500 276.306 498.76 276.306 497.2C276.306 495.76 276.746 494.553 277.626 493.58C278.466 492.66 279.499 492.2 280.726 492.2C282.086 492.2 283.179 492.653 284.006 493.56C284.792 494.453 285.186 495.607 285.186 497.02C285.186 497.1 285.172 497.247 285.146 497.46H277.546V497.54C277.546 498.62 277.879 499.507 278.546 500.2C279.186 500.867 279.986 501.2 280.946 501.2C281.732 501.2 282.419 500.973 283.006 500.52C283.472 500.147 283.826 499.613 284.066 498.92ZM277.586 496.46H283.926C283.899 495.553 283.612 494.8 283.066 494.2C282.479 493.587 281.706 493.28 280.746 493.28C279.892 493.28 279.159 493.587 278.546 494.2C277.972 494.8 277.652 495.553 277.586 496.46ZM287.891 501.4C287.344 500.92 287.071 500.3 287.071 499.54C287.071 497.993 288.031 497.053 289.951 496.72L292.491 496.34C293.157 496.22 293.491 495.907 293.491 495.4C293.491 494.747 293.277 494.227 292.851 493.84C292.437 493.44 291.851 493.24 291.091 493.24C290.331 493.24 289.711 493.44 289.231 493.84C288.764 494.24 288.497 494.787 288.431 495.48L287.271 495.22C287.364 494.34 287.771 493.607 288.491 493.02C289.184 492.473 290.044 492.2 291.071 492.2C292.257 492.2 293.171 492.52 293.811 493.16C294.397 493.787 294.691 494.573 294.691 495.52V500.36C294.691 500.92 294.731 501.467 294.811 502H293.651C293.571 501.707 293.531 501.16 293.531 500.36C293.251 500.893 292.857 501.313 292.351 501.62C291.737 502.033 291.024 502.24 290.211 502.24C289.264 502.24 288.491 501.96 287.891 501.4ZM288.311 499.48C288.311 499.947 288.491 500.353 288.851 500.7C289.211 501.047 289.711 501.22 290.351 501.22C291.271 501.22 292.024 500.94 292.611 500.38C293.197 499.82 293.491 499.06 293.491 498.1V496.96C293.424 497.027 293.257 497.093 292.991 497.16C292.644 497.267 292.391 497.327 292.231 497.34L290.111 497.66C288.911 497.833 288.311 498.44 288.311 499.48ZM299.531 489.44V492.46H302.011V493.56H299.531V499.3C299.531 500.447 300.071 501.02 301.151 501.02C301.511 501.02 301.798 500.973 302.011 500.88V501.92C301.771 502.04 301.378 502.1 300.831 502.1C300.045 502.1 299.431 501.873 298.991 501.42C298.551 500.953 298.331 500.287 298.331 499.42V493.56H296.311V492.46H297.031C297.965 492.46 298.431 491.993 298.431 491.06V489.44H299.531ZM305.127 489.48C304.861 489.48 304.627 489.387 304.427 489.2C304.241 489.013 304.147 488.787 304.147 488.52C304.147 488.24 304.241 488 304.427 487.8C304.627 487.6 304.861 487.5 305.127 487.5C305.407 487.5 305.641 487.6 305.827 487.8C306.027 488 306.127 488.24 306.127 488.52C306.127 488.787 306.027 489.013 305.827 489.2C305.641 489.387 305.407 489.48 305.127 489.48ZM305.727 502H304.547V492.46H305.727V502ZM309.638 493.6C310.532 492.667 311.638 492.2 312.958 492.2C314.278 492.2 315.392 492.667 316.298 493.6C317.205 494.547 317.658 495.76 317.658 497.24C317.658 498.72 317.205 499.927 316.298 500.86C315.392 501.793 314.278 502.26 312.958 502.26C311.652 502.26 310.552 501.793 309.658 500.86C308.738 499.913 308.278 498.707 308.278 497.24C308.278 495.747 308.732 494.533 309.638 493.6ZM310.538 500.14C311.192 500.833 311.998 501.18 312.958 501.18C313.918 501.18 314.732 500.833 315.398 500.14C316.092 499.407 316.438 498.44 316.438 497.24C316.438 496.053 316.092 495.08 315.398 494.32C314.758 493.64 313.945 493.3 312.958 493.3C311.972 493.3 311.165 493.64 310.538 494.32C309.845 495.08 309.498 496.053 309.498 497.24C309.498 498.44 309.845 499.407 310.538 500.14ZM321.411 496.3V502H320.211V492.46H321.371V494.08C321.985 492.84 323.018 492.22 324.471 492.22C325.551 492.22 326.398 492.567 327.011 493.26C327.571 493.9 327.851 494.74 327.851 495.78V502H326.651V495.98C326.651 495.18 326.445 494.547 326.031 494.08C325.578 493.56 324.925 493.3 324.071 493.3C323.285 493.3 322.638 493.6 322.131 494.2C321.651 494.76 321.411 495.46 321.411 496.3Z" fill="white"/>
<path d="M87.3693 29.6927L243.631 186.554L87.3693 342.884L243.631 495.778" stroke="white" stroke-width="2"/>
<path d="M174.048 586.955L165.65 595.353L157.252 586.955" stroke="white" stroke-width="2"/>
<path d="M165.65 0V11.0973" stroke="white" stroke-width="2"/>
<path d="M165.65 426.795V437.892" stroke="white" stroke-width="2"/>
<path d="M165.65 22.1945V33.2918" stroke="white" stroke-width="2"/>
<path d="M165.65 448.989V460.086" stroke="white" stroke-width="2"/>
<path d="M165.65 44.389V55.4863" stroke="white" stroke-width="2"/>
<path d="M165.65 471.184V482.281" stroke="white" stroke-width="2"/>
<path d="M165.65 66.5836V77.6808" stroke="white" stroke-width="2"/>
<path d="M165.65 493.378V504.476" stroke="white" stroke-width="2"/>
<path d="M165.65 88.7781V99.8753" stroke="white" stroke-width="2"/>
<path d="M165.65 515.573V526.67" stroke="white" stroke-width="2"/>
<path d="M165.65 538.367V549.465" stroke="white" stroke-width="2"/>
<path d="M165.65 561.162V572.259" stroke="white" stroke-width="2"/>
<path d="M165.65 582.756V593.854" stroke="white" stroke-width="2"/>
<path d="M165.65 115.472V126.569" stroke="white" stroke-width="2"/>
<path d="M165.65 137.066V148.163" stroke="white" stroke-width="2"/>
<path d="M165.65 158.661V169.758" stroke="white" stroke-width="2"/>
<path d="M165.65 180.256V191.353" stroke="white" stroke-width="2"/>
<path d="M165.65 201.85V212.947" stroke="white" stroke-width="2"/>
<path d="M165.65 223.445V234.542" stroke="white" stroke-width="2"/>
<path d="M165.65 245.04V256.137" stroke="white" stroke-width="2"/>
<path d="M165.65 272.033V283.13" stroke="white" stroke-width="2"/>
<path d="M165.65 293.628V304.725" stroke="white" stroke-width="2"/>
<path d="M165.65 314.922V326.02" stroke="white" stroke-width="2"/>
<path d="M165.65 336.217V347.314" stroke="white" stroke-width="2"/>
<path d="M165.65 357.512V368.609" stroke="white" stroke-width="2"/>
<path d="M165.65 378.807V389.904" stroke="white" stroke-width="2"/>
<path d="M165.65 400.101V411.199" stroke="white" stroke-width="2"/>
</svg>
