<svg width="331" height="518" viewBox="0 0 331 518" fill="none" xmlns="http://www.w3.org/2000/svg">
<path d="M11.06 140.96C10.1933 141.827 9.02 142.26 7.54 142.26C6.06 142.26 4.89333 141.833 4.04 140.98C3.13333 140.113 2.68 138.88 2.68 137.28V127.82H3.94V137.22C3.94 138.487 4.24667 139.453 4.86 140.12C5.47333 140.773 6.36667 141.1 7.54 141.1C8.71333 141.1 9.60667 140.773 10.22 140.12C10.8333 139.453 11.14 138.487 11.14 137.22V127.82H12.4V137.28C12.4 138.867 11.9533 140.093 11.06 140.96ZM16.9659 136.3V142H15.7659V132.46H16.9259V134.08C17.5393 132.84 18.5726 132.22 20.0259 132.22C21.1059 132.22 21.9526 132.567 22.5659 133.26C23.1259 133.9 23.4059 134.74 23.4059 135.78V142H22.2059V135.98C22.2059 135.18 21.9993 134.547 21.5859 134.08C21.1326 133.56 20.4793 133.3 19.6259 133.3C18.8393 133.3 18.1926 133.6 17.6859 134.2C17.2059 134.76 16.9659 135.46 16.9659 136.3ZM33.5067 140.5V140.12C33.2401 140.72 32.8667 141.193 32.3867 141.54C31.7601 142.007 31.0201 142.24 30.1667 142.24C28.8201 142.24 27.7534 141.76 26.9667 140.8C26.1667 139.853 25.7667 138.66 25.7667 137.22C25.7667 135.807 26.1734 134.62 26.9867 133.66C27.8134 132.7 28.8734 132.22 30.1667 132.22C31.0734 132.22 31.8401 132.453 32.4667 132.92C32.9334 133.28 33.2734 133.727 33.4867 134.26V127.56H34.6867V140.18C34.6867 141.06 34.7201 141.667 34.7867 142H33.6067C33.5401 141.733 33.5067 141.233 33.5067 140.5ZM27.8867 134.38C27.2867 135.127 26.9867 136.073 26.9867 137.22C26.9867 138.34 27.2801 139.28 27.8667 140.04C28.4534 140.8 29.2534 141.18 30.2667 141.18C31.2534 141.18 32.0401 140.8 32.6267 140.04C33.2134 139.28 33.5067 138.333 33.5067 137.2C33.5067 136.067 33.2134 135.133 32.6267 134.4C32.0267 133.653 31.2467 133.28 30.2867 133.28C29.3001 133.28 28.5001 133.647 27.8867 134.38ZM45.0111 138.92L46.0711 139.3C45.7911 140.153 45.3044 140.847 44.6111 141.38C43.8511 141.967 42.9444 142.26 41.8911 142.26C40.5711 142.26 39.4844 141.813 38.6311 140.92C37.7111 140 37.2511 138.76 37.2511 137.2C37.2511 135.76 37.6911 134.553 38.5711 133.58C39.4111 132.66 40.4444 132.2 41.6711 132.2C43.0311 132.2 44.1244 132.653 44.9511 133.56C45.7378 134.453 46.1311 135.607 46.1311 137.02C46.1311 137.1 46.1178 137.247 46.0911 137.46H38.4911V137.54C38.4911 138.62 38.8244 139.507 39.4911 140.2C40.1311 140.867 40.9311 141.2 41.8911 141.2C42.6778 141.2 43.3644 140.973 43.9511 140.52C44.4178 140.147 44.7711 139.613 45.0111 138.92ZM38.5311 136.46H44.8711C44.8444 135.553 44.5578 134.8 44.0111 134.2C43.4244 133.587 42.6511 133.28 41.6911 133.28C40.8378 133.28 40.1044 133.587 39.4911 134.2C38.9178 134.8 38.5978 135.553 38.5311 136.46ZM53.5361 132.44V133.7C53.3361 133.633 53.0561 133.6 52.6961 133.6C51.8428 133.6 51.1561 133.873 50.6361 134.42C50.1294 134.953 49.8761 135.753 49.8761 136.82V142H48.6761V132.46H49.8361V134.24C50.4228 132.973 51.4094 132.34 52.7961 132.34C53.1561 132.34 53.4028 132.373 53.5361 132.44ZM54.7097 139.46L55.8097 139.08C55.903 139.733 56.1697 140.253 56.6097 140.64C57.063 141.027 57.6697 141.22 58.4297 141.22C59.0564 141.22 59.5697 141.067 59.9697 140.76C60.3697 140.44 60.5697 140.027 60.5697 139.52C60.5697 138.667 60.0297 138.127 58.9497 137.9L57.3497 137.54C55.8164 137.18 55.0497 136.333 55.0497 135C55.0497 134.227 55.3697 133.567 56.0097 133.02C56.6497 132.473 57.403 132.2 58.2697 132.2C59.243 132.2 60.0564 132.48 60.7097 133.04C61.1764 133.467 61.4964 134.033 61.6697 134.74L60.6097 135.14C60.5164 134.62 60.2964 134.187 59.9497 133.84C59.4964 133.44 58.9364 133.24 58.2697 133.24C57.7097 133.24 57.2364 133.393 56.8497 133.7C56.4364 134.02 56.2297 134.427 56.2297 134.92C56.2297 135.693 56.7164 136.2 57.6897 136.44L59.2697 136.78C60.923 137.167 61.7497 138.053 61.7497 139.44C61.7497 140.187 61.463 140.833 60.8897 141.38C60.263 141.967 59.4364 142.26 58.4097 142.26C57.2897 142.26 56.4097 141.96 55.7697 141.36C55.183 140.84 54.8297 140.207 54.7097 139.46ZM66.1602 129.44V132.46H68.6402V133.56H66.1602V139.3C66.1602 140.447 66.7002 141.02 67.7802 141.02C68.1402 141.02 68.4268 140.973 68.6402 140.88V141.92C68.4002 142.04 68.0068 142.1 67.4602 142.1C66.6735 142.1 66.0602 141.873 65.6202 141.42C65.1802 140.953 64.9602 140.287 64.9602 139.42V133.56H62.9402V132.46H63.6602C64.5935 132.46 65.0602 131.993 65.0602 131.06V129.44H66.1602ZM71.3361 141.4C70.7894 140.92 70.5161 140.3 70.5161 139.54C70.5161 137.993 71.4761 137.053 73.3961 136.72L75.9361 136.34C76.6028 136.22 76.9361 135.907 76.9361 135.4C76.9361 134.747 76.7228 134.227 76.2961 133.84C75.8828 133.44 75.2961 133.24 74.5361 133.24C73.7761 133.24 73.1561 133.44 72.6761 133.84C72.2094 134.24 71.9428 134.787 71.8761 135.48L70.7161 135.22C70.8094 134.34 71.2161 133.607 71.9361 133.02C72.6294 132.473 73.4894 132.2 74.5161 132.2C75.7028 132.2 76.6161 132.52 77.2561 133.16C77.8428 133.787 78.1361 134.573 78.1361 135.52V140.36C78.1361 140.92 78.1761 141.467 78.2561 142H77.0961C77.0161 141.707 76.9761 141.16 76.9761 140.36C76.6961 140.893 76.3028 141.313 75.7961 141.62C75.1828 142.033 74.4694 142.24 73.6561 142.24C72.7094 142.24 71.9361 141.96 71.3361 141.4ZM71.7561 139.48C71.7561 139.947 71.9361 140.353 72.2961 140.7C72.6561 141.047 73.1561 141.22 73.7961 141.22C74.7161 141.22 75.4694 140.94 76.0561 140.38C76.6428 139.82 76.9361 139.06 76.9361 138.1V136.96C76.8694 137.027 76.7028 137.093 76.4361 137.16C76.0894 137.267 75.8361 137.327 75.6761 137.34L73.5561 137.66C72.3561 137.833 71.7561 138.44 71.7561 139.48ZM82.4542 136.3V142H81.2542V132.46H82.4142V134.08C83.0276 132.84 84.0609 132.22 85.5142 132.22C86.5942 132.22 87.4409 132.567 88.0542 133.26C88.6142 133.9 88.8942 134.74 88.8942 135.78V142H87.6942V135.98C87.6942 135.18 87.4876 134.547 87.0742 134.08C86.6209 133.56 85.9676 133.3 85.1142 133.3C84.3276 133.3 83.6809 133.6 83.1742 134.2C82.6942 134.76 82.4542 135.46 82.4542 136.3ZM98.995 140.5V140.12C98.7283 140.72 98.355 141.193 97.875 141.54C97.2483 142.007 96.5083 142.24 95.655 142.24C94.3083 142.24 93.2417 141.76 92.455 140.8C91.655 139.853 91.255 138.66 91.255 137.22C91.255 135.807 91.6617 134.62 92.475 133.66C93.3017 132.7 94.3617 132.22 95.655 132.22C96.5617 132.22 97.3283 132.453 97.955 132.92C98.4217 133.28 98.7617 133.727 98.975 134.26V127.56H100.175V140.18C100.175 141.06 100.208 141.667 100.275 142H99.095C99.0283 141.733 98.995 141.233 98.995 140.5ZM93.375 134.38C92.775 135.127 92.475 136.073 92.475 137.22C92.475 138.34 92.7683 139.28 93.355 140.04C93.9417 140.8 94.7417 141.18 95.755 141.18C96.7417 141.18 97.5283 140.8 98.115 140.04C98.7017 139.28 98.995 138.333 98.995 137.2C98.995 136.067 98.7017 135.133 98.115 134.4C97.515 133.653 96.735 133.28 95.775 133.28C94.7883 133.28 93.9883 133.647 93.375 134.38Z" fill="white"/>
<path d="M176.16 142H174.88V127.82H176.16V142ZM186.561 140.5V140.12C186.295 140.72 185.921 141.193 185.441 141.54C184.815 142.007 184.075 142.24 183.221 142.24C181.875 142.24 180.808 141.76 180.021 140.8C179.221 139.853 178.821 138.66 178.821 137.22C178.821 135.807 179.228 134.62 180.041 133.66C180.868 132.7 181.928 132.22 183.221 132.22C184.128 132.22 184.895 132.453 185.521 132.92C185.988 133.28 186.328 133.727 186.541 134.26V127.56H187.741V140.18C187.741 141.06 187.775 141.667 187.841 142H186.661C186.595 141.733 186.561 141.233 186.561 140.5ZM180.941 134.38C180.341 135.127 180.041 136.073 180.041 137.22C180.041 138.34 180.335 139.28 180.921 140.04C181.508 140.8 182.308 141.18 183.321 141.18C184.308 141.18 185.095 140.8 185.681 140.04C186.268 139.28 186.561 138.333 186.561 137.2C186.561 136.067 186.268 135.133 185.681 134.4C185.081 133.653 184.301 133.28 183.341 133.28C182.355 133.28 181.555 133.647 180.941 134.38ZM198.066 138.92L199.126 139.3C198.846 140.153 198.359 140.847 197.666 141.38C196.906 141.967 195.999 142.26 194.946 142.26C193.626 142.26 192.539 141.813 191.686 140.92C190.766 140 190.306 138.76 190.306 137.2C190.306 135.76 190.746 134.553 191.626 133.58C192.466 132.66 193.499 132.2 194.726 132.2C196.086 132.2 197.179 132.653 198.006 133.56C198.792 134.453 199.186 135.607 199.186 137.02C199.186 137.1 199.172 137.247 199.146 137.46H191.546V137.54C191.546 138.62 191.879 139.507 192.546 140.2C193.186 140.867 193.986 141.2 194.946 141.2C195.732 141.2 196.419 140.973 197.006 140.52C197.472 140.147 197.826 139.613 198.066 138.92ZM191.586 136.46H197.926C197.899 135.553 197.612 134.8 197.066 134.2C196.479 133.587 195.706 133.28 194.746 133.28C193.892 133.28 193.159 133.587 192.546 134.2C191.972 134.8 191.652 135.553 191.586 136.46ZM201.891 141.4C201.344 140.92 201.071 140.3 201.071 139.54C201.071 137.993 202.031 137.053 203.951 136.72L206.491 136.34C207.157 136.22 207.491 135.907 207.491 135.4C207.491 134.747 207.277 134.227 206.851 133.84C206.437 133.44 205.851 133.24 205.091 133.24C204.331 133.24 203.711 133.44 203.231 133.84C202.764 134.24 202.497 134.787 202.431 135.48L201.271 135.22C201.364 134.34 201.771 133.607 202.491 133.02C203.184 132.473 204.044 132.2 205.071 132.2C206.257 132.2 207.171 132.52 207.811 133.16C208.397 133.787 208.691 134.573 208.691 135.52V140.36C208.691 140.92 208.731 141.467 208.811 142H207.651C207.571 141.707 207.531 141.16 207.531 140.36C207.251 140.893 206.857 141.313 206.351 141.62C205.737 142.033 205.024 142.24 204.211 142.24C203.264 142.24 202.491 141.96 201.891 141.4ZM202.311 139.48C202.311 139.947 202.491 140.353 202.851 140.7C203.211 141.047 203.711 141.22 204.351 141.22C205.271 141.22 206.024 140.94 206.611 140.38C207.197 139.82 207.491 139.06 207.491 138.1V136.96C207.424 137.027 207.257 137.093 206.991 137.16C206.644 137.267 206.391 137.327 206.231 137.34L204.111 137.66C202.911 137.833 202.311 138.44 202.311 139.48ZM213.531 129.44V132.46H216.011V133.56H213.531V139.3C213.531 140.447 214.071 141.02 215.151 141.02C215.511 141.02 215.798 140.973 216.011 140.88V141.92C215.771 142.04 215.378 142.1 214.831 142.1C214.045 142.1 213.431 141.873 212.991 141.42C212.551 140.953 212.331 140.287 212.331 139.42V133.56H210.311V132.46H211.031C211.965 132.46 212.431 131.993 212.431 131.06V129.44H213.531ZM225.41 138.92L226.47 139.3C226.19 140.153 225.703 140.847 225.01 141.38C224.25 141.967 223.343 142.26 222.29 142.26C220.97 142.26 219.883 141.813 219.03 140.92C218.11 140 217.65 138.76 217.65 137.2C217.65 135.76 218.09 134.553 218.97 133.58C219.81 132.66 220.843 132.2 222.07 132.2C223.43 132.2 224.523 132.653 225.35 133.56C226.136 134.453 226.53 135.607 226.53 137.02C226.53 137.1 226.516 137.247 226.49 137.46H218.89V137.54C218.89 138.62 219.223 139.507 219.89 140.2C220.53 140.867 221.33 141.2 222.29 141.2C223.076 141.2 223.763 140.973 224.35 140.52C224.816 140.147 225.17 139.613 225.41 138.92ZM218.93 136.46H225.27C225.243 135.553 224.956 134.8 224.41 134.2C223.823 133.587 223.05 133.28 222.09 133.28C221.236 133.28 220.503 133.587 219.89 134.2C219.316 134.8 218.996 135.553 218.93 136.46Z" fill="white"/>
<path d="M12.76 313.98H7.74V327H6.46V313.98H1.46V312.82H12.76V313.98ZM19.9525 323.92L21.0125 324.3C20.7325 325.153 20.2458 325.847 19.5525 326.38C18.7925 326.967 17.8858 327.26 16.8325 327.26C15.5125 327.26 14.4258 326.813 13.5725 325.92C12.6525 325 12.1925 323.76 12.1925 322.2C12.1925 320.76 12.6325 319.553 13.5125 318.58C14.3525 317.66 15.3858 317.2 16.6125 317.2C17.9725 317.2 19.0658 317.653 19.8925 318.56C20.6792 319.453 21.0725 320.607 21.0725 322.02C21.0725 322.1 21.0592 322.247 21.0325 322.46H13.4325V322.54C13.4325 323.62 13.7658 324.507 14.4325 325.2C15.0725 325.867 15.8725 326.2 16.8325 326.2C17.6192 326.2 18.3058 325.973 18.8925 325.52C19.3592 325.147 19.7125 324.613 19.9525 323.92ZM13.4725 321.46H19.8125C19.7858 320.553 19.4992 319.8 18.9525 319.2C18.3658 318.587 17.5925 318.28 16.6325 318.28C15.7792 318.28 15.0458 318.587 14.4325 319.2C13.8592 319.8 13.5392 320.553 13.4725 321.46ZM22.7175 324.46L23.8175 324.08C23.9108 324.733 24.1775 325.253 24.6175 325.64C25.0708 326.027 25.6775 326.22 26.4375 326.22C27.0642 326.22 27.5775 326.067 27.9775 325.76C28.3775 325.44 28.5775 325.027 28.5775 324.52C28.5775 323.667 28.0375 323.127 26.9575 322.9L25.3575 322.54C23.8242 322.18 23.0575 321.333 23.0575 320C23.0575 319.227 23.3775 318.567 24.0175 318.02C24.6575 317.473 25.4108 317.2 26.2775 317.2C27.2508 317.2 28.0642 317.48 28.7175 318.04C29.1842 318.467 29.5042 319.033 29.6775 319.74L28.6175 320.14C28.5242 319.62 28.3042 319.187 27.9575 318.84C27.5042 318.44 26.9442 318.24 26.2775 318.24C25.7175 318.24 25.2442 318.393 24.8575 318.7C24.4442 319.02 24.2375 319.427 24.2375 319.92C24.2375 320.693 24.7242 321.2 25.6975 321.44L27.2775 321.78C28.9308 322.167 29.7575 323.053 29.7575 324.44C29.7575 325.187 29.4708 325.833 28.8975 326.38C28.2708 326.967 27.4442 327.26 26.4175 327.26C25.2975 327.26 24.4175 326.96 23.7775 326.36C23.1908 325.84 22.8375 325.207 22.7175 324.46ZM34.168 314.44V317.46H36.648V318.56H34.168V324.3C34.168 325.447 34.708 326.02 35.788 326.02C36.148 326.02 36.4346 325.973 36.648 325.88V326.92C36.408 327.04 36.0146 327.1 35.468 327.1C34.6813 327.1 34.068 326.873 33.628 326.42C33.188 325.953 32.968 325.287 32.968 324.42V318.56H30.948V317.46H31.668C32.6013 317.46 33.068 316.993 33.068 316.06V314.44H34.168Z" fill="white"/>
<path d="M179.26 327H174.88V312.82H179.3C181.193 312.82 182.767 313.427 184.02 314.64C185.367 315.947 186.04 317.713 186.04 319.94C186.04 322.167 185.36 323.92 184 325.2C182.733 326.4 181.153 327 179.26 327ZM176.14 325.88H179.22C180.793 325.88 182.08 325.387 183.08 324.4C184.187 323.32 184.74 321.833 184.74 319.94C184.74 318.047 184.2 316.547 183.12 315.44C182.093 314.44 180.807 313.94 179.26 313.94H176.14V325.88ZM195.781 323.92L196.841 324.3C196.561 325.153 196.074 325.847 195.381 326.38C194.621 326.967 193.714 327.26 192.661 327.26C191.341 327.26 190.254 326.813 189.401 325.92C188.481 325 188.021 323.76 188.021 322.2C188.021 320.76 188.461 319.553 189.341 318.58C190.181 317.66 191.214 317.2 192.441 317.2C193.801 317.2 194.894 317.653 195.721 318.56C196.507 319.453 196.901 320.607 196.901 322.02C196.901 322.1 196.887 322.247 196.861 322.46H189.261V322.54C189.261 323.62 189.594 324.507 190.261 325.2C190.901 325.867 191.701 326.2 192.661 326.2C193.447 326.2 194.134 325.973 194.721 325.52C195.187 325.147 195.541 324.613 195.781 323.92ZM189.301 321.46H195.641C195.614 320.553 195.327 319.8 194.781 319.2C194.194 318.587 193.421 318.28 192.461 318.28C191.607 318.28 190.874 318.587 190.261 319.2C189.687 319.8 189.367 320.553 189.301 321.46ZM200.646 327H199.446V312.56H200.646V327ZM204.576 314.48C204.31 314.48 204.076 314.387 203.876 314.2C203.69 314.013 203.596 313.787 203.596 313.52C203.596 313.24 203.69 313 203.876 312.8C204.076 312.6 204.31 312.5 204.576 312.5C204.856 312.5 205.09 312.6 205.276 312.8C205.476 313 205.576 313.24 205.576 313.52C205.576 313.787 205.476 314.013 205.276 314.2C205.09 314.387 204.856 314.48 204.576 314.48ZM205.176 327H203.996V317.46H205.176V327ZM215.988 317.46L212.228 327H210.968L207.168 317.46H208.528L211.608 325.64L214.708 317.46H215.988ZM224.765 323.92L225.825 324.3C225.545 325.153 225.058 325.847 224.365 326.38C223.605 326.967 222.698 327.26 221.645 327.26C220.325 327.26 219.238 326.813 218.385 325.92C217.465 325 217.005 323.76 217.005 322.2C217.005 320.76 217.445 319.553 218.325 318.58C219.165 317.66 220.198 317.2 221.425 317.2C222.785 317.2 223.878 317.653 224.705 318.56C225.492 319.453 225.885 320.607 225.885 322.02C225.885 322.1 225.872 322.247 225.845 322.46H218.245V322.54C218.245 323.62 218.578 324.507 219.245 325.2C219.885 325.867 220.685 326.2 221.645 326.2C222.432 326.2 223.118 325.973 223.705 325.52C224.172 325.147 224.525 324.613 224.765 323.92ZM218.285 321.46H224.625C224.598 320.553 224.312 319.8 223.765 319.2C223.178 318.587 222.405 318.28 221.445 318.28C220.592 318.28 219.858 318.587 219.245 319.2C218.672 319.8 218.352 320.553 218.285 321.46ZM233.29 317.44V318.7C233.09 318.633 232.81 318.6 232.45 318.6C231.597 318.6 230.91 318.873 230.39 319.42C229.883 319.953 229.63 320.753 229.63 321.82V327H228.43V317.46H229.59V319.24C230.177 317.973 231.163 317.34 232.55 317.34C232.91 317.34 233.157 317.373 233.29 317.44Z" fill="white"/>
<path d="M11.24 513H2.88V498.82H11.24V499.98H4.14V505.32H10.62V506.48H4.14V511.84H11.24V513ZM21.3314 503.46L17.5714 513H16.3114L12.5114 503.46H13.8714L16.9514 511.64L20.0514 503.46H21.3314ZM23.7088 504.6C24.6021 503.667 25.7088 503.2 27.0288 503.2C28.3488 503.2 29.4621 503.667 30.3688 504.6C31.2754 505.547 31.7288 506.76 31.7288 508.24C31.7288 509.72 31.2754 510.927 30.3688 511.86C29.4621 512.793 28.3488 513.26 27.0288 513.26C25.7221 513.26 24.6221 512.793 23.7288 511.86C22.8088 510.913 22.3488 509.707 22.3488 508.24C22.3488 506.747 22.8021 505.533 23.7088 504.6ZM24.6088 511.14C25.2621 511.833 26.0688 512.18 27.0288 512.18C27.9888 512.18 28.8021 511.833 29.4688 511.14C30.1621 510.407 30.5088 509.44 30.5088 508.24C30.5088 507.053 30.1621 506.08 29.4688 505.32C28.8288 504.64 28.0154 504.3 27.0288 504.3C26.0421 504.3 25.2354 504.64 24.6088 505.32C23.9154 506.08 23.5688 507.053 23.5688 508.24C23.5688 509.44 23.9154 510.407 24.6088 511.14ZM35.4816 513H34.2816V498.56H35.4816V513ZM46.2923 503.46L42.5323 513H41.2723L37.4723 503.46H38.8323L41.9123 511.64L45.0123 503.46H46.2923ZM55.0697 509.92L56.1297 510.3C55.8497 511.153 55.363 511.847 54.6697 512.38C53.9097 512.967 53.003 513.26 51.9497 513.26C50.6297 513.26 49.543 512.813 48.6897 511.92C47.7697 511 47.3097 509.76 47.3097 508.2C47.3097 506.76 47.7497 505.553 48.6297 504.58C49.4697 503.66 50.503 503.2 51.7297 503.2C53.0897 503.2 54.183 503.653 55.0097 504.56C55.7964 505.453 56.1897 506.607 56.1897 508.02C56.1897 508.1 56.1764 508.247 56.1497 508.46H48.5497V508.54C48.5497 509.62 48.883 510.507 49.5497 511.2C50.1897 511.867 50.9897 512.2 51.9497 512.2C52.7364 512.2 53.423 511.973 54.0097 511.52C54.4764 511.147 54.8297 510.613 55.0697 509.92ZM48.5897 507.46H54.9297C54.903 506.553 54.6164 505.8 54.0697 505.2C53.483 504.587 52.7097 504.28 51.7497 504.28C50.8964 504.28 50.163 504.587 49.5497 505.2C48.9764 505.8 48.6564 506.553 48.5897 507.46Z" fill="white"/>
<path d="M182.54 513L179.12 506.88H176.16V513H174.88V498.82H179.84C181.067 498.82 182.087 499.207 182.9 499.98C183.673 500.713 184.06 501.673 184.06 502.86C184.06 503.9 183.74 504.773 183.1 505.48C182.433 506.213 181.567 506.647 180.5 506.78L184.02 513H182.54ZM176.16 505.72H179.62C180.567 505.72 181.327 505.46 181.9 504.94C182.473 504.42 182.76 503.727 182.76 502.86C182.76 501.98 182.473 501.28 181.9 500.76C181.327 500.227 180.567 499.96 179.62 499.96H176.16V505.72ZM193.242 509.92L194.302 510.3C194.022 511.153 193.535 511.847 192.842 512.38C192.082 512.967 191.175 513.26 190.122 513.26C188.802 513.26 187.715 512.813 186.862 511.92C185.942 511 185.482 509.76 185.482 508.2C185.482 506.76 185.922 505.553 186.802 504.58C187.642 503.66 188.675 503.2 189.902 503.2C191.262 503.2 192.355 503.653 193.182 504.56C193.968 505.453 194.362 506.607 194.362 508.02C194.362 508.1 194.348 508.247 194.322 508.46H186.722V508.54C186.722 509.62 187.055 510.507 187.722 511.2C188.362 511.867 189.162 512.2 190.122 512.2C190.908 512.2 191.595 511.973 192.182 511.52C192.648 511.147 193.002 510.613 193.242 509.92ZM186.762 507.46H193.102C193.075 506.553 192.788 505.8 192.242 505.2C191.655 504.587 190.882 504.28 189.922 504.28C189.068 504.28 188.335 504.587 187.722 505.2C187.148 505.8 186.828 506.553 186.762 507.46ZM198.087 516.8H196.907V503.46H198.087V505.36C198.38 504.76 198.78 504.28 199.287 503.92C199.927 503.467 200.68 503.24 201.547 503.24C202.853 503.24 203.913 503.713 204.727 504.66C205.487 505.633 205.867 506.82 205.867 508.22C205.867 509.673 205.48 510.867 204.707 511.8C203.893 512.76 202.827 513.24 201.507 513.24C200.64 513.24 199.9 513.02 199.287 512.58C198.753 512.207 198.353 511.747 198.087 511.2V516.8ZM203.747 511.04C204.347 510.293 204.647 509.353 204.647 508.22C204.647 507.073 204.347 506.14 203.747 505.42C203.133 504.673 202.333 504.3 201.347 504.3C200.36 504.3 199.567 504.673 198.967 505.42C198.367 506.167 198.067 507.1 198.067 508.22C198.067 509.38 198.367 510.32 198.967 511.04C199.553 511.8 200.347 512.18 201.347 512.18C202.333 512.18 203.133 511.8 203.747 511.04ZM215.37 509.92L216.43 510.3C216.15 511.153 215.664 511.847 214.97 512.38C214.21 512.967 213.304 513.26 212.25 513.26C210.93 513.26 209.844 512.813 208.99 511.92C208.07 511 207.61 509.76 207.61 508.2C207.61 506.76 208.05 505.553 208.93 504.58C209.77 503.66 210.804 503.2 212.03 503.2C213.39 503.2 214.484 503.653 215.31 504.56C216.097 505.453 216.49 506.607 216.49 508.02C216.49 508.1 216.477 508.247 216.45 508.46H208.85V508.54C208.85 509.62 209.184 510.507 209.85 511.2C210.49 511.867 211.29 512.2 212.25 512.2C213.037 512.2 213.724 511.973 214.31 511.52C214.777 511.147 215.13 510.613 215.37 509.92ZM208.89 507.46H215.23C215.204 506.553 214.917 505.8 214.37 505.2C213.784 504.587 213.01 504.28 212.05 504.28C211.197 504.28 210.464 504.587 209.85 505.2C209.277 505.8 208.957 506.553 208.89 507.46ZM219.195 512.4C218.649 511.92 218.375 511.3 218.375 510.54C218.375 508.993 219.335 508.053 221.255 507.72L223.795 507.34C224.462 507.22 224.795 506.907 224.795 506.4C224.795 505.747 224.582 505.227 224.155 504.84C223.742 504.44 223.155 504.24 222.395 504.24C221.635 504.24 221.015 504.44 220.535 504.84C220.069 505.24 219.802 505.787 219.735 506.48L218.575 506.22C218.669 505.34 219.075 504.607 219.795 504.02C220.489 503.473 221.349 503.2 222.375 503.2C223.562 503.2 224.475 503.52 225.115 504.16C225.702 504.787 225.995 505.573 225.995 506.52V511.36C225.995 511.92 226.035 512.467 226.115 513H224.955C224.875 512.707 224.835 512.16 224.835 511.36C224.555 511.893 224.162 512.313 223.655 512.62C223.042 513.033 222.329 513.24 221.515 513.24C220.569 513.24 219.795 512.96 219.195 512.4ZM219.615 510.48C219.615 510.947 219.795 511.353 220.155 511.7C220.515 512.047 221.015 512.22 221.655 512.22C222.575 512.22 223.329 511.94 223.915 511.38C224.502 510.82 224.795 510.06 224.795 509.1V507.96C224.729 508.027 224.562 508.093 224.295 508.16C223.949 508.267 223.695 508.327 223.535 508.34L221.415 508.66C220.215 508.833 219.615 509.44 219.615 510.48ZM230.836 500.44V503.46H233.316V504.56H230.836V510.3C230.836 511.447 231.376 512.02 232.456 512.02C232.816 512.02 233.103 511.973 233.316 511.88V512.92C233.076 513.04 232.683 513.1 232.136 513.1C231.349 513.1 230.736 512.873 230.296 512.42C229.856 511.953 229.636 511.287 229.636 510.42V504.56H227.616V503.46H228.336C229.269 503.46 229.736 502.993 229.736 502.06V500.44H230.836Z" fill="white"/>
<circle cx="43" cy="42" r="41" stroke="white" stroke-width="2"/>
<line x1="70.7637" y1="72.3761" x2="105.39" y2="107.002" stroke="white" stroke-width="2"/>
<path d="M209.873 449.467L173.251 412.845L207.548 378.548" stroke="white" stroke-width="2"/>
<path d="M173 413H232.032C246.479 413 259 424.384 259 440.5C259 455.529 248.405 468 228.821 468" stroke="white" stroke-width="2"/>
<path d="M43 380H94V427" stroke="white" stroke-width="2"/>
<path d="M1 474C73.7636 399.655 92.6515 380.356 93 380" stroke="white" stroke-width="2"/>
<path d="M173 201L192.17 243.357L177.702 289L275 243.357L173 201Z" stroke="white" stroke-width="2"/>
<path d="M20.2072 263V264L20.5671 262.067L20.2072 263ZM20 263V262H19V263H20ZM20 289H19V291.351L20.6936 289.72L20 289ZM44.9231 265V264H44.5199L44.2294 264.28L44.9231 265ZM2 231C2 214.984 14.9837 202 31 202V200C13.8792 200 0 213.879 0 231H2ZM2 235V231H0V235H2ZM20.5671 262.067C9.70399 257.877 2 247.337 2 235H0C0 248.191 8.23853 259.455 19.8473 263.933L20.5671 262.067ZM20 264H20.2072V262H20V264ZM21 289V263H19V289H21ZM44.2294 264.28L19.3064 288.28L20.6936 289.72L45.6167 265.72L44.2294 264.28ZM74 264H44.9231V266H74V264ZM103 235C103 251.016 90.0163 264 74 264V266C91.1208 266 105 252.121 105 235H103ZM103 231V235H105V231H103ZM74 202C90.0163 202 103 214.984 103 231H105C105 213.879 91.1208 200 74 200V202ZM31 202H74V200H31V202Z" fill="white"/>
<path d="M232.794 83.2028L218.04 98.0683L173.714 53.7426L218.043 9.41422L233.082 24.4538L204.295 53.0329L203.586 53.7369L204.29 54.4466L232.794 83.2028Z" stroke="white" stroke-width="2"/>
<path d="M234.79 53.0831L234.098 53.7811L234.784 54.4847L262.809 83.2411L248.049 98.1125L203.723 53.7868L248.052 9.45844L263.097 24.5039L234.79 53.0831Z" stroke="white" stroke-width="2"/>
<rect x="233.914" y="53.7426" width="62.6898" height="62.6898" transform="rotate(-45 233.914 53.7426)" stroke="white" stroke-width="2"/>
</svg>
